<?xml version="1.0" standalone="no"?><!DOCTYPE svg PUBLIC "-//W3C//DTD SVG 1.1//EN" "http://www.w3.org/Graphics/SVG/1.1/DTD/svg11.dtd"><svg t="1592194609425" class="icon" viewBox="0 0 1024 1024" version="1.1" xmlns="http://www.w3.org/2000/svg" p-id="2005" xmlns:xlink="http://www.w3.org/1999/xlink" width="128" height="128"><defs><style type="text/css"></style></defs><path d="M287.696 219.28c-7.843 27.994-12.037 57.512-12.037 88.009 0 65.932 19.602 127.286 53.298 178.556-47.272 15.35-88.78 43.485-120.442 80.327-40.693-37.577-66.135-91.12-66.135-150.546 0-92.07 61.074-170.023 145.316-196.346zM179.542 607.043c-22.688 39.337-35.668 84.978-35.668 133.651v205.843H11v-186.98c0-84.231 68.283-152.514 152.513-152.514h16.03zM803.329 562.943h32.94c97.433 0 176.418 78.985 176.418 176.418V953H231.705V739.361c0-94.905 74.94-172.308 168.874-176.26 55.359 43.69 125.27 69.766 201.274 69.766 76.096 0 146.085-26.138 201.476-69.924z" p-id="2006"></path><path d="M364.128 305.756a237.214 234.756 0 1 0 474.428 0 237.214 234.756 0 1 0-474.428 0Z" p-id="2007"></path></svg>