<?xml version="1.0" standalone="no"?><!DOCTYPE svg PUBLIC "-//W3C//DTD SVG 1.1//EN" "http://www.w3.org/Graphics/SVG/1.1/DTD/svg11.dtd"><svg t="1594781666863" class="icon" viewBox="0 0 1024 1024" version="1.1" xmlns="http://www.w3.org/2000/svg" p-id="6872" xmlns:xlink="http://www.w3.org/1999/xlink" width="128" height="128"><defs><style type="text/css"></style></defs><path d="M418.133 87.04c-20.48-13.653-90.453-49.493-131.413-71.68-35.84-20.48-47.787 22.187-51.2 52.907-3.413 29.013-3.413 68.266 34.133 68.266H409.6c37.547-1.706 37.547-32.426 8.533-49.493zM8.533 235.52v87.04c0 32.427 10.24 47.787 52.907 47.787h315.733V192.853H61.44c-44.373 0-52.907 0-52.907 42.667z m35.84 672.427c0 66.56 39.254 104.106 122.88 104.106h209.92V431.787h-332.8v476.16zM882.347 235.52c0-29.013-11.947-47.787-56.32-47.787h-312.32v179.2h314.026c42.667 0 52.907-15.36 52.907-46.08s0-56.32 1.707-85.333zM662.187 66.56c-3.414-29.013-13.654-73.387-51.2-52.907-40.96 22.187-110.934 59.734-131.414 71.68-29.013 17.067-29.013 47.787 8.534 47.787h138.24c39.253 1.707 39.253-37.547 35.84-66.56z m339.626 718.507l-30.72-6.827v-1.707c-1.706-6.826-5.12-13.653-8.533-20.48l-1.707-1.706 17.067-27.307c5.12-8.533 6.827-18.773 0-25.6l-15.36-15.36c-3.413-3.413-8.533-5.12-11.947-5.12-5.12 0-10.24 1.707-13.653 5.12l-27.307 17.067-3.413-3.414c-6.827-3.413-13.653-6.826-20.48-8.533h-1.707l-6.826-30.72c-1.707-8.533-10.24-18.773-18.774-18.773h-22.186c-10.24 0-15.36 10.24-18.774 18.773l-8.533 30.72h-1.707c-6.826 1.707-13.653 5.12-20.48 8.533l-1.706 1.707-27.307-17.067c-3.413-3.413-8.533-5.12-13.653-5.12-3.414 0-8.534 0-11.947 5.12l-17.067 15.36c-6.826 6.827-5.12 18.774 0 25.6l17.067 29.014-1.707 1.706c-3.413 6.827-5.12 11.947-6.826 18.774v1.706l-30.72 8.534c-8.534 1.706-18.774 10.24-18.774 18.773v22.187c0 10.24 10.24 15.36 18.774 18.773l30.72 8.533v1.707c1.706 5.12 3.413 11.947 6.826 17.067l1.707 1.706-17.067 29.014c-5.12 8.533-6.826 18.773 0 25.6l15.36 15.36c3.414 3.413 8.534 5.12 11.947 5.12 5.12 0 10.24-1.707 13.653-5.12l27.307-17.067 1.707 1.707c6.826 3.413 13.653 6.826 20.48 8.533h1.706l8.534 30.72c1.706 10.24 8.533 18.773 18.773 18.773h22.187c10.24 0 17.066-10.24 18.773-18.773l6.827-30.72h1.706c6.827-1.707 13.654-5.12 18.774-8.533l1.706-1.707 27.307 17.067c3.413 3.413 8.533 5.12 13.653 5.12 3.414 0 8.534 0 11.947-5.12l15.36-15.36c6.827-6.827 5.12-18.774 0-25.6l-17.067-27.307 1.707-1.707c3.413-6.826 5.12-11.946 8.533-18.773v-1.707l30.72-8.533c10.24-1.707 18.774-8.533 18.774-18.773V803.84c5.12-10.24-3.414-17.067-13.654-18.773z m-153.6 107.52c-42.666 0-78.506-34.134-78.506-78.507s34.133-78.507 78.506-78.507 78.507 34.134 78.507 78.507-35.84 78.507-78.507 78.507z" p-id="6873"></path><path d="M655.36 822.613c0-107.52 76.8-197.973 182.613-221.866V433.493H513.707v580.267H716.8c15.36 0 29.013-1.707 40.96-3.413-61.44-42.667-102.4-110.934-102.4-187.734z" p-id="6874"></path></svg>