<?xml version="1.0" standalone="no"?><!DOCTYPE svg PUBLIC "-//W3C//DTD SVG 1.1//EN" "http://www.w3.org/Graphics/SVG/1.1/DTD/svg11.dtd"><svg t="1592189278762" class="icon" viewBox="0 0 1024 1024" version="1.1" xmlns="http://www.w3.org/2000/svg" p-id="7212" xmlns:xlink="http://www.w3.org/1999/xlink" width="128" height="128"><defs><style type="text/css"></style></defs><path d="M325.818182 581.818182v-69.818182a186.205091 186.205091 0 0 1 162.909091-184.738909V279.272727h23.272727v-23.272727h23.272727v46.545455h-23.272727v23.272727a186.181818 186.181818 0 0 1 186.181818 186.181818v69.818182h23.272727v69.818182h-23.272727v69.818181H325.818182v-69.818181h-23.272727v-69.818182h23.272727z m23.272727 0v116.363636h325.818182v-186.181818a162.909091 162.909091 0 0 0-325.818182 0v69.818182z m162.909091-581.818182l442.181818 256v512L512 1024 69.818182 768V256L512 0z m0 28.276364L93.090909 270.149818v483.700364l418.909091 241.873454 418.909091-241.873454V270.149818L512 28.276364zM418.909091 744.727273h186.181818v23.272727h-186.181818v-23.272727z m23.272727-256a23.272727 23.272727 0 1 1 0 46.545454 23.272727 23.272727 0 0 1 0-46.545454z m139.636364 0a23.272727 23.272727 0 1 1 0 46.545454 23.272727 23.272727 0 0 1 0-46.545454z" p-id="7213"></path></svg>