<svg t="1580800453009" class="icon" viewBox="0 0 1024 1024" version="1.1" xmlns="http://www.w3.org/2000/svg" p-id="949" width="128" height="128"><path d="M158.0648441 1016.08946446h710.55163874c80.43980815 0 147.47298163-67.03317346 147.47298162-147.47298162V158.0648441c0-80.43980815-67.03317346-147.47298163-147.47298162-147.47298163H158.0648441c-80.43980815 0-147.47298163 67.03317346-147.47298163 147.47298163v710.55163874c0 80.43980815 64.35184654 147.47298163 147.47298163 147.47298162z m-80.43980815-858.02462036c0-42.90123101 34.8572502-80.43980815 80.43980815-80.43980815h710.55163874c42.90123101 0 80.43980815 34.8572502 80.43980817 80.43980815v710.55163874c0 42.90123101-34.8572502 80.43980815-80.43980817 80.43980817H158.0648441c-42.90123101 0-80.43980815-34.8572502-80.43980815-80.43980817V158.0648441z" p-id="950"></path><path d="M747.9567706 214.37270982h67.03317345v595.25458036h-67.03317345zM297.49384493 619.25307755h238.63809751l72.39582735 190.37421263H672.87961633l-227.91278979-595.25458036h-56.30786574l-233.27544364 595.25458036h67.03317347L297.49384493 619.25307755z m120.65971223-305.67127101l91.1651159 238.63809753H324.30711429l93.84644287-238.63809753z" p-id="951"></path></svg>