<?xml version="1.0" encoding="utf-8"?>
<!-- Generator: Adobe Illustrator 24.2.0, SVG Export Plug-In . SVG Version: 6.00 Build 0)  -->
<svg version="1.1" xmlns="http://www.w3.org/2000/svg" xmlns:xlink="http://www.w3.org/1999/xlink" x="0px" y="0px"
	 viewBox="0 0 1024 1024" style="enable-background:new 0 0 1024 1024;" xml:space="preserve">
<g id="_x31_">
</g>
<g id="图层_2">
	<g>
		<g>
			<path d="M512,127.77c-229.75,0-416,186.25-416,416c0,92.86,30.43,178.6,81.85,247.82l-77.08,77.08l90.88,90.88l77.79-77.79
				c68.28,49.09,152.05,78.01,242.57,78.01c90.57,0,174.38-28.95,242.68-78.09l77.88,77.88l90.88-90.88l-77.2-77.2
				c51.37-69.2,81.77-154.9,81.77-247.71C928,314.02,741.75,127.77,512,127.77L512,127.77z M512,831.77
				c-76.93,0-149.25-29.96-203.65-84.35C253.96,693.02,224,620.7,224,543.77s29.96-149.25,84.35-203.65
				c54.4-54.4,126.72-84.35,203.65-84.35s149.25,29.96,203.65,84.35c54.4,54.4,84.35,126.72,84.35,203.65
				s-29.96,149.25-84.35,203.65C661.25,801.82,588.93,831.77,512,831.77L512,831.77z"/>
		</g>
		<g>
			<polygon points="211.2,28.96 29.06,211.1 74.15,256.2 256.3,74.06 211.2,28.96 			"/>
		</g>
		<g>
			<polygon points="814.15,27.82 769.05,72.92 951.2,255.06 996.3,209.97 814.15,27.82 			"/>
		</g>
		<g>
			<polygon points="544.01,320 479.99,320 479.99,576.05 480.89,576.05 479.99,576.95 615.98,712.93 661.24,667.67 544.01,550.43 
				544.01,320 			"/>
		</g>
	</g>
</g>
</svg>
