<svg t="1592188961822" class="icon" viewBox="0 0 1024 1024" version="1.1" xmlns="http://www.w3.org/2000/svg" p-id="1440" width="128" height="128"><path d="M149.04888889 835.12888889c0 20.13866667 16.27022222 36.40888889 36.40888889 36.40888889h653.08444444c20.13866667 0 36.40888889-16.27022222 36.40888889-36.40888889V570.02666667c0-200.47644445-162.47466667-362.95111111-362.95111111-362.95111112S149.04888889 369.55022222 149.04888889 570.02666667v265.10222222z m81.92-265.10222222c0-155.19288889 125.83822222-281.03111111 281.03111111-281.03111112s281.03111111 125.83822222 281.03111111 281.03111112v219.59111111H389.12V595.05777778c0-6.25777778-5.12-11.37777778-11.37777778-11.37777778h-50.06222222c-6.25777778 0-11.37777778 5.12-11.37777778 11.37777778v194.56h-85.33333333V570.02666667z m-54.72711111-287.28888889l45.056-45.056c3.52711111-3.52711111 3.52711111-9.32977778 0-12.85688889l-77.25511111-77.25511111c-3.52711111-3.52711111-9.32977778-3.52711111-12.85688889 0l-45.056 45.056c-3.52711111 3.52711111-3.52711111 9.32977778 0 12.85688889l77.25511111 77.25511111c3.52711111 3.52711111 9.216 3.52711111 12.85688889 0z m761.856-90.112l-45.056-45.056c-3.52711111-3.52711111-9.32977778-3.52711111-12.85688889 0l-77.25511111 77.25511111c-3.52711111 3.52711111-3.52711111 9.32977778 0 12.85688889l45.056 45.056c3.52711111 3.52711111 9.32977778 3.52711111 12.85688889 0l77.25511111-77.25511111c3.52711111-3.64088889 3.52711111-9.32977778 0-12.85688889zM876.08888889 944.35555555H147.91111111c-20.13866667 0-36.40888889 16.27022222-36.40888889 36.4088889v27.30666666c0 5.00622222 4.096 9.10222222 9.10222223 9.10222222h782.7911111c5.00622222 0 9.10222222-4.096 9.10222223-9.10222222v-27.30666666c0-20.13866667-16.27022222-36.40888889-36.40888889-36.4088889zM480.14222222 134.25777778h63.71555556c5.00622222 0 9.10222222-4.096 9.10222222-9.10222223V15.92888889c0-5.00622222-4.096-9.10222222-9.10222222-9.10222222h-63.71555556c-5.00622222 0-9.10222222 4.096-9.10222222 9.10222222v109.22666666c0 5.00622222 4.096 9.10222222 9.10222222 9.10222223z" p-id="1441"></path></svg>