<?xml version="1.0" standalone="no"?><!DOCTYPE svg PUBLIC "-//W3C//DTD SVG 1.1//EN" "http://www.w3.org/Graphics/SVG/1.1/DTD/svg11.dtd"><svg t="1592190710949" class="icon" viewBox="0 0 1024 1024" version="1.1" xmlns="http://www.w3.org/2000/svg" p-id="1849" xmlns:xlink="http://www.w3.org/1999/xlink" width="128" height="128"><defs><style type="text/css"></style></defs><path d="M903.78808889 877.52931555a48.44771555 48.44771555 0 0 0 45.81831111-54.83178666l-18.40241778-100.27576889a92.01322667 92.01322667 0 0 0-85.62915555-73.23534222h-220.45582222l-18.02695112-112.66958223A268.52920889 268.52920889 0 0 0 775.71982222 284.13724445a274.16234667 274.16234667 0 1 0-547.94922667 0 268.90467555 268.90467555 0 0 0 169.00551112 250.87772444l-13.52135112 112.66844444h-219.32942222a88.25742222 88.25742222 0 0 0-86.75555555 73.23534222l-18.40355556 100.2757689a43.19004445 43.19004445 0 0 0 41.31271111 54.83292444z" p-id="1850"></path><path d="M113.22368 911.33041778h788.68593778a56.33479111 56.33479111 0 0 1 56.33479111 56.33479111A56.33479111 56.33479111 0 0 1 901.90961778 1024H113.22368A56.33479111 56.33479111 0 0 1 56.88888889 967.66520889a56.33479111 56.33479111 0 0 1 56.33479111-56.33479111z" p-id="1851"></path><path d="M648.40362667 244.70186667a37.55690667 37.55690667 0 1 0 75.11267555 0 37.55690667 37.55690667 0 1 0-75.11267555 0zM529.72544 93.72558222a202.43000889 202.43000889 0 0 1 63.84526222 32.67470223 187.78225778 187.78225778 0 0 1 37.55804445 54.45632 28.54343111 28.54343111 0 0 0 50.32391111-26.28949334 252.37959111 252.37959111 0 0 0-52.57784889-70.60593778 245.99552 245.99552 0 0 0-82.24995556-43.56551111 28.20551111 28.20551111 0 0 0-18.40241778 53.32992z" p-id="1852"></path></svg>