<?xml version="1.0" encoding="utf-8"?>
<!-- Generator: Adobe Illustrator 24.2.0, SVG Export Plug-In . SVG Version: 6.00 Build 0)  -->
<svg version="1.1" xmlns="http://www.w3.org/2000/svg" xmlns:xlink="http://www.w3.org/1999/xlink" x="0px" y="0px"
	 viewBox="0 0 1024 1024" style="enable-background:new 0 0 1024 1024;" xml:space="preserve">
<g id="_x31_">
</g>
<g id="图层_2">
	<g>
		<polygon points="704.16,63.99 704.16,-0.18 539.55,-0.18 484.66,-0.18 320.05,-0.18 320.05,63.99 539.55,63.99 		"/>
		<path d="M0,63.95v128h128.02v365.22v100.62l-0.84,238.07h-0.83v128h430.76h339.05v-128h-0.84l0.84-338.69V191.95h128.02v-128H0z
			 M557.12,895.85h-91.7H255.19l0.84-338.69V191.95h320.56h191.58v365.22v100.62l-0.84,238.07H557.12z"/>
		<polygon points="384.07,585.17 384.07,630.84 384.07,767.8 448.07,767.8 448.07,585.17 448.07,320.37 384.07,320.37 		"/>
		<polygon points="576.11,585.17 576.11,630.84 576.11,767.8 640.11,767.8 640.11,585.17 640.11,320.37 576.11,320.37 		"/>
	</g>
</g>
</svg>
