<?xml version="1.0" standalone="no"?><!DOCTYPE svg PUBLIC "-//W3C//DTD SVG 1.1//EN" "http://www.w3.org/Graphics/SVG/1.1/DTD/svg11.dtd"><svg t="1592191140844" class="icon" viewBox="0 0 1024 1024" version="1.1" xmlns="http://www.w3.org/2000/svg" p-id="6610" xmlns:xlink="http://www.w3.org/1999/xlink" width="128" height="128"><defs><style type="text/css"></style></defs><path d="M776.689 226.468C752.143 84.884 618.568-9.564 478.403 15.334 338.422 40.238 220.14 149.268 244.864 290.673c5.335 30.592 20.096 78.264 37.53 112.594L28.042 770.207c-9.426 13.517-14.766 37.888-11.92 54.251l11.03 62.787c-10.497-60.473 2.846 21.878 11.023 21.52l83.773 1.243c16.19-2.841 36.465-16.542 45.358-30.412L267.981 722.18l0.886-1.07 87.869 6.938 117.57-184.274s26.169-53.54 123.075-105.058c88.694-41.067 163.041-32.491 163.041-32.491 21.571-53.996 27.203-117.668 16.267-179.758zM96.865 795.382l-22 13.85 5.125-24.884 238.704-341.627 16.507 11.561-238.336 341.1z m555.848-496.528c-38.595 55.496-77.906 16.369-132.864-22.589-54.963-38.953-104.945-62.781-66.345-118.456 38.595-55.49 114.365-69.187 169.329-30.24 54.958 39.133 68.475 115.795 29.88 171.285z" p-id="6611"></path><path d="M724.48 526.029h287.099V638.56H724.48V526.03z m0 183.66h175.488v114.37H724.48v-114.37z m0 184.58h251.361v114.371H724.48V894.27zM555.991 526.03h103.055V638.56H555.991V526.03z m0 183.66h103.055v114.37H555.991v-114.37z m0 184.58h103.055v114.371H555.991V894.27z" p-id="6612"></path></svg>