<?xml version="1.0" standalone="no"?><!DOCTYPE svg PUBLIC "-//W3C//DTD SVG 1.1//EN" "http://www.w3.org/Graphics/SVG/1.1/DTD/svg11.dtd"><svg t="1592189443787" class="icon" viewBox="0 0 1032 1024" version="1.1" xmlns="http://www.w3.org/2000/svg" p-id="10444" xmlns:xlink="http://www.w3.org/1999/xlink" width="129" height="128"><defs><style type="text/css"></style></defs><path d="M390.085337 406.740109H15.916214c-3.972071 0-7.944143-1.588829-11.1218-4.766486-3.177657-3.177657-4.766486-7.149728-4.766485-11.1218C0.822343 175.565555 176.387898 0 390.085337 0c8.738557 0 15.888285 7.149728 15.888286 15.888285v374.963538c0 8.738557-7.149728 15.888285-15.888286 15.888286z m-357.486423-31.776571h342.392552V31.776571C189.89294 40.515128 41.337471 189.865012 32.598914 374.963538z" p-id="10445"></path><path d="M86.619085 335.242824h-1.588829c-3.972071-0.794414-7.149728-4.766486-6.355314-9.532971 26.215671-124.723041 123.134213-221.641583 246.268425-247.857254 3.972071-0.794414 8.738557 1.588829 9.532971 6.355314 0.794414 3.972071-1.588829 8.738557-6.355314 9.532971C211.342126 118.367727 119.19007 211.314197 93.768813 329.681924c-0.794414 3.177657-3.972071 5.5609-7.149728 5.5609zM487.003879 115.19007c70.70287 6.355314 137.43367 34.954228 191.45384 81.82467 51.636928 45.281614 88.974399 104.862684 107.245927 170.799069-16.6827 0.794414-30.982157 14.299457-30.982156 31.776571v7.149729c-39.720714 7.149728-73.880528 23.038014-101.685028 47.664856-35.748642 32.570985-53.225756 74.674942-53.225756 124.723041 0 50.842514 16.6827 90.563227 48.459271 117.573313 9.532971 7.944143 19.860357 15.093871 31.776571 21.449185-61.964313 54.814585-142.200155 85.002327-224.81924 85.002328-178.743212 0-325.709853-139.022498-341.598138-315.382467h341.598138c17.477114 0 31.776571-14.299457 31.776571-31.776571V115.19007m-31.776571-33.3654V456.788208H81.058185v1.588828c0 208.13654 167.621412 377.34678 374.169123 377.346781 111.217998 0 211.314197-49.253685 280.428239-127.106284-27.8045-10.327386-50.048099-22.2436-65.936385-35.748642-24.626843-20.654771-37.337471-52.431342-37.337471-93.740885 0-41.309542 14.299457-74.674942 42.898371-100.890613 28.598914-26.215671 65.936385-40.515128 112.012413-42.898371v-35.748642h38.131885c-28.598914-180.33204-183.509697-317.76571-370.197052-317.76571z" p-id="10446"></path><path d="M832.574088 399.59038v36.543057c52.431342 3.972071 101.685027 21.449185 147.761056 54.02017l-46.076028 65.936385c-30.982157-22.2436-65.141971-36.543057-101.685028-41.309542v134.256012h2.383243c54.814585 12.710628 94.535299 30.187742 119.956556 52.431342 25.421257 22.2436 38.131885 54.020171 38.131885 95.329713 0 42.103957-14.299457 75.469356-43.692785 101.685028-29.393328 26.215671-68.319628 40.515128-116.778899 42.89837v51.636928h-45.281613v-52.431342c-65.141971-6.355314-123.134213-32.570985-174.771141-77.852599l51.636928-61.964313c39.720714 34.954228 81.030256 55.608999 123.134213 61.964313V723.711404c-19.065943-4.766486-35.748642-9.532971-51.636928-15.093871-27.8045-10.327386-50.048099-22.2436-65.936385-35.748642-24.626843-20.654771-37.337471-52.431342-37.337471-93.740885 0-41.309542 14.299457-74.674942 42.898371-100.890613 28.598914-26.215671 65.936385-40.515128 112.012413-42.898371v-35.748642h45.281613m-45.281613 235.94104V512.397207c-21.449185 1.588829-38.131885 7.944143-50.0481 19.065943-11.916214 10.327386-18.271528 23.832428-18.271528 39.720713s4.766486 28.598914 14.299457 38.131886c9.532971 9.532971 27.010085 18.271528 53.225757 26.215671h0.794414m45.281613 229.585725c23.038014-2.383243 40.515128-8.738557 54.020171-19.860357 13.505043-11.1218 19.860357-24.626843 19.860357-41.309542s-5.5609-30.187742-15.888286-39.720714c-10.327386-9.532971-30.187742-19.065943-57.992242-27.804499v128.695112m0-497.303336h-45.281613c-17.477114 0-31.776571 14.299457-31.776571 31.776571v7.149729c-39.720714 7.149728-73.880528 23.038014-101.685027 47.664856-34.954228 32.570985-53.225756 74.674942-53.225757 124.723041 0 50.842514 16.6827 90.563227 48.459271 117.573313 19.065943 15.888285 43.692785 29.393328 76.26377 41.309542 9.532971 3.177657 19.860357 7.149728 30.187743 9.532971v73.086114c-23.832428-9.532971-46.870442-24.626843-69.908456-44.4872-5.5609-4.766486-13.505043-7.944143-20.654772-7.944142h-2.383242c-8.738557 0.794414-16.6827 4.766486-22.2436 11.121799l-51.636928 61.964314c-11.1218 13.505043-9.532971 32.570985 3.177657 44.487199 48.459271 42.898371 104.06827 69.908456 163.649341 81.824671v24.626842c0 17.477114 14.299457 31.776571 31.776571 31.776571h45.281613c17.477114 0 31.776571-14.299457 31.776571-31.776571v-23.038014c42.103957-6.355314 77.852599-23.038014 105.657099-47.664856 36.543057-32.570985 54.814585-74.674942 54.814585-125.517456 0-51.636928-16.6827-91.357642-49.253685-119.956555-26.215671-22.2436-62.758728-39.720714-111.217999-53.225757v-69.114042c18.271528 6.355314 34.954228 15.093871 51.636928 27.010086 5.5609 3.972071 11.916214 6.355314 18.271529 6.355314 1.588829 0 3.177657 0 5.5609-0.794414 8.738557-1.588829 15.888285-6.355314 20.654771-12.710629l46.076028-65.936385c4.766486-7.149728 7.149728-15.888285 5.5609-23.832428-1.588829-8.738557-6.355314-15.888285-13.505043-20.654771-42.103957-29.393328-87.38557-47.664856-134.256013-55.608999v-8.738557c0-16.6827-14.299457-30.982157-31.776571-30.982157z m-77.058184 218.463926c-1.588829-1.588829-4.766486-4.766486-4.766486-15.093872 0-5.5609 1.588829-9.532971 4.766486-13.505042v28.598914z m108.834755 235.941039v-38.926299c2.383243 1.588829 3.972071 2.383243 4.766486 3.177657 2.383243 2.383243 5.5609 6.355314 5.5609 16.6827 0 7.149728-2.383243 11.916214-8.738557 16.682699 0 0.794414-0.794414 1.588829-1.588829 2.383243z" p-id="10447"></path></svg>