<?xml version="1.0" standalone="no"?><!DOCTYPE svg PUBLIC "-//W3C//DTD SVG 1.1//EN" "http://www.w3.org/Graphics/SVG/1.1/DTD/svg11.dtd"><svg t="1580797381786" class="icon" viewBox="0 0 1024 1024" version="1.1" xmlns="http://www.w3.org/2000/svg" p-id="2395" xmlns:xlink="http://www.w3.org/1999/xlink" width="128" height="128"><defs><style type="text/css"></style></defs><path d="M1000.727 907.636h-46.545V349.091c0-51.2-41.891-93.091-93.091-93.091H674.909v651.636h-46.545V116.364c0-51.2-41.891-93.091-93.091-93.091H162.909c-51.2 0-93.09 41.89-93.09 93.09v791.273H23.272C9.309 907.636 0 916.946 0 930.91v46.546c0 13.963 9.31 23.272 23.273 23.272h977.454c13.964 0 23.273-9.309 23.273-23.272v-46.546c0-13.964-9.31-23.273-23.273-23.273zM302.545 698.182c0 13.963-9.309 23.273-23.272 23.273h-93.091c-13.964 0-23.273-9.31-23.273-23.273v-46.546c0-13.963 9.31-23.272 23.273-23.272h93.09c13.964 0 23.273 9.309 23.273 23.272v46.546z m0-186.182c0 13.964-9.309 23.273-23.272 23.273h-93.091c-13.964 0-23.273-9.31-23.273-23.273v-46.545c0-13.964 9.31-23.273 23.273-23.273h93.09c13.964 0 23.273 9.309 23.273 23.273V512z m0-186.182c0 13.964-9.309 23.273-23.272 23.273h-93.091c-13.964 0-23.273-9.31-23.273-23.273v-46.545c0-13.964 9.31-23.273 23.273-23.273h93.09c13.964 0 23.273 9.31 23.273 23.273v46.545z m232.728 372.364c0 13.963-9.31 23.273-23.273 23.273h-93.09c-13.965 0-23.274-9.31-23.274-23.273v-46.546c0-13.963 9.31-23.272 23.273-23.272H512c13.964 0 23.273 9.309 23.273 23.272v46.546z m0-186.182c0 13.964-9.31 23.273-23.273 23.273h-93.09c-13.965 0-23.274-9.31-23.274-23.273v-46.545c0-13.964 9.31-23.273 23.273-23.273H512c13.964 0 23.273 9.309 23.273 23.273V512z m0-186.182c0 13.964-9.31 23.273-23.273 23.273h-93.09c-13.965 0-23.274-9.31-23.274-23.273v-46.545c0-13.964 9.31-23.273 23.273-23.273H512c13.964 0 23.273 9.31 23.273 23.273v46.545z m349.09 372.364c0 13.963-9.308 23.273-23.272 23.273H768c-13.964 0-23.273-9.31-23.273-23.273v-46.546c0-13.963 9.31-23.272 23.273-23.272h93.09c13.965 0 23.274 9.309 23.274 23.272v46.546z m0-186.182c0 13.964-9.308 23.273-23.272 23.273H768c-13.964 0-23.273-9.31-23.273-23.273v-46.545c0-13.964 9.31-23.273 23.273-23.273h93.09c13.965 0 23.274 9.309 23.274 23.273V512z" p-id="2396"></path></svg>