<?xml version="1.0" standalone="no"?><!DOCTYPE svg PUBLIC "-//W3C//DTD SVG 1.1//EN" "http://www.w3.org/Graphics/SVG/1.1/DTD/svg11.dtd"><svg t="1580799402955" class="icon" viewBox="0 0 1024 1024" version="1.1" xmlns="http://www.w3.org/2000/svg" p-id="5172" xmlns:xlink="http://www.w3.org/1999/xlink" width="128" height="128"><defs><style type="text/css"></style></defs><path d="M1004 279.2H20c-4.8 0-8-3.2-8-8V20c0-4.8 3.2-8 8-8h984c4.8 0 8 3.2 8 8v251.2c0 4-3.2 8-8 8z m-976-16h968V28H28v235.2z" p-id="5173"></path><path d="M1004 1020H20c-8.8 0-16-7.2-16-16V20c0-8.8 7.2-16 16-16h984c8.8 0 16 7.2 16 16v984c0 8.8-7.2 16-16 16z m-968-32h952V36H36v952z" p-id="5174"></path><path d="M148.8 184c-4.8 0-8-3.2-8-8v-61.6c0-4.8 3.2-8 8-8s8 3.2 8 8V176c0 4.8-3.2 8-8 8zM260 184c-4.8 0-8-3.2-8-8v-61.6c0-4.8 3.2-8 8-8s8 3.2 8 8V176c0 4.8-3.2 8-8 8zM372 184c-4.8 0-8-3.2-8-8v-61.6c0-4.8 3.2-8 8-8s8 3.2 8 8V176c0 4.8-4 8-8 8zM153.6 833.6c-1.6 0-2.4 0-4-0.8-4-2.4-5.6-7.2-3.2-11.2l100-179.2c0.8-2.4 3.2-3.2 5.6-4 2.4-0.8 4.8 0 6.4 1.6L496 812.8l146.4-366.4c0.8-3.2 4-4.8 7.2-4.8s5.6 1.6 7.2 4l221.6 376c2.4 4 0.8 8.8-3.2 11.2-4 2.4-8.8 0.8-11.2-3.2L651.2 468l-144 360.8c-0.8 2.4-3.2 4-5.6 4.8-2.4 0.8-4.8 0-7.2-1.6L256 657.6l-96 172c-0.8 2.4-4 4-6.4 4z" p-id="5175"></path></svg>