<?xml version="1.0" encoding="utf-8"?>
<!-- Generator: Adobe Illustrator 24.2.0, SVG Export Plug-In . SVG Version: 6.00 Build 0)  -->
<svg version="1.1" xmlns="http://www.w3.org/2000/svg" xmlns:xlink="http://www.w3.org/1999/xlink" x="0px" y="0px"
	 viewBox="0 0 1024 1024" style="enable-background:new 0 0 1024 1024;" xml:space="preserve">
<g id="_x31_">
</g>
<g id="图层_2">
	<g>
		<polyline points="64.01,831.72 960.19,831.72 960.19,959.56 64.01,959.56 		"/>
	</g>
	<g>
		<polyline points="64.11,959.9 64.11,127.99 191.94,127.99 191.94,959.9 		"/>
	</g>
	<g>
		<polyline points="832.26,959.9 832.26,127.99 960.09,127.99 960.09,959.9 		"/>
	</g>
	<g>
		<polyline points="896.17,383.78 128.02,383.78 128.02,319.86 896.17,319.86 		"/>
	</g>
	<g>
		<polyline points="960.09,191.78 63.9,191.78 63.9,63.94 960.09,63.94 		"/>
	</g>
	<g>
		<polyline points="256.14,575.89 256.14,447.93 383.98,447.93 383.98,575.89 		"/>
	</g>
	<g>
		<polyline points="448.08,575.89 448.08,447.93 575.92,447.93 575.92,575.89 		"/>
	</g>
	<g>
		<polyline points="640.22,575.89 640.22,447.93 768.06,447.93 768.06,575.89 		"/>
	</g>
	<g>
		<polyline points="256.14,767.58 256.14,639.62 383.98,639.62 383.98,767.58 		"/>
	</g>
	<g>
		<polyline points="448.08,767.58 448.08,639.62 575.92,639.62 575.92,767.58 		"/>
	</g>
</g>
</svg>
