<?xml version="1.0" encoding="utf-8"?>
<!-- Generator: Adobe Illustrator 24.2.0, SVG Export Plug-In . SVG Version: 6.00 Build 0)  -->
<svg version="1.1" xmlns="http://www.w3.org/2000/svg" xmlns:xlink="http://www.w3.org/1999/xlink" x="0px" y="0px"
	 viewBox="0 0 1024 1024" style="enable-background:new 0 0 1024 1024;" xml:space="preserve">
<g id="_x31_">
</g>
<g id="图层_2">
	<g>
		<circle cx="416" cy="480" r="96"/>
		<circle cx="576" cy="641" r="64"/>
		<circle cx="624" cy="400" r="48"/>
		<path d="M977.5,464l-84.48,0c-4.41-35.38-13.63-69.26-26.99-100.97l73.11-42.21c22.24-12.84,29.86-41.28,17.02-63.52l-1.5-2.6
			c-12.84-22.24-41.28-29.86-63.52-17.02l-73.18,42.25c-21.16-27.85-46.03-52.73-73.89-73.89l42.25-73.18
			c12.84-22.24,5.22-50.68-17.02-63.52l-2.6-1.5c-22.24-12.84-50.68-5.22-63.52,17.02l-42.21,73.11
			c-31.71-13.36-65.6-22.58-100.97-26.99V46.5C560,20.82,539.18,0,513.5,0h-3C484.82,0,464,20.82,464,46.5v84.48
			c-35.38,4.41-69.26,13.63-100.97,26.99l-42.21-73.11C307.98,62.62,279.54,55,257.3,67.84l-2.6,1.5
			c-22.24,12.84-29.86,41.28-17.02,63.52l42.25,73.18c-27.85,21.16-52.73,46.03-73.89,73.89l-73.18-42.25
			c-22.24-12.84-50.68-5.22-63.52,17.02l-1.5,2.6c-12.84,22.24-5.22,50.68,17.02,63.52l73.11,42.21
			c-13.36,31.71-22.58,65.6-26.99,100.97l-84.48,0C20.82,464,0,484.82,0,510.5v3C0,539.18,20.82,560,46.5,560l84.48,0
			c4.41,35.38,13.63,69.26,26.99,100.97l-73.11,42.21C62.62,716.02,55,744.46,67.84,766.7l1.5,2.6
			c12.84,22.24,41.28,29.86,63.52,17.02l73.18-42.25c21.16,27.85,46.03,52.73,73.89,73.89l-42.25,73.18
			c-12.84,22.24-5.22,50.68,17.02,63.52l2.6,1.5c22.24,12.84,50.68,5.22,63.52-17.02l42.21-73.11
			c31.71,13.36,65.6,22.58,100.97,26.99v84.48c0,25.68,20.82,46.5,46.5,46.5h3c25.68,0,46.5-20.82,46.5-46.5v-84.48
			c35.38-4.41,69.26-13.63,100.97-26.99l42.21,73.11c12.84,22.24,41.28,29.86,63.52,17.02l2.6-1.5
			c22.24-12.84,29.86-41.28,17.02-63.52l-42.25-73.18c27.85-21.16,52.73-46.03,73.89-73.89l73.18,42.25
			c22.24,12.84,50.68,5.22,63.52-17.02l1.5-2.6c12.84-22.24,5.22-50.68-17.02-63.52l-73.11-42.21
			c13.36-31.71,22.58-65.6,26.99-100.97l84.48,0c25.68,0,46.5-20.82,46.5-46.5v-3C1024,484.82,1003.18,464,977.5,464z
			 M641.79,732.69c-0.16,0.09-0.33,0.17-0.49,0.27l-2.6,1.5c-0.23,0.13-0.45,0.28-0.68,0.41C600.82,755.95,557.82,768,512,768
			c-45.82,0-88.82-12.05-126.02-33.13c-0.23-0.14-0.45-0.28-0.68-0.42l-2.6-1.5c-0.16-0.09-0.33-0.17-0.49-0.27
			c-37.47-22.08-68.82-53.43-90.9-90.9c-0.09-0.16-0.17-0.33-0.27-0.49l-1.5-2.6c-0.13-0.23-0.28-0.45-0.41-0.68
			C268.05,600.82,256,557.82,256,512c0-45.82,12.05-88.82,33.13-126.02c0.14-0.23,0.28-0.45,0.41-0.68l1.5-2.6
			c0.09-0.16,0.17-0.33,0.27-0.49c22.08-37.47,53.43-68.82,90.9-90.9c0.16-0.09,0.33-0.17,0.49-0.26l2.6-1.5
			c0.23-0.13,0.45-0.28,0.68-0.41C423.18,268.05,466.18,256,512,256c45.82,0,88.82,12.05,126.02,33.13
			c0.23,0.14,0.45,0.28,0.68,0.41l2.6,1.5c0.16,0.09,0.33,0.17,0.49,0.27c37.47,22.08,68.82,53.43,90.9,90.9
			c0.09,0.16,0.17,0.33,0.27,0.49l1.5,2.6c0.13,0.23,0.28,0.45,0.41,0.68C755.95,423.18,768,466.18,768,512
			c0,45.82-12.05,88.82-33.13,126.02c-0.14,0.23-0.28,0.45-0.41,0.68l-1.5,2.6c-0.09,0.16-0.17,0.33-0.27,0.49
			C710.6,679.26,679.26,710.6,641.79,732.69z"/>
	</g>
</g>
</svg>
