<?xml version="1.0" encoding="utf-8"?>
<!-- Generator: Adobe Illustrator 24.2.0, SVG Export Plug-In . SVG Version: 6.00 Build 0)  -->
<svg version="1.1" xmlns="http://www.w3.org/2000/svg" xmlns:xlink="http://www.w3.org/1999/xlink" x="0px" y="0px"
	 viewBox="0 0 1024 1024" style="enable-background:new 0 0 1024 1024;" xml:space="preserve">
<g id="_x31_">
</g>
<g id="图层_2">
	<g>
		<polygon points="256,384 0,384 0,448 0,576 0,640 256,640 256,576 1024,576 1024,448 256,448 		"/>
		<polygon points="768,64 768,128 0,128 0,256 768,256 768,320 1024,320 1024,256 1024,128 1024,64 		"/>
		<polygon points="768,768 0,768 0,896 768,896 768,960 1024,960 1024,896 1024,768 1024,704 768,704 		"/>
	</g>
</g>
</svg>
