<?xml version="1.0" encoding="utf-8"?>
<!-- Generator: Adobe Illustrator 24.2.0, SVG Export Plug-In . SVG Version: 6.00 Build 0)  -->
<svg version="1.1" xmlns="http://www.w3.org/2000/svg" xmlns:xlink="http://www.w3.org/1999/xlink" x="0px" y="0px"
	 viewBox="0 0 1024 1024" style="enable-background:new 0 0 1024 1024;" xml:space="preserve">
<g id="_x31_">
</g>
<g id="图层_2">
	<path d="M1023.96,224.24L899.85,100.14l0.11-0.11l-67.88-67.88l-0.11,0.11l-0.11-0.11l-67.88,67.88l0.11,0.11L639.98,224.24
		l67.88,67.88l60.15-60.15v501.47c-0.08,1.81-1.46,28.05-13.9,52.98C738.39,817.94,713.06,832,672,832
		c-40.01,0-64.91-13.1-80.76-42.49c-13.46-24.96-15.09-52.23-15.24-55.44V288.55c0.01-10.06-1.76-100.11-66.15-164.57
		c-18.85-18.87-41.16-33.55-66.3-43.62C416.47,69.5,386,64,353,64c-89.31,0-159.3,40.37-197.08,113.67
		C129.4,229.12,128.07,279.64,128,285.23l0,0.37v506.68l-60.13-60.13l-67.88,67.88l124.11,124.11l-0.11,0.11l67.88,67.88l0.11-0.11
		l0.11,0.11l67.88-67.88l-0.11-0.11l124.11-124.11l-67.88-67.88L256,792.23V286.98c0.17-3.29,1.88-29.49,15.18-53.44
		C281.09,215.71,300.34,192,353,192c51.5,0,70.03,22.39,80.43,41.9c13.45,25.25,14.51,52.96,14.57,54.98v446.11l0,0.66
		c0.06,5.64,1.32,56.57,27.42,108.56C512.91,918.88,582.73,960,672,960c89.34,0,159.18-41.34,196.65-116.41
		c26.04-52.17,27.31-103.26,27.37-108.91l0-0.33V232.07l60.06,60.06L1023.96,224.24z M448,288.49v0.29c0-0.2,0-0.31,0-0.31
		C448,288.47,448,288.48,448,288.49z"/>
</g>
</svg>
