<?xml version="1.0" encoding="utf-8"?>
<!-- Generator: Adobe Illustrator 24.2.0, SVG Export Plug-In . SVG Version: 6.00 Build 0)  -->
<svg version="1.1" xmlns="http://www.w3.org/2000/svg" xmlns:xlink="http://www.w3.org/1999/xlink" x="0px" y="0px"
	 viewBox="0 0 1024 1024" style="enable-background:new 0 0 1024 1024;" xml:space="preserve">
<g id="_x31_">
</g>
<g id="图层_2">
	<g>
		<path d="M896,0H768.12h-128v128v256.01v128h128H896h128v-128V128V0H896z M896,384.01H768.12V128H896V384.01z"/>
		<path d="M768.12,640.01h-128v128v128.06v128h128H896h128v-128V768.01v-128H896H768.12z M896,896.07H768.12V768.01H896V896.07z"/>
		<path d="M128,0H0v128v768v128h128h256.12h128V896V128V0h-128H128z M384.12,896H128V128h256.12V896z"/>
	</g>
</g>
</svg>
