<?xml version="1.0" encoding="utf-8"?>
<!-- Generator: Adobe Illustrator 24.2.0, SVG Export Plug-In . SVG Version: 6.00 Build 0)  -->
<svg version="1.1" xmlns="http://www.w3.org/2000/svg" xmlns:xlink="http://www.w3.org/1999/xlink" x="0px" y="0px"
	 viewBox="0 0 1024 1024" style="enable-background:new 0 0 1024 1024;" xml:space="preserve">
<g id="_x31_">
</g>
<g id="图层_2">
	<g>
		<g>
			<path d="M512.05,0L95,128v459.55c0,82.36,19.62,190.51,147.07,293.74c-0.02,0.01-0.03,0.03-0.05,0.04
				c0.39,0.32,0.85,0.64,1.24,0.96c6.97,5.61,14.23,11.22,21.86,16.8c0.74,0.54,1.55,1.08,2.3,1.63c6.83,4.95,13.95,9.88,21.32,14.8
				c2.24,1.49,4.56,2.98,6.85,4.47c6.32,4.11,12.83,8.2,19.55,12.28c2.47,1.5,4.92,3,7.44,4.5c8.05,4.77,16.37,9.52,24.99,14.24
				c1.13,0.62,2.19,1.25,3.33,1.87c10,5.42,20.42,10.8,31.2,16.14c2.14,1.06,4.4,2.11,6.57,3.16c8.58,4.18,17.4,8.33,26.48,12.45
				c3.4,1.54,6.85,3.08,10.32,4.61c8.6,3.8,17.43,7.57,26.48,11.32c3.42,1.42,6.77,2.84,10.25,4.25
				c12.45,5.04,25.19,10.04,38.48,14.97L512,1024l11.32-4.24C886.97,884.84,929,708.44,929,587.5V125.61L512.05,0L512.05,0z
				 M512.07,886.89c-0.61-0.25-1.22-0.49-1.83-0.74c-1.72-0.7-3.65-1.5-5.69-2.35c-1.18-0.49-2.35-0.98-3.58-1.49
				c-8.34-3.46-16.33-6.87-23.72-10.14c-2.86-1.26-6.16-2.73-9.2-4.11c-7.78-3.53-15.64-7.23-23.38-10.99
				c-1.23-0.6-2.48-1.2-3.74-1.8c-0.67-0.32-1.35-0.64-2.01-0.97c-9.38-4.65-18.3-9.26-26.54-13.71l-0.07-0.04
				c-1.09-0.62-2.18-1.23-3.27-1.83c-7.15-3.92-14.29-7.98-21.24-12.1c-1.34-0.8-2.93-1.76-4.6-2.78l-1.61-0.98
				c-5.59-3.39-11.04-6.82-16.23-10.19l-1.99-1.29c-1.38-0.89-2.67-1.73-3.61-2.36c-6.15-4.1-11.94-8.12-17.22-11.95l-0.02-0.02
				l-0.02-0.02c-1.04-0.75-1.94-1.39-2.58-1.83c-4.62-3.4-9.17-6.88-13.82-10.57l-3.47-2.81c-40.95-33.17-68.31-67.27-83.66-104.26
				c-11.05-26.64-15.97-54.4-15.97-90.01V222.61l289.4-88.82L801,220.73V587.5c0,25.4-2.49,46.44-7.83,66.23
				c-6.58,24.36-17.62,46.87-33.75,68.81c-21.4,29.09-52.08,57.31-91.2,83.87C625.97,835.1,573.55,862.11,512.07,886.89
				L512.07,886.89z"/>
		</g>
		<g>
			<polygon points="560,320 464,320 464,464 320.01,464 320.01,560 464,560 464,704.04 560,704.04 560,560 704.14,560 704.14,464 
				560,464 560,320 			"/>
		</g>
	</g>
</g>
</svg>
