<?xml version="1.0" encoding="utf-8"?>
<!-- Generator: Adobe Illustrator 24.2.0, SVG Export Plug-In . SVG Version: 6.00 Build 0)  -->
<svg version="1.1" xmlns="http://www.w3.org/2000/svg" xmlns:xlink="http://www.w3.org/1999/xlink" x="0px" y="0px"
	 viewBox="0 0 1024 1024" style="enable-background:new 0 0 1024 1024;" xml:space="preserve">
<g id="_x31_">
</g>
<g id="图层_2">
	<path d="M113.54,434.9c-0.61,9.1-0.93,18.26-0.93,27.46c0,53.94,10.58,106.3,31.43,155.62c20.14,47.61,48.95,90.35,85.65,127.05
		c18.08,18.08,37.64,34.24,58.51,48.4C293.16,912.77,391.45,1008,512,1008c120.38,0,218.56-94.96,223.77-214.05
		c21.16-14.28,40.96-30.62,59.26-48.92c36.7-36.7,65.51-79.44,85.65-127.05c20.86-49.31,31.43-101.67,31.43-155.62
		c0-9.33-0.33-18.62-0.96-27.85C978.57,395.91,1024,323.26,1024,240c0-123.71-100.29-224-224-224
		c-62.75,0-119.46,25.81-160.13,67.38c-40.94-13.79-83.7-20.77-127.51-20.77c-44.01,0-86.95,7.04-128.06,20.96
		C343.63,41.89,286.84,16,224,16C100.29,16,0,116.29,0,240C0,323.54,45.74,396.4,113.54,434.9z M579.88,851.88
		C561.75,870.01,537.64,880,512,880s-49.75-9.99-67.88-28.12C425.99,833.75,416,809.64,416,784s9.99-49.75,28.12-67.88
		C462.25,697.99,486.36,688,512,688s49.75,9.99,67.88,28.12C598.01,734.25,608,758.36,608,784S598.01,833.75,579.88,851.88z
		 M800,144c25.64,0,49.75,9.99,67.88,28.12C886.01,190.25,896,214.36,896,240s-9.99,49.75-28.12,67.88
		C849.75,326.01,825.64,336,800,336s-49.75-9.99-67.88-28.12C713.99,289.75,704,265.64,704,240s9.99-49.75,28.12-67.88
		C750.25,153.99,774.36,144,800,144z M512.36,158.61c26.03,0,51.3,3.3,75.43,9.49C580.15,190.67,576,214.85,576,240
		c0,123.71,100.29,224,224,224c5.42,0,10.78-0.2,16.1-0.58c-0.31,89.4-39.43,169.81-101.36,225.24C678.92,612.63,601.61,560,512,560
		c-89.43,0-166.61,52.42-202.52,128.2c-61.63-55.41-100.53-135.6-100.85-224.73c5.08,0.34,10.21,0.54,15.38,0.54
		c123.71,0,224-100.29,224-224c0-25.08-4.12-49.2-11.73-71.72C460.6,161.98,486.09,158.61,512.36,158.61z M156.12,172.12
		C174.25,153.99,198.36,144,224,144s49.75,9.99,67.88,28.12C310.01,190.25,320,214.36,320,240s-9.99,49.75-28.12,67.88
		C273.75,326.01,249.64,336,224,336s-49.75-9.99-67.88-28.12C137.99,289.75,128,265.64,128,240S137.99,190.25,156.12,172.12z"/>
</g>
</svg>
