<?xml version="1.0" encoding="utf-8"?>
<!-- Generator: Adobe Illustrator 24.2.0, SVG Export Plug-In . SVG Version: 6.00 Build 0)  -->
<svg version="1.1" xmlns="http://www.w3.org/2000/svg" xmlns:xlink="http://www.w3.org/1999/xlink" x="0px" y="0px"
	 viewBox="0 0 1024 1024" style="enable-background:new 0 0 1024 1024;" xml:space="preserve">
<g id="_x31_">
</g>
<g id="图层_2">
	<g>
		<path d="M933.73,512c0-59.9,37.61-110.65,90.27-130.86c-12.38-48.71-31.69-95.4-57.34-138.63c-18.62,8.36-38.11,12.33-57.28,12.33
			c-53.44,0-104.48-30.77-127.8-82.68c-16.39-36.5-16.39-78.27,0.02-114.76C738.32,31.75,691.6,12.42,642.86,0
			C622.11,54.26,570.09,90.14,512,90.27C453.89,90.2,401.84,54.3,381.14,0c-48.72,12.4-95.4,31.73-138.63,57.4
			c23.76,53.03,12.33,115.22-28.72,156.34c-26.89,26.78-62.73,40.95-99.15,40.95c-19.3,0-38.77-3.98-57.14-12.17
			C31.75,285.71,12.38,332.4,0,381.14C54.26,401.89,90.14,453.91,90.27,512c0,59.9-37.61,110.65-90.27,130.86
			c12.4,48.72,31.73,95.4,57.4,138.63c18.6-8.34,38.07-12.3,57.22-12.3c53.47,0,104.53,30.8,127.83,82.75
			c16.36,36.47,16.35,78.2-0.03,114.67c42.88,25.37,89.37,44.84,138.73,57.4c20.75-54.26,72.77-90.14,130.86-90.27
			c59.9,0,110.64,37.61,130.86,90.27c48.71-12.38,95.4-31.69,138.63-57.34c-23.78-53.04-12.35-115.26,28.72-156.39
			c26.89-26.78,62.73-40.95,99.15-40.95c19.3,0,38.77,3.98,57.14,12.17c25.75-43.2,45.12-89.89,57.5-138.63
			C969.7,622.16,933.8,570.11,933.73,512z M843.99,649.29c-46.55,11.59-89.27,35.58-124.12,70.3l-0.12,0.11l-0.12,0.11
			c-34.85,34.9-58.55,78.18-70.08,124.38c-40.86-24.58-88.26-38.46-137.57-38.46h-0.14l-0.14,0
			c-49.14,0.11-96.34,13.94-137.06,38.37c-3.8-15.17-8.94-30.07-15.43-44.54c-34-75.82-100.84-130.49-179.26-150.26
			c24.48-40.8,38.3-88.1,38.3-137.3v-0.14l0-0.14c-0.11-49.1-13.93-96.28-38.32-136.99c46.58-11.59,89.31-35.58,124.18-70.31
			l0.12-0.12l0.12-0.12c34.83-34.89,58.51-78.16,70.04-124.34c40.8,24.52,88.14,38.38,137.44,38.44h0.22l0.22,0
			c49.12-0.11,96.32-13.94,137.04-38.36c3.81,15.21,8.97,30.18,15.49,44.69c34.02,75.74,100.83,130.37,179.2,150.13
			c-24.47,40.8-38.28,88.08-38.28,137.27v0.07v0.07C805.79,561.32,819.58,608.55,843.99,649.29z"/>
		<path d="M512,350c-89.47,0-162,72.53-162,162c0,89.47,72.53,162,162,162c89.47,0,162-72.53,162-162C674,422.53,601.47,350,512,350
			z M512,578c-36.39,0-66-29.61-66-66s29.61-66,66-66c36.39,0,66,29.61,66,66S548.39,578,512,578z"/>
	</g>
</g>
</svg>
