<?xml version="1.0" encoding="utf-8"?>
<!-- Generator: Adobe Illustrator 24.2.0, SVG Export Plug-In . SVG Version: 6.00 Build 0)  -->
<svg version="1.1" xmlns="http://www.w3.org/2000/svg" xmlns:xlink="http://www.w3.org/1999/xlink" x="0px" y="0px"
	 viewBox="0 0 1024 1024" style="enable-background:new 0 0 1024 1024;" xml:space="preserve">
<g id="_x31_">
</g>
<g id="图层_2">
	<path d="M732.36,192.39c41.3,0,80.49,16.44,110.34,46.29C872.56,268.53,889,307.72,889,349.02c0,39.56-20.3,82.14-60.33,126.61
		L512.02,781.6L188.65,469.01c-17.2-17.34-30.57-36.43-39.74-56.75c-9.23-20.43-13.91-41.71-13.91-63.24
		c0-41.3,16.44-80.49,46.29-110.34c29.85-29.85,69.04-46.29,110.34-46.29c23.24,0,47.29,5.52,69.54,15.98
		c20.89,9.81,39.75,23.91,53.11,39.7l93.54,110.55l98.23-106.41c17.2-18.63,37.66-33.91,59.18-44.17
		C687.01,197.65,709.6,192.39,732.36,192.39 M732.36,64.39c-87.23,0-165.27,41.32-220.36,101c-50.5-59.68-133.14-101-220.36-101
		C135.55,64.39,7,192.93,7,349.02c0,82.64,36.73,156.09,91.82,211.18L512,959.61L920.59,564.8c50.5-55.09,96.41-128.55,96.41-215.77
		C1017,192.93,888.45,64.39,732.36,64.39L732.36,64.39z"/>
</g>
</svg>
