<?xml version="1.0" standalone="no"?><!DOCTYPE svg PUBLIC "-//W3C//DTD SVG 1.1//EN" "http://www.w3.org/Graphics/SVG/1.1/DTD/svg11.dtd"><svg t="1594625775704" class="icon" viewBox="0 0 1026 1024" version="1.1" xmlns="http://www.w3.org/2000/svg" p-id="3618" xmlns:xlink="http://www.w3.org/1999/xlink" width="128.25" height="128"><defs><style type="text/css"></style></defs><path d="M1025.204706 238.531765 1024 238.531765 1024 963.764706 1024 1021.590588 1024 1024 966.174118 1024 966.174118 1021.590588 714.390588 1021.590588 656.564706 1021.590588 380.687059 1021.590588 380.687059 1022.795294 322.861176 1022.795294 322.861176 1021.590588 60.235294 1021.590588 60.235294 1024 2.409412 1024 2.409412 1021.590588 1.204706 1021.590588 1.204706 963.764706 2.409412 963.764706 2.409412 238.531765 2.409412 180.705882 2.409412 59.030588 0 59.030588 0 1.204706 2.409412 1.204706 60.235294 1.204706 322.861176 1.204706 322.861176 0 380.687059 0 380.687059 1.204706 966.174118 1.204706 1022.795294 1.204706 1024 1.204706 1024 180.705882 1025.204706 180.705882 1025.204706 238.531765ZM966.174118 963.764706 966.174118 238.531765 714.390588 238.531765 714.390588 963.764706 966.174118 963.764706ZM656.564706 963.764706 656.564706 238.531765 380.687059 238.531765 380.687059 963.764706 656.564706 963.764706ZM60.235294 963.764706 322.861176 963.764706 322.861176 238.531765 60.235294 238.531765 60.235294 963.764706ZM60.235294 59.030588 60.235294 180.705882 322.861176 180.705882 322.861176 59.030588 60.235294 59.030588ZM966.174118 59.030588 380.687059 59.030588 380.687059 180.705882 656.564706 180.705882 714.390588 180.705882 966.174118 180.705882 966.174118 59.030588Z" p-id="3619"></path></svg>