<?xml version="1.0" standalone="no"?><!DOCTYPE svg PUBLIC "-//W3C//DTD SVG 1.1//EN" "http://www.w3.org/Graphics/SVG/1.1/DTD/svg11.dtd"><svg t="1594965275717" class="icon" viewBox="0 0 1080 1024" version="1.1" xmlns="http://www.w3.org/2000/svg" p-id="4462" xmlns:xlink="http://www.w3.org/1999/xlink" width="135" height="128"><defs><style type="text/css"></style></defs><path d="M187.904 921.031111a96.426667 96.426667 0 0 1-96.312889-96.312889V199.281778A96.426667 96.426667 0 0 1 187.904 102.968889h514.446222a96.426667 96.426667 0 0 1 96.312889 96.312889V406.186667a40.106667 40.106667 0 0 0 80.213333 0V199.281778A176.696889 176.696889 0 0 0 702.350222 22.755556H187.904A176.696889 176.696889 0 0 0 11.377778 199.281778v625.436444A176.753778 176.753778 0 0 0 187.904 1001.244444H460.231111a40.106667 40.106667 0 0 0 0-80.213333H187.904zM629.191111 280.462222a40.106667 40.106667 0 0 0-28.387555-11.776H201.216a40.106667 40.106667 0 0 0 0 80.213334h399.587556a40.106667 40.106667 0 0 0 28.387555-68.437334zM456.590222 478.606222a40.106667 40.106667 0 0 0-40.106666-40.106666H201.216a40.106667 40.106667 0 0 0 0 80.213333h215.267556a40.106667 40.106667 0 0 0 40.106666-40.106667z m-255.431111 129.706667a40.106667 40.106667 0 0 0 0 80.213333h105.699556a40.106667 40.106667 0 0 0 0-80.213333H201.216z" p-id="4463"></path><path d="M748.202667 542.151111a91.022222 91.022222 0 0 0-28.956445 28.956445l-181.816889 290.872888a91.022222 91.022222 0 0 0 77.198223 139.264h363.633777a91.022222 91.022222 0 0 0 77.198223-139.264l-181.816889-290.872888a91.022222 91.022222 0 0 0-117.76-33.223112l-7.68 4.266667z m67.527111 65.137778l181.816889 290.872889a22.755556 22.755556 0 0 1-19.342223 34.816h-363.52a22.755556 22.755556 0 0 1-19.342222-34.816l181.816889-290.872889a22.755556 22.755556 0 0 1 38.570667 0z" p-id="4464"></path><path d="M762.311111 671.288889m34.133333 0l0 0q34.133333 0 34.133334 34.133333l0 79.644445q0 34.133333-34.133334 34.133333l0 0q-34.133333 0-34.133333-34.133333l0-79.644445q0-34.133333 34.133333-34.133333Z" p-id="4465"></path><path d="M796.444444 836.266667a34.133333 34.133333 0 1 1 0 68.266666 34.133333 34.133333 0 0 1 0-68.266666z" p-id="4466"></path></svg>