<?xml version="1.0" encoding="utf-8"?>
<!-- Generator: Adobe Illustrator 24.2.0, SVG Export Plug-In . SVG Version: 6.00 Build 0)  -->
<svg version="1.1" xmlns="http://www.w3.org/2000/svg" xmlns:xlink="http://www.w3.org/1999/xlink" x="0px" y="0px"
	 viewBox="0 0 1024 1024" style="enable-background:new 0 0 1024 1024;" xml:space="preserve">
<g id="_x31_">
</g>
<g id="图层_2">
	<g>
		<path d="M512,64C264.58,64,64,264.58,64,512s200.58,448,448,448s448-200.58,448-448S759.42,64,512,64z M760.9,760.9
			c-32.36,32.36-70.01,57.75-111.92,75.48C605.65,854.71,559.56,864,512,864s-93.65-9.29-136.98-27.62
			c-41.9-17.72-79.56-43.12-111.92-75.48c-32.36-32.36-57.75-70.01-75.48-111.92C169.29,605.65,160,559.56,160,512
			s9.29-93.65,27.62-136.98c17.72-41.9,43.12-79.56,75.48-111.92c32.36-32.36,70.01-57.75,111.92-75.48
			C418.35,169.29,464.44,160,512,160s93.65,9.29,136.98,27.62c41.9,17.72,79.56,43.12,111.92,75.48
			c32.36,32.36,57.75,70.01,75.48,111.92C854.71,418.35,864,464.44,864,512s-9.29,93.65-27.62,136.98
			C818.65,690.89,793.26,728.54,760.9,760.9z"/>
		<polygon points="384.62,319.62 639.62,319.62 512.12,192.12 		"/>
		<polygon points="512.12,831.5 639.62,704 384.62,704 		"/>
		<polygon points="319.93,639.31 319.93,384.31 192.43,511.81 		"/>
		<polygon points="704.31,639.31 831.81,511.81 704.31,384.31 		"/>
	</g>
</g>
</svg>
