<svg t="1592187451358" class="icon" viewBox="0 0 1024 1024" version="1.1" xmlns="http://www.w3.org/2000/svg" p-id="1318" width="128" height="128"><path d="M948.90666667 293.54666667v-100.12444445a9.10222222 9.10222222 0 0 0-9.10222222-9.10222222H84.19555555a9.10222222 9.10222222 0 0 0-9.10222222 9.10222222v100.12444445a9.10222222 9.10222222 0 0 0 9.10222222 9.10222222h855.6088889a9.10222222 9.10222222 0 0 0 9.10222222-9.10222222z m-9.10222222 154.73777778H84.19555555a9.10222222 9.10222222 0 0 0-9.10222222 9.10222222v373.19111111a9.10222222 9.10222222 0 0 0 9.10222222 9.10222222h855.6088889a9.10222222 9.10222222 0 0 0 9.10222222-9.10222222V457.38666667a9.10222222 9.10222222 0 0 0-9.10222222-9.10222222zM38.68444445 111.50222222h946.6311111c20.10794667 0 36.40888889 16.30094222 36.4088889 36.40888889v728.17777778c0 20.10794667-16.30094222 36.40888889-36.4088889 36.40888889H38.68444445c-20.10794667 0-36.40888889-16.30094222-36.4088889-36.40888889V147.91111111c0-20.10794667 16.30094222-36.40888889 36.4088889-36.40888889z m124.01777777 509.72444445h170.66666667c20.10794667 0 36.40888889 16.30094222 36.40888889 36.40888888 0 20.10794667-16.30094222 36.40888889-36.40888889 36.4088889H162.70222222c-20.10794667 0-36.40888889-16.30094222-36.40888889-36.4088889 0-20.10794667 16.30094222-36.40888889 36.40888889-36.40888888z" p-id="1319"></path></svg>