<svg t="1592189510351" class="icon" viewBox="0 0 1024 1024" version="1.1" xmlns="http://www.w3.org/2000/svg" p-id="1591" width="128" height="128"><path d="M981.67466667 368.18488889c-25.71377778-60.75733333-62.464-115.25688889-109.22666667-162.01955556-46.76266667-46.76266667-101.26222222-83.51288889-162.01955555-109.22666666C647.50933333 70.31466667 580.83555555 56.88888889 512 56.88888889s-135.50933333 13.42577778-198.42844445 40.04977778c-60.75733333 25.71377778-115.25688889 62.464-162.01955555 109.22666666-46.76266667 46.76266667-83.51288889 101.26222222-109.22666667 162.01955556C15.70133333 431.104 2.27555555 497.77777778 2.27555555 566.61333333c0 150.98311111 66.33244445 293.20533333 181.93066667 390.37155556l1.93422223 1.59288889c6.59911111 5.46133333 14.90488889 8.53333333 23.43822222 8.53333333h604.95644444c8.53333333 0 16.83911111-3.072 23.43822222-8.53333333l1.93422222-1.59288889C955.392 859.81866667 1021.72444445 717.59644445 1021.72444445 566.61333333c0-68.83555555-13.53955555-135.50933333-40.04977778-198.42844444zM795.76177778 880.64H228.23822222C139.37777778 800.42666667 88.74666667 686.76266667 88.74666667 566.61333333c0-113.09511111 44.032-219.36355555 124.01777778-299.23555555 79.98577778-79.98577778 186.25422222-124.01777778 299.23555555-124.01777778 113.09511111 0 219.36355555 44.032 299.23555555 124.01777778 79.98577778 79.98577778 124.01777778 186.25422222 124.01777778 299.23555555 0 120.14933333-50.63111111 233.81333333-139.49155555 314.02666667z" p-id="1592"></path><path d="M638.86222222 409.03111111c-3.52711111-3.52711111-9.32977778-3.52711111-12.85688889 0L529.86311111 505.17333333c-21.27644445-5.68888889-44.82844445-0.22755555-61.55377778 16.49777778-24.91733333 24.91733333-24.91733333 65.19466667 0 90.112 24.91733333 24.91733333 65.19466667 24.91733333 90.112 0 16.72533333-16.72533333 22.18666667-40.27733333 16.49777778-61.55377778l96.14222222-96.14222222c3.52711111-3.52711111 3.52711111-9.32977778 0-12.85688889l-32.19911111-32.19911111zM486.96888889 293.54666667h50.06222222c5.00622222 0 9.10222222-4.096 9.10222222-9.10222222v-91.02222223c0-5.00622222-4.096-9.10222222-9.10222222-9.10222222h-50.06222222c-5.00622222 0-9.10222222 4.096-9.10222222 9.10222222v91.02222223c0 5.00622222 4.096 9.10222222 9.10222222 9.10222222zM782.79111111 541.58222222v50.06222223c0 5.00622222 4.096 9.10222222 9.10222222 9.10222222h91.02222222c5.00622222 0 9.10222222-4.096 9.10222223-9.10222222v-50.06222223c0-5.00622222-4.096-9.10222222-9.10222223-9.10222222h-91.02222222c-5.00622222 0-9.10222222 4.096-9.10222222 9.10222222zM797.24088889 317.21244445l-35.38488889-35.3848889c-3.52711111-3.52711111-9.32977778-3.52711111-12.85688889 0l-64.39822222 64.39822223c-3.52711111 3.52711111-3.52711111 9.32977778 0 12.85688889l35.38488889 35.38488888c3.52711111 3.52711111 9.32977778 3.52711111 12.85688889 0l64.39822222-64.39822222c3.52711111-3.52711111 3.52711111-9.32977778 0-12.85688888zM275.456 281.82755555c-3.52711111-3.52711111-9.32977778-3.52711111-12.85688889 0l-35.38488889 35.3848889c-3.52711111 3.52711111-3.52711111 9.32977778 0 12.85688888l64.39822223 64.39822222c3.52711111 3.52711111 9.32977778 3.52711111 12.85688888 0l35.38488889-35.38488888c3.52711111-3.52711111 3.52711111-9.32977778 0-12.85688889l-64.39822222-64.39822223zM227.55555555 532.48h-91.02222222c-5.00622222 0-9.10222222 4.096-9.10222222 9.10222222v50.06222223c0 5.00622222 4.096 9.10222222 9.10222222 9.10222222h91.02222222c5.00622222 0 9.10222222-4.096 9.10222223-9.10222222v-50.06222223c0-5.00622222-4.096-9.10222222-9.10222223-9.10222222z" p-id="1593"></path></svg>