<svg t="1592186245767" class="icon" viewBox="0 0 1024 1024" version="1.1" xmlns="http://www.w3.org/2000/svg" p-id="1166" width="128" height="128"><path d="M238.93333333 214.1088h546.13333334c13.70986667 0 24.82453333-11.11466667 24.82453333-24.82453333S798.7776 164.45973333 785.06666667 164.45973333H238.93333333c-13.70986667 0-24.82453333 11.11466667-24.82453333 24.82453334 0 13.71093333 11.11466667 24.82453333 24.82453333 24.82453333zM338.2304 114.81173333h347.5392c13.70986667 0 24.82453333-11.11466667 24.82453333-24.82453333s-11.11466667-24.82453333-24.82453333-24.82453333H338.2304c-13.70986667 0-24.82453333 11.11466667-24.82453333 24.82453333 0 13.71093333 11.11466667 24.82453333 24.82453333 24.82453333zM189.28533333 313.40586667h645.4304c13.70986667 0 24.82453333-11.11466667 24.82453334-24.82453334s-11.1136-24.82453333-24.82453334-24.82453333H189.28533333c-13.70986667 0-24.82453333 11.11466667-24.82453333 24.82453333 0 13.71093333 11.1136 24.82453333 24.82453333 24.82453334zM89.98826667 412.70293333h844.02453333c13.70986667 0 24.82346667-11.11466667 24.82346667-24.82453333s-11.1136-24.82453333-24.82346667-24.82453333H89.98826667c-13.70986667 0-24.82453333 11.11466667-24.82453334 24.82453333 0 13.71093333 11.11466667 24.82453333 24.82453334 24.82453333zM974.62933333 462.352H49.37173333c-18.69866667 0-33.856 15.15733333-33.856 33.856v428.77226667c0 18.69866667 15.15733333 33.856 33.856 33.856h925.2576c18.6976 0 33.856-15.15733333 33.856-33.856V496.208c-0.00106667-18.69866667-15.1584-33.856-33.856-33.856z m-15.79306666 446.83626667H65.16373333V512h893.67253334v397.18826667z" p-id="1167"></path><path d="M561.64906667 809.8912c54.84053333 0 99.29706667-44.45653333 99.29706666-99.29706667s-44.45653333-99.29706667-99.29706666-99.29706666-99.29706667 44.45653333-99.29706667 99.29706666 44.45653333 99.29706667 99.29706667 99.29706667z m0-148.94613333c27.376 0 49.64906667 22.272 49.64906666 49.64906666s-22.272 49.648-49.64906666 49.648S512 737.97013333 512 710.59413333s22.272-49.64906667 49.64906667-49.64906666zM809.8912 809.8912c54.84053333 0 99.29706667-44.45653333 99.29706667-99.29706667s-44.45653333-99.29706667-99.29706667-99.29706666-99.29706667 44.45653333-99.29706667 99.29706666 44.45653333 99.29706667 99.29706667 99.29706667z m0-148.94613333c27.376 0 49.648 22.272 49.648 49.64906666s-22.272 49.648-49.648 49.648-49.648-22.272-49.648-49.648 22.272-49.64906667 49.648-49.64906666zM189.28533333 809.8912c13.70986667 0 24.82453333-11.11466667 24.82453334-24.82453333V636.1216c0-13.70986667-11.11466667-24.82453333-24.82453334-24.82453333s-24.82453333 11.11466667-24.82453333 24.82453333V785.06666667c0 13.70986667 11.1136 24.82453333 24.82453333 24.82453333zM338.2304 809.8912c13.70986667 0 24.82453333-11.11466667 24.82453333-24.82453333V636.1216c0-13.70986667-11.1136-24.82453333-24.82453333-24.82453333-13.70986667 0-24.82453333 11.11466667-24.82453333 24.82453333V785.06666667c0 13.70986667 11.11466667 24.82453333 24.82453333 24.82453333z" p-id="1168"></path></svg>