<svg t="1580799758108" class="icon" viewBox="0 0 1024 1024" version="1.1" xmlns="http://www.w3.org/2000/svg" p-id="919" width="128" height="128"><path d="M835.04614173 188.18154913h-259.49608164c-45.01462585 0-79.43757597 34.42294898-79.43757483 79.43757597v259.4960805c0 45.01462585 34.42294898 79.43757597 79.43757483 79.43757596h105.91676871c7.94375737 0 15.88751474-7.94375737 15.88751474-15.88751587s-7.94375737-15.88751474-15.88751474-15.88751475h-105.91676871c-26.47919161 0-50.31046485-21.18335374-50.31046372-50.31046485V267.6191251c0-26.47919161 21.18335374-50.31046485 50.31046372-50.31046485h259.49608164c26.47919161 0 50.31046485 21.18335374 50.31046485 50.31046485v190.65018141c-5.29583787-5.29583787-10.59167687-5.29583787-15.88751588-5.29583901h-31.77503061c-39.71878798 0-68.84589909 31.77503061-68.84589796 68.84589909v45.01462699c0 21.18335374 18.53543424 37.07086848 37.07086848 37.07086848h29.12711112c45.01462585 0 79.43757597-34.42294898 79.43757596-79.43757597V267.6191251c2.6479195-42.36670749-34.42294898-79.43757597-79.43757596-79.43757597z m50.31046485 336.28573696c0 26.47919161-21.18335374 50.31046485-50.31046485 50.31046485h-29.12711112c-5.29583787 0-7.94375737-2.6479195-7.94375736-7.94375736v-45.01462699c0-21.18335374 18.53543424-39.71878798 39.71878684-39.71878798h31.77503061c7.94375737 0 15.88751474 7.94375737 15.88751588 15.88751588v26.4791916z" p-id="920"></path><path d="M583.49381859 307.33791195h256.848161c7.94375737 0 15.88751474-7.94375737 15.88751588-15.88751474s-7.94375737-15.88751474-15.88751588-15.88751475h-256.848161c-7.94375737 0-15.88751474 7.94375737-15.88751587 15.88751475 0 10.59167687 7.94375737 15.88751474 15.88751587 15.88751474z m0 97.97301019h256.848161c7.94375737 0 15.88751474-7.94375737 15.88751588-15.88751473s-7.94375737-15.88751474-15.88751588-15.88751474h-256.848161c-7.94375737 0-15.88751474 7.94375737-15.88751587 15.88751474s7.94375737 15.88751474 15.88751587 15.88751473z m153.57931293 66.19798074h-153.57931293c-7.94375737 0-15.88751474 7.94375737-15.88751587 15.88751473s7.94375737 15.88751474 15.88751587 15.88751474h153.57931293c7.94375737 0 15.88751474-7.94375737 15.88751474-15.88751474-2.6479195-7.94375737-7.94375737-15.88751474-15.88751474-15.88751473z m-383.94828345-105.91676871c23.83127325-39.71878798 23.83127325-90.02925283 0-127.10012019-26.47919161-42.36670749-76.78965646-63.55006009-124.45220181-52.95838435-5.29583787 0-10.59167687 5.29583787-13.23959524 10.59167688-5.29583787 2.6479195-5.29583787 10.59167687 0 15.88751473l39.71878685 60.90214173-34.42294898 18.53543424-39.71878798-63.55006009c-2.6479195-5.29583787-7.94375737-7.94375737-15.88751474-7.94375851-5.29583787 0-10.59167687 2.6479195-15.88751588 5.295839C117.46004082 267.6191251 114.81212131 323.22542782 141.29131293 365.59213417c23.83127325 39.71878798 71.49381859 60.90214173 116.50844444 55.60630386l124.45220181 206.53769614c5.29583787 10.59167687 15.88751474 15.88751474 23.83127325 18.53543538h10.59167687c7.94375737 0 15.88751474-2.6479195 21.18335374-5.29583901l31.77502947-18.53543424c10.59167687-5.29583787 15.88751474-15.88751474 18.53543424-23.83127325 2.6479195-10.59167687 0-21.18335374-5.29583786-29.1271111 5.29583787-2.6479195-129.74804082-203.88977778-129.74804082-203.88977778z m103.26884921 227.72105101l-31.77503061 18.53543424h-2.6479195s-2.6479195 0-2.64791837-2.64791949l-135.04387982-214.48145465c-2.6479195-5.29583787-10.59167687-7.94375737-15.88751474-7.94375738h-2.6479195c-37.07086848 7.94375737-74.14173696-10.59167687-90.0292517-39.71878797-18.53543424-23.83127325-18.53543424-52.95838435-10.59167687-76.78965646l34.42294898 52.95838435c5.29583787 7.94375737 15.88751474 10.59167687 23.83127324 5.29583787l63.55006009-39.71878798c7.94375737-5.29583787 10.59167687-18.53543424 5.29583901-23.83127211l-31.77503062-52.95838436c23.83127325 2.6479195 50.31046485 18.53543424 60.90214172 39.71878799 18.53543424 29.12711111 18.53543424 71.49381859-5.295839 97.97301019-5.29583787 5.29583787-5.29583787 15.88751474 0 18.53543424l137.69179819 211.83353515v13.23959637h2.6479195z" p-id="921"></path><path d="M893.30036395 24.01055934H130.69963605C61.85373696 24.01055934 8.89535374 79.61686206 8.89535374 145.81484165v542.82343424c0 66.19797959 52.95838435 121.80428231 121.80428231 121.80428345h765.24864626c66.19797959 0 121.80428231-52.95838435 121.80428345-121.80428345V145.81484165c0-66.19797959-55.60630272-121.80428231-124.45220181-121.80428231z m55.60630272 664.62771655c0 29.12711111-23.83127325 52.95838435-52.95838436 52.95838436H133.34755555c-29.12711111 0-52.95838435-23.83127325-52.95838435-52.95838436V145.81484165c0-29.12711111 23.83127325-52.95838435 52.95838435-52.95838322h765.24864626c29.12711111 0 52.95838435 23.83127325 52.95838436 52.95838322v542.82343424z m-87.38133334 230.36896939H670.87515193v-18.53543424c0-18.53543424-13.23959637-29.12711111-29.12711111-29.12711111H363.71652494c-18.53543424 0-29.12711111 13.23959637-29.12711111 29.12711111v18.53543424H143.93923243c-18.53543424 0-34.42294898 15.88751474-34.42295012 34.42295011 0 18.53543424 15.88751474 34.42294898 34.42295012 34.42294898h717.5861009c18.53543424 0 34.42294898-15.88751474 34.42294898-34.42294898 0-21.18335374-13.23959637-34.42294898-34.42294898-34.42295011z" p-id="922"></path></svg>