<?xml version="1.0" encoding="utf-8"?>
<!-- Generator: Adobe Illustrator 24.2.0, SVG Export Plug-In . SVG Version: 6.00 Build 0)  -->
<svg version="1.1" xmlns="http://www.w3.org/2000/svg" xmlns:xlink="http://www.w3.org/1999/xlink" x="0px" y="0px"
	 viewBox="0 0 1024 1024" style="enable-background:new 0 0 1024 1024;" xml:space="preserve">
<g id="_x31_">
</g>
<g id="图层_2">
	<g>
		<polygon points="832.02,703.88 832.02,830.58 192.02,830.58 192.02,703.88 64.02,703.88 64.02,830.58 64.01,830.58 64.01,958.58 
			64.02,958.58 192.02,958.58 832.02,958.58 959.62,958.58 960.02,958.58 960.02,703.88 		"/>
		<polygon points="715.5,318.03 575.78,457.75 575.78,62.97 447.78,62.97 447.78,457.98 308.28,318.48 217.77,408.99 421.16,612.38 
			421.14,612.39 511.65,702.9 511.67,702.88 511.69,702.9 602.2,612.39 602.18,612.38 806.01,408.54 		"/>
	</g>
</g>
</svg>
