<?xml version="1.0" encoding="utf-8"?>
<!-- Generator: Adobe Illustrator 24.2.0, SVG Export Plug-In . SVG Version: 6.00 Build 0)  -->
<svg version="1.1" xmlns="http://www.w3.org/2000/svg" xmlns:xlink="http://www.w3.org/1999/xlink" x="0px" y="0px"
	 viewBox="0 0 1024 1024" style="enable-background:new 0 0 1024 1024;" xml:space="preserve">
<g id="_x31_">
</g>
<g id="图层_2">
	<g>
		<polygon points="831.96,740.42 831.96,831.64 575.93,831.64 447.93,831.64 192.02,831.64 192.02,575.99 192.02,447.99 
			192.02,191.95 356.22,191.95 512.1,191.95 512.1,63.95 356.22,63.95 283.15,63.95 64.01,63.95 64.01,191.95 64.02,191.95 
			64.02,575.99 64.02,831.64 64.02,959.64 64.02,959.9 192.02,959.9 192.02,959.64 575.93,959.64 959.84,959.64 959.84,959.56 
			959.96,959.56 959.96,740.42 959.96,667.35 959.96,512.13 831.96,512.13 		"/>
		<polygon points="474.55,639.93 805.13,309.35 960.09,154.4 869.58,63.89 714.62,218.84 662.96,270.51 384.04,549.42 		"/>
		<polygon points="474.55,639.96 384.04,549.42 384.04,639.96 		"/>
	</g>
</g>
</svg>
