<?xml version="1.0" standalone="no"?><!DOCTYPE svg PUBLIC "-//W3C//DTD SVG 1.1//EN" "http://www.w3.org/Graphics/SVG/1.1/DTD/svg11.dtd"><svg t="1592189113854" class="icon" viewBox="0 0 1117 1024" version="1.1" xmlns="http://www.w3.org/2000/svg" p-id="3659" xmlns:xlink="http://www.w3.org/1999/xlink" width="139.625" height="128"><defs><style type="text/css"></style></defs><path d="M271.794424 961.939394H110.592c-20.542061 0-26.810182-1.210182-33.202424-4.623515a25.382788 25.382788 0 0 1-10.705455-10.736485C63.270788 940.218182 62.060606 933.950061 62.060606 913.408V110.592c0-20.542061 1.210182-26.810182 4.623515-33.202424a25.382788 25.382788 0 0 1 10.736485-10.705455C83.781818 63.270788 90.049939 62.060606 110.592 62.060606h678.694788c20.542061 0 26.810182 1.210182 33.202424 4.623515a25.382788 25.382788 0 0 1 10.705455 10.736485c3.413333 6.361212 4.623515 12.629333 4.623515 33.171394v249.762909a31.030303 31.030303 0 0 0 62.060606 0v-249.793939c0-29.882182-3.10303-45.800727-11.946667-62.40194A87.412364 87.412364 0 0 0 851.719758 11.946667C835.118545 3.10303 819.2 0 789.286788 0H110.592C80.678788 0 64.760242 3.10303 48.15903 11.946667c-15.515152 8.316121-27.927273 20.666182-36.212363 36.212363C3.10303 64.760242 0 80.678788 0 110.592v802.816c0 29.913212 3.10303 45.831758 11.946667 62.43297 8.316121 15.515152 20.666182 27.927273 36.212363 36.212363C64.760242 1020.89697 80.678788 1024 110.592 1024h161.202424a31.030303 31.030303 0 0 0 0-62.060606z" p-id="3660"></path><path d="M1086.308848 835.646061A124.121212 124.121212 0 0 1 980.092121 1024h-532.790303a124.121212 124.121212 0 0 1-106.216727-188.353939l266.395151-440.537213a124.121212 124.121212 0 0 1 212.433455 0l266.395151 440.537213zM766.789818 427.194182a62.060606 62.060606 0 0 0-106.216727 0l-266.395152 440.568242A62.060606 62.060606 0 0 0 447.301818 961.939394h532.790303a62.060606 62.060606 0 0 0 53.123879-94.17697L766.758788 427.194182z" p-id="3661"></path><path d="M186.181818 217.212121h434.424243a31.030303 31.030303 0 0 1 0 62.060606H186.181818a31.030303 31.030303 0 1 1 0-62.060606zM186.181818 434.424242h248.242424a31.030303 31.030303 0 0 1 0 62.060606H186.181818a31.030303 31.030303 0 0 1 0-62.060606zM186.181818 651.636364h124.121212a31.030303 31.030303 0 0 1 0 62.060606H186.181818a31.030303 31.030303 0 0 1 0-62.060606z" p-id="3662"></path><path d="M713.69697 558.545455a54.799515 54.799515 0 0 1 54.365091 61.595151l-19.487031 155.865212a35.157333 35.157333 0 0 1-69.756121 0l-19.48703-155.865212A54.799515 54.799515 0 0 1 713.69697 558.545455z" p-id="3663"></path><path d="M713.69697 868.848485m-31.030303 0a31.030303 31.030303 0 1 0 62.060606 0 31.030303 31.030303 0 1 0-62.060606 0Z" p-id="3664"></path></svg>