<?xml version="1.0" encoding="utf-8"?>
<!-- Generator: Adobe Illustrator 24.2.0, SVG Export Plug-In . SVG Version: 6.00 Build 0)  -->
<svg version="1.1" xmlns="http://www.w3.org/2000/svg" xmlns:xlink="http://www.w3.org/1999/xlink" x="0px" y="0px"
	 viewBox="0 0 1024 1024" style="enable-background:new 0 0 1024 1024;" xml:space="preserve">
<g id="_x31_">
</g>
<g id="图层_2">
	<path d="M405.96,1024c0,0-438.86-100.21-244.3-595.38c0,0,44.62,54.86,38.77,81.19c21.77-73.99,59.75-142.2,111.18-199.68
		C376.7,245.76,443.26,65.1,384.74,0c183.5,46.35,318.14,202.94,336.46,391.31c0,0,38.77-103.86,118.49-114.1
		c-16.22,47.41-16.22,98.87,0,146.29c0,0,250.88,438.86-181.39,588.8c0,0,129.46-150.67-146.29-409.6
		c-29.43,65.02-63.91,127.62-103.13,187.25C348.77,855.96,347.51,956.5,405.96,1024z"/>
</g>
</svg>
