<?xml version="1.0" standalone="no"?><!DOCTYPE svg PUBLIC "-//W3C//DTD SVG 1.1//EN" "http://www.w3.org/Graphics/SVG/1.1/DTD/svg11.dtd"><svg t="1620613806492" class="icon" viewBox="0 0 1024 1024" version="1.1" xmlns="http://www.w3.org/2000/svg" p-id="6061" xmlns:xlink="http://www.w3.org/1999/xlink" width="200" height="200"><defs><style type="text/css"></style></defs><path d="M895.605385 63.937561H703.812683V0H320.187317v63.937561H128.394615v63.977522h767.21077zM803.035785 786.372059c9.900332 0 19.570888 1.019005 28.931747 2.8672L831.328156 191.812683H128.394615v147.645815s62.179278 95.256976 62.179278 150.632897V854.365659c0 57.314029 87.424624 168.964995 149.603902 168.964995h345.492605c-18.921522-24.815766-30.280429-55.69561-30.280429-89.312781-0.00999-81.540371 66.115434-147.645815 147.645814-147.645814z" p-id="6062"></path><path d="M800.218537 927.594146m-96.405854 0a96.405854 96.405854 0 1 0 192.811707 0 96.405854 96.405854 0 1 0-192.811707 0Z" p-id="6063"></path></svg>