<?xml version="1.0" encoding="utf-8"?>
<!-- Generator: Adobe Illustrator 24.2.0, SVG Export Plug-In . SVG Version: 6.00 Build 0)  -->
<svg version="1.1" xmlns="http://www.w3.org/2000/svg" xmlns:xlink="http://www.w3.org/1999/xlink" x="0px" y="0px"
	 viewBox="0 0 1024 1024" style="enable-background:new 0 0 1024 1024;" xml:space="preserve">
<g id="_x31_">
</g>
<g id="图层_2">
	<path class="st0" d="M879.29,755.76c-37.84,37.89-90.15,61.33-147.93,61.33c-115.47,0-209.08-93.61-209.08-209.08
		s93.61-209.08,209.08-209.08c57.74,0,110.01,23.4,147.84,61.24l146.31-146.31C950.23,238.56,846.23,192,731.36,192
		c-229.75,0-416,186.25-416,416s186.25,416,416,416c114.96,0,219.03-46.63,294.33-122.02L879.29,755.76z"/>
	<path class="st0" d="M176,0C78.8,0,0,78.8,0,176s78.8,176,176,176s176-78.8,176-176S273.2,0,176,0z M176,248.6
		c-40.1,0-72.6-32.5-72.6-72.6s32.5-72.6,72.6-72.6s72.6,32.5,72.6,72.6S216.1,248.6,176,248.6z"/>
</g>
</svg>
