<?xml version="1.0" encoding="utf-8"?>
<!-- Generator: Adobe Illustrator 24.2.0, SVG Export Plug-In . SVG Version: 6.00 Build 0)  -->
<svg version="1.1" xmlns="http://www.w3.org/2000/svg" xmlns:xlink="http://www.w3.org/1999/xlink" x="0px" y="0px"
	 viewBox="0 0 1024 1024" style="enable-background:new 0 0 1024 1024;" xml:space="preserve">
<g id="_x31_">
</g>
<g id="图层_2">
	<path class="st0" d="M519.15,2.98c-3.97-3.97-10.37-3.97-14.33,0C489.43,18.49,128,385.82,128,636.86
		C128,850.34,300.27,1024,512,1024s384-173.66,384-387.14C896,382.19,534.54,18.31,519.15,2.98z M767.74,744
		c-11.56,64.25-48.17,113.66-105.86,142.88c-33.32,16.88-64.38,22-77.09,23.48c-2.54,0.41-5.14,0.64-7.79,0.64
		c-26.51,0-48-21.49-48-48c0-25.12,19.31-45.73,43.89-47.81l-0.01-0.09l-0.38,0.03c0.24-0.02,24.02-2.09,48.46-15.17
		c29.16-15.6,46.27-39.47,52.3-72.96c4.69-26.09,29.65-43.44,55.74-38.74C755.09,692.95,772.44,717.91,767.74,744z"/>
</g>
</svg>
