<?xml version="1.0" encoding="utf-8"?>
<!-- Generator: Adobe Illustrator 24.2.0, SVG Export Plug-In . SVG Version: 6.00 Build 0)  -->
<svg version="1.1" xmlns="http://www.w3.org/2000/svg" xmlns:xlink="http://www.w3.org/1999/xlink" x="0px" y="0px"
	 viewBox="0 0 1024 1024" style="enable-background:new 0 0 1024 1024;" xml:space="preserve">
<g id="_x31_">
</g>
<g id="图层_2">
	<g>
		<polygon points="832.02,512.13 832.02,831.56 192.02,831.56 192.02,512.13 64.02,512.13 64.02,831.56 64.01,831.56 64.01,959.56 
			64.02,959.56 192.02,959.56 832.02,959.56 959.62,959.56 960.02,959.56 960.02,512.13 		"/>
		<polygon points="308.28,448.82 448,309.1 448,703.88 576,703.88 576,308.87 715.5,448.37 806.01,357.86 602.62,154.47 
			602.64,154.46 512.13,63.95 512.11,63.97 512.09,63.95 421.58,154.46 421.6,154.47 217.77,358.31 		"/>
	</g>
</g>
</svg>
