<?xml version="1.0" standalone="no"?><!DOCTYPE svg PUBLIC "-//W3C//DTD SVG 1.1//EN" "http://www.w3.org/Graphics/SVG/1.1/DTD/svg11.dtd"><svg t="1594017550409" class="icon" viewBox="0 0 1024 1024" version="1.1" xmlns="http://www.w3.org/2000/svg" p-id="1684" xmlns:xlink="http://www.w3.org/1999/xlink" width="128" height="128"><defs><style type="text/css"></style></defs><path d="M509.17203799 1021.03316101c-16.17594268 0-30.03295649-4.60957808-48.52782801-13.91357306L35.31872433 817.41989661C9.92362553 803.56288278 2.96683899 757.26914475 2.96683899 731.81748669v-6.95678653l6.95678654 4.60957806c27.71402766 16.20422229 64.70377069 32.40844459 67.02269953 32.40844459h2.29064922l434.57292141 199.00368633 432.25399254-198.97540671c2.31892885 0 18.49487152-9.27571537 34.67081419-16.20422229l39.30867188-18.52315114v6.95678654c0 27.7705869-9.24743577 74.0360453-32.35188534 85.63068953L560.04707447 1009.43851678c-18.49487152 6.95678654-34.6708142 11.5663646-50.84675686 11.56636461z" p-id="1685"></path><path d="M509.17203799 787.44349935c-16.17594268 0-30.03295649-4.60957808-48.52782801-13.91357307L35.31872433 583.83023494C9.92362553 569.97322111 2.96683899 523.67948308 2.96683899 498.22782502v-6.95678651l6.95678654 4.60957806c27.71402766 16.20422229 64.70377069 32.40844459 67.02269953 32.40844458h2.29064922l434.57292141 199.00368633 432.25399254-198.9754067c2.31892885 0 18.49487152-9.24743577 34.67081419-18.52315114l39.30867188-18.49487153v6.95678654c0 27.7705869-9.24743577 74.0360453-32.35188534 85.60240992L560.04707447 773.58648551c-18.49487152 9.24743577-34.6708142 13.91357307-50.84675686 13.91357307v-0.05655923z" p-id="1686"></path><path d="M994.22408119 245.71909755L562.79019762 19.31245939C544.12564838 7.63297631 530.15551607 2.96683899 513.83817531 2.96683899c-13.99841193 0-30.31575269 4.66613731-51.29923079 13.99841193L31.10506096 243.40016871c-18.66454924 11.67948308-27.99682386 32.69124078-27.99682386 56.02192732 0 21.01175771 11.67948308 37.32909846 27.99682386 46.74621196l429.08667508 193.65883814c18.66454924 9.33227462 32.66296116 13.99841193 48.98030195 13.99841193s32.63468155-6.95678654 51.29923078-13.99841193l431.43388358-191.36818892c16.31734078-7.01334578 27.99682386-25.67789501 27.99682386-49.03686118 2.31892885-23.33068654-9.33227462-44.34244425-25.67789502-53.70299848z m-480.38590588 228.78212625L82.43257136 294.75595873l429.05839548-228.78212624h2.34720847l429.0866751 228.78212624-429.0866751 179.74526507z" p-id="1687"></path></svg>