<?xml version="1.0" standalone="no"?><!DOCTYPE svg PUBLIC "-//W3C//DTD SVG 1.1//EN" "http://www.w3.org/Graphics/SVG/1.1/DTD/svg11.dtd"><svg t="1592359535368" class="icon" viewBox="0 0 1024 1024" version="1.1" xmlns="http://www.w3.org/2000/svg" p-id="2160" xmlns:xlink="http://www.w3.org/1999/xlink" width="128" height="128"><defs><style type="text/css"></style></defs><path d="M909.67956797 1027.50844144L114.31654843 1027.50844144c-65.0725553 0-117.83146256-52.75243457-117.83146256-117.82887347L-3.51491413 114.34632281c0-65.10232969 52.75890725-117.86123694 117.83146256-117.86123694l795.36172499 0c65.07643891 0 117.82887348 52.75890725 117.82887348 117.86123694l0 795.33324516C1027.50844144 974.75600688 974.75600688 1027.50844144 909.67956797 1027.50844144zM939.13678633 143.77376679c0-32.52139045-26.38916267-58.91443675-58.91443673-58.91443674L143.77376679 84.85933005c-32.52139045 0-58.91443675 26.39175173-58.91443674 58.91443674l0 736.44858281c0 32.52527408 26.39175173 58.94680019 58.91443674 58.94680018l736.44858281 0c32.52527408 0 58.91443675-26.39563536 58.91443673-58.94680018L939.13678633 143.77376679zM630.14991897 368.24411402l-73.96991684-73.93755339 0 434.70854068 71.85334677-71.84687408c17.26266785-17.23030439 45.21822183-17.26266785 62.48088968 0 17.25619517 17.26266785 17.25619517 45.24411259 0 62.51325314l-136.92331298 136.9168403c-2.09067931 4.42084819-4.56324741 8.77696948-8.2462088 12.45993087-9.19122173 9.16533097-21.32751803 13.07483653-33.34730587 12.51818508-11.99001347 0.59548761-24.15608415-3.35285413-33.34730588-12.54407585-3.67907777-3.68943408-6.2137837-7.96141037-8.21643442-12.40167664l-136.94920375-136.94920376c-17.26266785-17.26914053-17.26266785-45.25058528 0-62.51325314 17.25878423-17.23030439 45.21433822-17.26266785 62.47700607 0l71.84946315 71.84687408L467.8109361 294.30656063l-73.94014247 73.93755339c-17.26266785 17.2911477-45.24670167 17.26266785-62.50936951 0s-17.26266785-45.21822183 0-62.48088968l149.38324385-149.35088039c17.25878423-17.26266785 45.21433822-17.2911477 62.47700607 0l149.38324385 149.35088039c17.26266785 17.26266785 17.26266785 45.24670167 0 62.48088968C675.3681408 385.50548733 647.38669605 385.50548733 630.14991897 368.24411402z" p-id="2161"></path></svg>