<svg t="1592187294406" class="icon" viewBox="0 0 1024 1024" version="1.1" xmlns="http://www.w3.org/2000/svg" p-id="1288" width="128" height="128"><path d="M777.3073317 2.8258304L246.69383339 2.8258304c-131.16365938 0-237.49290439 105.07646407-237.4929044 234.69743218l0 548.95347371c0 129.62096811 106.32924615 234.69743218 237.4929044 234.69743217l530.61349831 0c131.16249429 0 237.49174045-105.07646407 237.49174044-234.69743217l0-548.95347371C1014.79790819 107.90229447 908.46982599 2.8258304 777.3073317 2.8258304zM920.16051314 693.33080405c0 129.61980416-107.99768007 234.69859613-241.21632085 234.69859613L334.28607773 928.02940131c-133.22096867 0-241.21864875-105.0787931-241.21864875-234.69859612L93.06742898 330.66686691c0-129.61863907 107.99768007-234.69743218 241.21864875-234.69743217l344.65811456 0c133.21863965 0 241.21632085 105.0787931 241.21632085 234.69743217L920.16051314 693.33080405z" p-id="1289"></path><path d="M287.18568562 184.39182222l129.64658289 0c-14.73997483 53.02432541-28.5322149 92.29949042-41.37555285 117.87090261-16.55045461 45.69974557-81.84877739 63.98732743-195.85189205 54.82316118C223.74092003 327.87488768 259.60004381 270.31097571 287.18568562 184.39182222zM364.42152733 836.78941867L243.04958919 836.78941867 243.04958919 565.41436359c-18.40517575 0-39.56623929 0-63.44476558 0 38.61850226-27.41216256 71.72057543-91.35641145 99.3050533-191.88164608l124.13015267 0c-12.88758158 42.06015829-25.7751643 80.43532402-38.61733831 115.13015182L364.42269127 836.78941867zM626.47523555 705.21359929L626.47523555 431.09662947 433.38272313 431.09662947l0-30.15058432 411.01128932 0 0 30.15058432-96.54567482 0 0 317.97596502c1.81047865 62.10582642-37.71500999 92.25757582-118.61488753 90.45874005-80.94295609-1.84307939-140.68060729-27.41332651-179.30027349-76.75382329 38.61966734 10.96533106 74.47878997 16.44799659 107.57969806 16.44799659C607.1665664 782.86625792 630.13927253 758.23908978 626.47523555 705.21359929zM816.81069853 241.95689813L463.72541667 241.95689813l0-27.41099861 353.08528186 0L816.81069853 241.95689813z" p-id="1290"></path></svg>