<?xml version="1.0" standalone="no"?><!DOCTYPE svg PUBLIC "-//W3C//DTD SVG 1.1//EN" "http://www.w3.org/Graphics/SVG/1.1/DTD/svg11.dtd"><svg t="1580800698003" class="icon" viewBox="0 0 1056 1024" version="1.1" xmlns="http://www.w3.org/2000/svg" p-id="2801" xmlns:xlink="http://www.w3.org/1999/xlink" width="132" height="128"><defs><style type="text/css"></style></defs><path d="M168.466322 228.392157c77.803922 17.568627 145.568627-40.156863 145.568627-112.941177C314.034949 50.196078 261.329067 0 198.583969 0c-75.294118 0-133.019608 70.27451-110.431373 148.078431 10.039216 40.156863 42.666667 70.27451 80.313726 80.313726zM316.544753 389.019608c0-10.039216 7.529412-20.078431 17.568627-20.078432l210.82353-2.509803h7.529412v5.019607c0 7.529412 0 15.058824 2.509803 20.078432 10.039216-12.54902 25.098039-17.568627 40.156863-17.568628h5.019608v-2.509804c0-30.117647 25.098039-55.215686 55.215686-55.215686s55.215686 25.098039 55.215687 55.215686-25.098039 55.215686-55.215687 55.215687h-5.019607v2.509804c0 17.568627-7.529412 32.627451-20.078432 42.666666 7.529412 2.509804 17.568627 2.509804 25.098039 2.509804 17.568627 0 35.137255-5.019608 50.196079-12.549019l62.745098 62.745098c5.019608 5.019608 10.039216 7.529412 17.568627 7.529411h115.450981c12.54902 0 25.098039-10.039216 25.098039-25.098039s-10.039216-25.098039-25.098039-25.098039h-105.411765l-52.705882-52.705882c10.039216-17.568627 17.568627-35.137255 17.568627-57.725491 0-57.72549-45.176471-102.901961-102.901961-102.90196-15.058824 0-30.117647 2.509804-42.666666 10.039215L552.466322 215.843137c-5.019608-5.019608-10.039216-7.529412-17.568628-7.529412h-115.45098c-12.54902 0-25.098039 10.039216-25.098039 25.09804s10.039216 25.098039 25.098039 25.098039h105.411764l15.058824 15.058823-198.27451-10.039215h-125.490196l10.039216 12.549019-12.54902 25.09804 25.098039 175.686274c0 7.529412-2.509804 15.058824-7.529411 20.078431l-32.627451 32.627451v2.509804l-2.509804-2.509804-2.509804 2.509804v-2.509804l-32.627451-35.137254c-5.019608-5.019608-7.529412-12.54902-5.019608-20.078432l25.098039-175.686274-12.549019-25.09804 10.039215-15.058823H70.583969c-7.529412 0-15.058824 5.019608-17.568628 15.058823 0 0-57.72549 218.352941-52.705882 288.627451l2.509804 2.509804c15.058824 10.039216 57.72549 42.666667 57.72549 42.666667 7.529412 7.529412 12.54902 17.568627 12.54902 27.607843L50.505537 1001.411765c0 12.54902 10.039216 22.588235 22.588236 22.588235h62.745098c12.54902 0 20.078431-10.039216 22.588235-20.078431L175.995733 677.647059h45.176471l20.078431 326.27451c0 12.54902 10.039216 20.078431 22.588236 20.078431h57.72549c12.54902 0 22.588235-10.039216 22.588235-22.588235L326.583969 617.411765l-10.039216-228.392157z" p-id="2802"></path><path d="M956.544753 22.588235H384.309459c-20.078431 0-35.137255 15.058824-35.137255 35.137255s15.058824 35.137255 35.137255 35.137255h572.235294c17.568627 0 30.117647 12.54902 30.117647 30.117647v542.117647c0 17.568627-12.54902 30.117647-30.117647 30.117647H384.309459c-20.078431 0-35.137255 15.058824-35.137255 35.137255s15.058824 35.137255 35.137255 35.137255H577.564361v117.960784c0 17.568627 15.058824 32.627451 32.627451 32.627451s32.627451-15.058824 32.627451-32.627451v-117.960784H954.034949c55.215686 0 100.392157-45.176471 100.392157-100.392157V122.980392c2.509804-55.215686-42.666667-100.392157-97.882353-100.392157zM805.956518 936.156863H416.93691c-20.078431 0-35.137255 15.058824-35.137255 35.137255s15.058824 35.137255 35.137255 35.137255h389.019608c20.078431 0 35.137255-15.058824 35.137255-35.137255s-15.058824-35.137255-35.137255-35.137255z" p-id="2803"></path><path d="M896.309459 346.352941h-77.803922c-12.54902 0-25.098039 10.039216-25.098039 25.098039s10.039216 25.098039 25.098039 25.09804h77.803922c12.54902 0 25.098039-10.039216 25.098039-25.09804s-10.039216-25.098039-25.098039-25.098039zM896.309459 208.313725h-115.450981c-12.54902 0-25.098039 10.039216-25.098039 25.09804s10.039216 25.098039 25.098039 25.098039h115.450981c12.54902 0 25.098039-10.039216 25.098039-25.098039s-10.039216-25.098039-25.098039-25.09804zM416.93691 486.901961c-12.54902 0-25.098039 10.039216-25.098039 25.098039s10.039216 25.098039 25.098039 25.098039h102.901961c7.529412 0 12.54902-2.509804 17.568627-7.529412l57.72549-57.72549s0-2.509804 2.509804-2.509804c20.078431 0 37.647059-17.568627 37.647059-40.156862 0-22.588235-17.568627-40.156863-40.156863-40.156863s-40.156863 17.568627-40.156863 40.156863c0 5.019608 0 7.529412 2.509804 12.549019l-45.17647 47.686275h-95.372549z" p-id="2804"></path></svg>