<?xml version="1.0" standalone="no"?><!DOCTYPE svg PUBLIC "-//W3C//DTD SVG 1.1//EN" "http://www.w3.org/Graphics/SVG/1.1/DTD/svg11.dtd"><svg t="1594952009514" class="icon" viewBox="0 0 1024 1024" version="1.1" xmlns="http://www.w3.org/2000/svg" p-id="1836" xmlns:xlink="http://www.w3.org/1999/xlink" width="128" height="128"><defs><style type="text/css"></style></defs><path d="M404.81203957 915.23380753H101.98156912c-10.23450509 0-34.88686854 2.41648024-41.87333969-1.27078415L58.83886642 911.42998295h-2.53730492c-1.76545189-1.36033626-0.81307461-3.14142388-3.80666685-5.08029437-2.22884815-24.27709816-1.26936302-53.66434212-1.26936302-80.02814239V106.13649319c0-6.18476777-0.48471761-12.14636749 2.53730492-15.24230422 3.40013008-12.60407704 22.1747603-10.16201095 38.06667174-10.16201094h600.18974661c10.05824424 0 29.9103409-2.64675614 35.53647577 2.54014717 4.77752321 1.31200683 5.61618477 3.51242468 7.61333479 7.62044154h1.26936303V259.83317048c0 14.0582299-1.53517598 40.08514422 3.80666683 48.26706311l3.80666685 2.54014717 3.80666795 5.08029437h2.53730381v1.27078415h3.80666795v1.2636774h6.34539289v1.27078416l10.1506386-1.27078416c2.35251508-2.69082219 6.17481766-2.94384167 8.88269782-5.08029436l1.2679408-3.81093244 2.53872604-1.26936302v-2.54014719h1.2679419v-2.54014716h1.25941182c2.09807337-4.82301038 1.2679419-12.49462471 1.26936301-19.04755103V130.27002418c0-21.22238302 1.45983848-44.81576023-5.07602986-59.70127823h-1.26936302v-2.53730383h-1.2679419V65.49129495l-2.53872495-1.27078526-1.2679419-5.08029436-3.80666683-2.54014718v-2.54014717l-5.07603098-3.81093135-1.26936193-2.54014717h-2.53730492l-3.80382457-5.07460874h-2.53730382l-1.26936303-2.54014718-11.42000163-3.81093244v-1.27646977h-2.53872604v-1.26936302h-5.07460875c-13.21104047-4.32692152-34.88828968-2.5415683-52.02539941-2.54014718H58.83886642v1.27078415h-6.34397177l-13.95730655 5.08029436v1.26936302L30.92283218 41.35492058l-2.53730381 3.81093135h-2.53730492l-6.34397066 7.62044154-3.80666796 2.54014716v2.54014718l-3.80666683 2.54014719v2.54014828h-1.26936303v2.54441167h-1.26936302v2.54014717h-1.26936302v2.54014718H6.81346589v2.54014719h-1.26794079c-6.34965739 14.59696257-3.80666685 43.14128158-3.80666794 63.50794507v722.72662133c0 18.33682089-2.86708304 47.07445872 2.53730492 60.967799h1.26936302v2.54014718h1.26794079v3.81093133h1.26936304v2.54014718h1.26936302v2.54014718l2.53730492 1.27078526v2.54014718l2.53730381 1.26936302v2.54014719l5.07602987 3.81093133 7.61333479 8.89122569h2.53730492l1.26936192 2.54014717 3.80666795 1.27078526v1.26936193h2.53730382v1.27078525h2.53872605v1.27078415h3.80666685v1.26936304h3.80666793v1.27078415h3.80666685v1.26936302c11.13286732 3.74412282 38.99630653 2.44917394 53.29334132 2.44917394h300.85180061c15.61046274 0 25.30197067-10.97224219 25.78384494-23.96295687 0.46339517-12.34963642-7.38021553-26.75185905-26.34247893-26.75185794zM152.28842496 217.07568318h468.60812894a25.34319226 25.34319226 0 1 1 0 50.68496448H152.28842496a25.34319226 25.34319226 0 1 1 0-50.68496448z m0 153.23328212h386.18056316a25.34319226 25.34319226 0 0 1 0 50.68638562H152.28842496a25.34319226 25.34319226 0 0 1 0-50.68638562z m0 153.23328213h339.07909747a25.34319226 25.34319226 0 0 1 0 50.68638561H152.28842496a25.34319226 25.34319226 0 0 1 0-50.68496448z m0 153.23328103h268.4268984a25.34319226 25.34319226 0 1 1 0 50.68496448H152.28842496a25.34319226 25.34319226 0 1 1 0-50.68212111z m854.1774653 187.42505737l-140.44015077 1.63609935H627.62005435c-39.65870613 0-88.24843951 3.99572117-122.47290846-3.26935532-9.92320497-13.94735534-9.79669577-31.57913392-9.79669577-57.22225506 0-58.63091965 5.40865136-97.77648006 48.98774226-111.17515151l107.77644365-3.2693564c3.35464292-2.21605468 2.62685592-1.83083927 4.89834788-4.90403352-7.43991619-58.83418858-34.61821332-80.70049211-48.98916336-127.52477359-23.255069-75.77513725 19.8449888-144.95328325 66.95072007-171.66818411 16.87129678-9.80806702 27.21667534-13.07742342 50.62099822-17.98429917 24.49316056-3.2693553 43.54781833-2.17909649 65.31888414 0 75.50648093 15.51238276 145.41525729 86.94922615 117.57313942 188.01780508-9.40153025 34.12638785-63.70268613 91.82625268-45.72265033 134.06348531 148.47139355-2.41648024 162.41306436 9.89051237 160.02927782 158.58933956-4.59557674 15.42283065-13.49248915 12.1563176-16.32829963 14.71067938z m-266.17246551-452.87684153c-29.0887373 2.5273537-72.35226358 17.71137947-91.44530066 80.11200779-24.82293868 81.09707985 109.16805248 174.42297146 31.02618555 245.23863792-77.62445563-2.1933111-156.51969539-18.78600255-127.37125633 83.38278641l416.40504645-1.63609932c0.61264904-19.9487555 4.47048868-57.12133061-4.89834789-68.66642141-14.78317353-29.46968821-111.94274005-8.48468894-138.80120807-21.2536545-31.45973038-89.61304025 24.52158976-122.38762084 40.82288131-188.01780509 22.02266416-88.65782072-56.85551765-138.7088137-125.73800036-129.15803066z m-223.71490488 479.03168728h323.32648872c50.97920555 0 112.17585932-2.97227088 161.66253378 1.84789723 18.72630078 13.96441331 22.98072816 58.28834805-3.2693564 73.35723478H510.04691492v-0.42643698c-29.11290201-20.15771005-20.19893273-59.10568715 6.53160495-74.77443055z" p-id="1837"></path></svg>