<?xml version="1.0" standalone="no"?><!DOCTYPE svg PUBLIC "-//W3C//DTD SVG 1.1//EN" "http://www.w3.org/Graphics/SVG/1.1/DTD/svg11.dtd"><svg t="1592189764793" class="icon" viewBox="0 0 1024 1024" version="1.1" xmlns="http://www.w3.org/2000/svg" p-id="1630" xmlns:xlink="http://www.w3.org/1999/xlink" width="128" height="128"><defs><style type="text/css"></style></defs><path d="M867.5328 534.9376a40.96 40.96 0 0 0-40.96 40.96v359.35573333H97.4848V97.4848h431.44533333a40.96 40.96 0 0 0 0-81.92H56.5248a40.96 40.96 0 0 0-40.96 40.96V976.21333333a40.96 40.96 0 0 0 40.96 40.96h811.008a40.96 40.96 0 0 0 40.96-40.96v-400.31573333a40.96 40.96 0 0 0-40.96-40.96z" p-id="1631"></path><path d="M979.49013333 151.00586667l-115.23413333-115.23413334a96.11946667 96.11946667 0 0 0-135.44106667 0L368.91306667 393.48906667a40.96 40.96 0 0 0-12.01493334 29.4912v199.33866666a40.96 40.96 0 0 0 40.96 40.41386667H402.77333333l193.3312-4.36906667a40.96 40.96 0 0 0 25.12213334-12.01493333l360.448-359.35573333a92.29653333 92.29653333 0 0 0 27.30666666-66.08213334 97.75786667 97.75786667 0 0 0-29.4912-69.90506666z m-54.61333333 77.55093333l-347.88693333 347.88693333-135.44106667 2.73066667V438.81813333L785.06666667 92.02346667a14.7456 14.7456 0 0 1 19.6608 0l116.87253333 117.41866666a16.384 16.384 0 0 1 4.9152 12.01493334 11.4688 11.4688 0 0 1-2.73066667 7.64586666zM250.94826667 847.872h431.44533333a40.96 40.96 0 0 0 0-81.92h-431.44533333a40.96 40.96 0 1 0 0 81.92z" p-id="1632"></path></svg>