<?xml version="1.0" standalone="no"?><!DOCTYPE svg PUBLIC "-//W3C//DTD SVG 1.1//EN" "http://www.w3.org/Graphics/SVG/1.1/DTD/svg11.dtd"><svg t="1577243431042" class="icon" viewBox="0 0 1024 1024" version="1.1" xmlns="http://www.w3.org/2000/svg" p-id="2459" xmlns:xlink="http://www.w3.org/1999/xlink" width="128" height="128"><defs><style type="text/css"></style></defs><path d="M773.559 649.066" p-id="2460"></path><path d="M150.294 87.501l0.664 0 1.119 0 696.147 0c19.282 0 35.411 16.129 35.411 35.408 0 9.621-4.272 18.368-10.739 24.878L698.549 322.094l174.348 175.01c13.642 13.642 13.642 35.618 0 49.299-6.717 6.926-15.922 10.739-24.672 10.739l-0.412 0L186.118 557.142l0 406.908c0 19.238-15.673 35.16-35.16 35.16-19.031 0-34.953-15.922-34.953-35.16L116.005 523.518l0-1.576 0-1.119L116.005 122.91C116.005 103.63 131.471 88.165 150.294 87.501L150.294 87.501zM150.958 87.501 150.958 87.501l1.119 0L150.958 87.501 150.958 87.501zM186.118 157.862 186.118 157.862l0 328.92L763.77 486.782 623.709 347.428c-13.435-14.346-13.435-35.867 0-49.962L763.77 157.862 186.118 157.862 186.118 157.862z" p-id="2461"></path></svg>