<?xml version="1.0" encoding="utf-8"?>
<!-- Generator: Adobe Illustrator 24.2.0, SVG Export Plug-In . SVG Version: 6.00 Build 0)  -->
<svg version="1.1" xmlns="http://www.w3.org/2000/svg" xmlns:xlink="http://www.w3.org/1999/xlink" x="0px" y="0px"
	 viewBox="0 0 1024 1024" style="enable-background:new 0 0 1024 1024;" xml:space="preserve">
<g id="_x31_">
</g>
<g id="图层_2">
	<g>
		<rect x="64" y="128" width="896" height="96"/>
		<rect x="64" y="352" width="320" height="96"/>
		<rect x="64" y="576" width="256" height="96"/>
		<rect x="64" y="800" width="256" height="96"/>
		<path d="M960.45,892.57l-90.38-90.38C906.27,758.03,928,701.55,928,640c0-141.38-114.62-256-256-256S416,498.62,416,640
			s114.62,256,256,256c45.02,0,87.32-11.64,124.07-32.04l96.49,96.49L960.45,892.57z M672,802c-89.47,0-162-72.53-162-162
			s72.53-162,162-162s162,72.53,162,162S761.47,802,672,802z"/>
	</g>
</g>
</svg>
