<?xml version="1.0" standalone="no"?><!DOCTYPE svg PUBLIC "-//W3C//DTD SVG 1.1//EN" "http://www.w3.org/Graphics/SVG/1.1/DTD/svg11.dtd"><svg t="1592896298549" class="icon" viewBox="0 0 1024 1024" version="1.1" xmlns="http://www.w3.org/2000/svg" p-id="2286" xmlns:xlink="http://www.w3.org/1999/xlink" width="128" height="128"><defs><style type="text/css"></style></defs><path d="M512.4942427 5.53165255c-0.06170738 0-0.12457984 0-0.18628721 0l-0.61591211 0c-0.06403641 0-0.12457984 0-0.18628722 0-217.72899669 0.49482525-394.72978717 177.62019555-394.72978717 395.53431552 0 214.8240805 136.02575474 385.14996793 370.93625402 605.90729558 0.37024541 0.49482525 0.49482525 1.1119013 0.92677916 1.48214784 3.46144882 3.70944455 7.66338958 6.18124288 12.11332608 7.78680547 1.05019392 0.37024541 2.22380373 0.37024541 3.33803406 0.61824114 2.53350571 0.61707605 5.00530403 1.60672768 7.6016822 1.60672768 0.12225081 0 0.18395819-0.12341475 0.30737408-0.12341476 0.12457984 0 0.18628722 0.12341475 0.30970198 0.12341476 2.59637817 0 5.06934045-0.98965049 7.6016822-1.60672768 1.1119013-0.24799459 2.28784014-0.24799459 3.33803406-0.61824114 4.44760747-1.60672768 8.65304121-4.07852601 12.11332608-7.78680547 0.43195392-0.37024541 0.55536867-0.98848654 0.92561408-1.48214784 234.91049813-220.75732765 370.93741795-391.08321507 370.93741796-605.90729558C907.22403101 183.15184811 730.22207545 6.02647779 512.4942427 5.53165255zM511.99825351 607.85524736c-115.13597383 0-208.82912483-93.69315101-208.82912484-208.8919973 0-115.19768121 93.69315101-208.76741746 208.82912484-208.76741745 115.13830173 0 208.82912483 93.5685723 208.82912484 208.76741745C720.82737835 514.1632603 627.13655523 607.85524736 511.99825351 607.85524736z" p-id="2287"></path></svg>