<?xml version="1.0" standalone="no"?><!DOCTYPE svg PUBLIC "-//W3C//DTD SVG 1.1//EN" "http://www.w3.org/Graphics/SVG/1.1/DTD/svg11.dtd"><svg t="1592200182918" class="icon" viewBox="0 0 1024 1024" version="1.1" xmlns="http://www.w3.org/2000/svg" p-id="2037" xmlns:xlink="http://www.w3.org/1999/xlink" width="128" height="128"><defs><style type="text/css"></style></defs><path d="M572.6814816 936.77037013H26.54814827V87.22962987h788.85925866v424.77037013h-60.68148053V147.91111147H87.22962987v728.17777706h424.77037013z" p-id="2038"></path><path d="M724.38518507 512c115.29481493 0 212.38518507 97.09037013 212.38518506 212.38518507S839.68 936.77037013 724.38518507 936.77037013 512 839.68 512 724.38518507 609.09037013 512 724.38518507 512m0-60.6814816C572.6814816 451.3185184 451.3185184 572.6814816 451.3185184 724.38518507s121.3629632 273.06666667 273.06666667 273.06666666 273.06666667-121.3629632 273.06666666-273.06666666S876.08888853 451.3185184 724.38518507 451.3185184zM208.59259307 26.54814827h60.68148053v182.0444448H208.59259307zM572.6814816 26.54814827h60.6814816v182.0444448h-60.6814816zM147.91111147 329.9555552h546.13333333v60.6814816H147.91111147zM147.91111147 512h303.40740693v60.6814816H147.91111147zM147.91111147 694.0444448h242.72592533v60.6814816H147.91111147z" p-id="2039"></path><path d="M876.08888853 815.40740693h-182.04444373v-242.72592533h60.6814816v182.0444448h121.36296213z" p-id="2040"></path></svg>