<?xml version="1.0" standalone="no"?><!DOCTYPE svg PUBLIC "-//W3C//DTD SVG 1.1//EN" "http://www.w3.org/Graphics/SVG/1.1/DTD/svg11.dtd"><svg t="1594965355898" class="icon" viewBox="0 0 1024 1024" version="1.1" xmlns="http://www.w3.org/2000/svg" p-id="1926" xmlns:xlink="http://www.w3.org/1999/xlink" width="128" height="128"><defs><style type="text/css"></style></defs><path d="M865.244 162.935H158.756c-55.332 0-100.347 45.032-100.347 100.365v497.4c0 55.332 45.014 100.365 100.347 100.365h706.487c55.33 0 100.347-45.033 100.347-100.365V263.3c0-55.333-45.015-100.365-100.346-100.365z m-706.488 59.872h706.487c22.318 0 40.51 18.158 40.51 40.493v1.857l-354.379 257.47c-20.978 15.235-57.773 15.251-78.75-0.017L118.246 265.14v-1.84c0-22.336 18.19-40.493 40.51-40.493z m706.488 578.388H158.756c-22.32 0-40.51-18.157-40.51-40.494V339.145L437.41 571.03c20.909 15.2 47.767 22.818 74.59 22.818s53.681-7.601 74.588-22.8l319.165-231.884V760.7c0 22.336-18.192 40.494-40.51 40.494z" p-id="1927"></path></svg>