<?xml version="1.0" standalone="no"?><!DOCTYPE svg PUBLIC "-//W3C//DTD SVG 1.1//EN" "http://www.w3.org/Graphics/SVG/1.1/DTD/svg11.dtd"><svg t="1576836272728" class="icon" viewBox="0 0 1024 1024" version="1.1" xmlns="http://www.w3.org/2000/svg" p-id="4275" xmlns:xlink="http://www.w3.org/1999/xlink" width="128" height="128"><defs><style type="text/css"></style></defs><path d="M234.5 44.9V885h555.3V44.9H234.5z m478.7 758.3H320.6V675.8h392.6v127.4zM336.7 468.7h360.4c5.9 0 10.7 4.8 10.7 10.7 0 5.9-4.8 10.7-10.7 10.7H336.7c-5.9 0-10.7-4.8-10.7-10.7 0.1-5.9 4.8-10.7 10.7-10.7zM326.1 399c0-5.9 4.8-10.7 10.7-10.7h360.4c5.9 0 10.7 4.8 10.7 10.7s-4.8 10.7-10.7 10.7H336.7c-5.9-0.1-10.6-4.8-10.6-10.7z m10.6 150.2h360.4c5.9 0 10.7 4.8 10.7 10.7s-4.8 10.7-10.7 10.7H336.7c-5.9 0-10.7-4.8-10.7-10.7s4.8-10.7 10.7-10.7z m376.5-230.7H320.6V124.6h392.6v193.9z m-404 602.7L268.4 979h-33.9v-57.8h74.7z m480.6 0V979h-33.9L715 921.2h74.8z" p-id="4276"></path></svg>