<svg t="1576820902418" class="icon" viewBox="0 0 1024 1024" version="1.1" xmlns="http://www.w3.org/2000/svg" p-id="941" width="128" height="128"><path d="M725.333333 512c0-12.8 8.533333-21.333333 21.333334-21.333333h277.333333C1013.333333 224 800 10.666667 533.333333 0v277.333333c0 12.8-8.533333 21.333333-21.333333 21.333334s-21.333333-8.533333-21.333333-21.333334V0C224 10.666667 10.666667 224 0 490.666667h277.333333c12.8 0 21.333333 8.533333 21.333334 21.333333s-8.533333 21.333333-21.333334 21.333333H0c10.666667 266.666667 224 480 490.666667 490.666667V746.666667c0-12.8 8.533333-21.333333 21.333333-21.333334s21.333333 8.533333 21.333333 21.333334v277.333333c266.666667-10.666667 480-224 490.666667-490.666667H746.666667c-12.8 0-21.333333-8.533333-21.333334-21.333333z m-213.333333 128c-70.4 0-128-57.6-128-128s57.6-128 128-128 128 57.6 128 128-57.6 128-128 128z" p-id="942"></path></svg>