<?xml version="1.0" standalone="no"?><!DOCTYPE svg PUBLIC "-//W3C//DTD SVG 1.1//EN" "http://www.w3.org/Graphics/SVG/1.1/DTD/svg11.dtd"><svg t="1592200402213" class="icon" viewBox="0 0 1024 1024" version="1.1" xmlns="http://www.w3.org/2000/svg" p-id="2067" xmlns:xlink="http://www.w3.org/1999/xlink" width="128" height="128"><defs><style type="text/css"></style></defs><path d="M979.08505792 2.495512H44.91494208c-23.40924106 0-42.41943008 19.01018903-42.41943008 42.41943008v934.17011584c0 23.40924106 19.01018903 42.41943008 42.41943008 42.41943008h934.17011584c23.40924106 0 42.41943008-19.01018903 42.41943008-42.41943008V44.91494208c0-23.40924106-19.01018903-42.41943008-42.41943008-42.41943008zM280.42133354 947.19193087c0-128.04383525 103.84904921-231.89288446 231.89288445-231.89288446S744.20710244 819.14809562 744.20710244 947.19193087H280.42133354z m666.77059733 0h-69.75639616c0-13.51137403-0.78554501-26.86563906-2.35663499-39.90568608l72.11303115-50.43198912-30.95047307-94.26540019-88.13814917 2.04241702c-13.04004703-22.46658704-28.27962006-43.36208409-45.71871912-62.37227313l28.90805609-83.42487916-80.28269917-58.13033012-70.07061413 53.25995112c-23.40924106-10.52630302-48.07535409-18.69597103-73.84123015-24.19478604L561.80355309 505.71563998h-99.13577919l-25.45165805 84.05331519c-26.55142107 5.49881501-51.84597011 14.13981003-75.88364715 25.13744004l-70.38483215-52.94573312-79.96848114 58.75876612 29.37938304 83.26777019c-17.28199003 19.16729804-32.52156306 40.21990407-45.40450106 62.6864911l-88.1381492-1.41398099-30.00781906 94.42250916 72.27014014 49.80355311c-1.25687199 12.41161103-1.885308 24.98033105-1.88530799 37.70616009H76.80806913V317.49905761h870.38386174V947.19193087zM400.29550078 77.59361414c24.98033105 0 45.09028308 20.26706103 45.09028308 45.09028309S425.27583183 167.93128931 400.29550078 167.93128931c-24.98033105 0-45.09028308-20.26706103-45.09028308-45.09028307s20.10995203-45.24739209 45.09028308-45.2473921z m-142.34075428 0c24.98033105 0 45.09028308 20.26706103 45.09028308 45.09028309S282.93507755 167.93128931 257.9547465 167.93128931c-24.98033105 0-45.09028308-20.26706103-45.09028309-45.09028307s20.10995203-45.24739209 45.09028309-45.2473921z m-142.34075428 0c24.98033105 0 45.09028308 20.26706103 45.09028309 45.09028309S140.43721425 167.93128931 115.61399222 167.93128931c-24.98033105 0-45.09028308-20.26706103-45.09028308-45.09028307s20.10995203-45.24739209 45.09028308-45.2473921z" p-id="2068"></path></svg>