<?xml version="1.0" standalone="no"?><!DOCTYPE svg PUBLIC "-//W3C//DTD SVG 1.1//EN" "http://www.w3.org/Graphics/SVG/1.1/DTD/svg11.dtd"><svg t="1592190158440" class="icon" viewBox="0 0 1024 1024" version="1.1" xmlns="http://www.w3.org/2000/svg" p-id="7594" xmlns:xlink="http://www.w3.org/1999/xlink" width="128" height="128"><defs><style type="text/css"></style></defs><path d="M984.965585 549.832223H38.176961a38.176961 38.176961 0 0 1-38.176961-38.176961V328.405851a114.530882 114.530882 0 0 1 114.530882-106.89549H916.247056a114.530882 114.530882 0 0 1 106.895489 122.166274v167.978627a38.176961 38.176961 0 0 1-38.17696 38.176961zM76.353921 473.478301h870.434703V343.676635c0-22.906176-15.270784-45.812353-30.541568-45.812353H114.530882a38.176961 38.176961 0 0 0-38.176961 30.541569z" p-id="7595"></path><path d="M503.935881 1023.226535H183.249411A106.89549 106.89549 0 0 1 76.353921 916.331045V511.655262a38.176961 38.176961 0 0 1 38.176961-38.176961h397.040391l30.541568 15.270785c7.635392 0 7.635392 15.270784 7.635392 22.906176v473.394312a38.176961 38.176961 0 0 1-45.812352 38.176961zM152.707843 549.832223V916.331045a30.541569 30.541569 0 0 0 30.541568 30.541568h282.509509V549.832223z" p-id="7596"></path><path d="M839.893134 1023.226535H481.029704l-15.270784-30.541569V511.655262a38.176961 38.176961 0 0 1 38.176961-38.176961H916.247056l22.906176 15.270785c7.635392 0 15.270784 15.270784 15.270784 22.906176V916.331045a106.89549 106.89549 0 0 1-114.530882 106.89549z m-297.780293-76.353922H839.893134a30.541569 30.541569 0 0 0 30.541569-30.541568V549.832223H549.748233zM694.820684 297.864282H358.86343c-15.270784-7.635392-160.343235-38.176961-190.884803-129.801666A114.530882 114.530882 0 0 1 190.884803 53.531734 114.530882 114.530882 0 0 1 290.144901 0.083989C381.769607 0.083989 481.029704 106.979479 526.842057 168.062616l76.353921-83.989313A198.520195 198.520195 0 0 1 771.174605 0.083989a129.801666 129.801666 0 0 1 91.624706 68.718529 114.530882 114.530882 0 0 1 7.635392 99.260098 251.96794 251.96794 0 0 1-160.343235 122.166274z m-114.530882-76.353921H687.185292c38.176961-15.270784 99.260098-45.812353 114.530882-83.989313a76.353921 76.353921 0 0 0-7.635392-30.541569 83.989313 83.989313 0 0 0-38.176961-30.541568 160.343235 160.343235 0 0 0-99.260098 53.447745z m-206.155588 0h99.260098C419.946567 152.791832 343.592646 76.437911 290.144901 76.437911a38.176961 38.176961 0 0 0-38.176961 22.906176 45.812353 45.812353 0 0 0-15.270784 45.812353 259.603332 259.603332 0 0 0 137.437058 76.353921z" p-id="7597"></path></svg>