<svg t="1580799850251" class="icon" viewBox="0 0 1024 1024" version="1.1" xmlns="http://www.w3.org/2000/svg" p-id="1048" width="128" height="128"><path d="M915.392 116.416c0-40.448-43.52-70.08-133.12-90.624C709.632 9.152 613.76 0 512 0 410.304 0 314.304 9.152 241.792 25.792c-89.6 20.544-133.184 50.176-133.184 90.624 0 2.24 0.128 4.48 0.384 6.656A41.472 41.472 0 0 0 108.608 128v783.488c0 4.352 0.896 8.576 2.56 12.288 10.432 32.256 53.44 56.704 130.624 74.368C314.304 1014.784 410.304 1024 512 1024c101.76 0 197.632-9.216 270.272-25.792 77.12-17.664 120.128-42.112 130.56-74.368a31.552 31.552 0 0 0 2.56-12.288V128c0-1.664-0.192-3.328-0.384-4.992a55.296 55.296 0 0 0 0.384-6.592zM273.152 82.56C339.008 69.312 423.808 62.08 512 62.08s172.992 7.232 238.848 20.416c60.736 12.224 88.832 26.112 99.008 33.856-10.176 7.744-38.272 21.632-99.008 33.792-65.856 13.312-150.656 20.544-238.848 20.544s-172.992-7.232-238.848-20.48c-60.8-12.16-88.832-26.112-99.008-33.792 10.176-7.808 38.208-21.696 99.008-33.856z m477.696 858.944c-65.856 13.184-150.656 20.416-238.848 20.416s-172.992-7.232-238.848-20.416c-69.952-14.08-96.512-30.4-102.464-36.928v-163.008l1.6 0.064h124.352a31.04 31.04 0 1 0 0-62.016H172.288l-1.6 0.064V580.16l1.6 0.064h124.352a31.04 31.04 0 1 0 0-62.016H172.288a13.44 13.44 0 0 0-1.6 0.128V418.816l1.6 0.064h124.352a31.04 31.04 0 0 0 0-62.08H172.288l-1.6 0.064v-172.16c19.136 8.384 42.816 15.744 71.104 22.208 72.512 16.704 168.512 25.856 270.208 25.856 101.76 0 197.632-9.152 270.272-25.792a404.48 404.48 0 0 0 71.04-22.208v719.808c-5.888 6.528-32.512 22.848-102.464 36.928z m0 0" p-id="1049"></path><path d="M497.2544 487.8336c-11.81013333-15.5648-24.71253333-31.40266667-38.7072-47.58186667l20.95786667-14.9504h-40.1408a363.99786667 363.99786667 0 0 1-59.73333334 60.2112 616.2432 616.2432 0 0 0-23.3472-26.14613333 333.14133333 333.14133333 0 0 0 89.15626667-106.83733333h40.1408c-7.7824 15.42826667-16.24746667 30.03733333-25.3952 43.89546666h136.87466667v28.8768h-111.95733334c13.99466667 13.5168 27.17013333 27.37493333 39.66293334 41.50613334l-27.51146667 21.02613333zM375.46666667 490.22293333h199.4752a535.68853333 535.68853333 0 0 0-19.8656-32.69973333l32.22186666-13.99466667c10.24 14.9504 19.59253333 30.5152 27.98933334 46.6944h184.25173333v72.36266667h-35.84v-42.05226667H411.37493333v42.3936H375.46666667V490.22293333z m52.70186666 64.85333334h287.40266667v112.36693333h-35.49866667v-11.60533333H464.0768v35.49866666h290.67946667v121.71946667h-35.49866667v-17.74933333H464.0768v18.29546666h-35.90826667V555.07626667z m251.97226667 27.98933333H464.0768v44.78293333h216.064v-44.78293333z m39.18506667 136.26026667H464.0768v45.73866666h255.24906667v-45.73866666z m-8.8064-231.90186667a570.84586667 570.84586667 0 0 0-37.888-47.58186667l20.2752-14.5408h-39.3216a395.6736 395.6736 0 0 1-28.53546667 40.1408c-6.82666667-6.82666667-16.24746667-14.47253333-28.39893333-22.86933333 21.7088-24.23466667 40.00426667-54.272 54.54506666-90.04373333h40.1408a557.73866667 557.73866667 0 0 1-21.23093333 43.89546666H819.2v28.8768h-119.46666667c14.1312 13.7216 26.96533333 27.37493333 38.2976 41.09653334l-27.51146666 21.02613333z" p-id="1050"></path></svg>