<svg t="1592186694724" class="icon" viewBox="0 0 1024 1024" version="1.1" xmlns="http://www.w3.org/2000/svg" p-id="1197" width="128" height="128"><path d="M782.19228053 523.49754347v-37.3670176c0-37.3670176-28.7438592-66.1108768-66.1108768-66.1108768h-103.47789546v-43.11578987c31.61824533-8.6231584 51.7389472-37.3670176 51.73894826-68.98526293 0-40.24140373-31.61824533-71.85964907-71.85964906-71.85964907s-71.85964907 31.61824533-71.85964907 71.85964907c0 34.49263147 22.995088 60.3621056 51.7389472 68.98526293v43.11578987h-103.47789547c-37.3670176 0-66.1108768 28.7438592-66.1108768 66.1108768v37.3670176c-31.61824533 8.6231584-54.61333333 37.3670176-54.61333333 71.85964906 0 40.24140373 31.61824533 71.85964907 71.85964907 71.85964907s71.85964907-31.61824533 71.85964906-71.85964907c0-31.61824533-22.995088-60.3621056-51.7389472-68.98526293v-37.3670176c0-14.3719296 11.49754347-25.86947413 25.86947414-25.86947307H569.48771947v63.23649067c-31.61824533 8.6231584-51.7389472 37.3670176-51.7389472 68.98526293 0 40.24140373 31.61824533 71.85964907 71.85964906 71.85964907s71.85964907-31.61824533 71.85964907-71.85964907c0-34.49263147-22.995088-60.3621056-51.7389472-68.98526293v-63.23649067H713.2070176c14.3719296 0 25.86947413 11.49754347 25.86947413 25.86947307v37.3670176c-28.7438592 8.6231584-51.7389472 37.3670176-51.73894826 68.98526293 0 40.24140373 31.61824533 71.85964907 71.85964906 71.85964907s71.85964907-31.61824533 71.85964907-71.85964907c5.74877227-37.3670176-17.24631573-63.23649173-48.86456107-71.85964906z m-330.55438613 68.985264c0 17.24631573-14.3719296 31.61824533-31.61824533 31.61824533s-31.61824533-14.3719296-31.61824534-31.61824533c0-17.24631573 14.3719296-31.61824533 31.61824534-31.6182464s31.61824533 14.3719296 31.61824533 31.6182464z m106.35228053-287.43859734c0-17.24631573 14.3719296-31.61824533 31.6182464-31.61824533 17.24631573 0 31.61824533 14.3719296 31.61824534 31.61824533s-11.49754347 34.49263147-28.7438592 34.49263147c-20.12070187 0-34.49263147-14.3719296-34.49263254-34.49263147z m66.11087787 287.43859734c0 17.24631573-14.3719296 31.61824533-31.61824533 31.61824533-17.24631573 0-31.61824533-14.3719296-31.6182464-31.61824533 0-17.24631573 14.3719296-31.61824533 31.6182464-31.6182464 17.24631573 0 31.61824533 14.3719296 31.61824533 31.6182464z m140.844912 34.49263146c-17.24631573 0-31.61824533-14.3719296-31.61824533-31.6182464 0-17.24631573 14.3719296-31.61824533 31.61824533-31.61824533 17.24631573 0 31.61824533 14.3719296 31.61824533 31.61824533 0 17.24631573-14.3719296 31.61824533-31.61824533 31.6182464z" p-id="1198"></path><path d="M940.28350827 192.9431584v-5.74877227-2.87438613-2.87438613c0-2.87438613-2.87438613-2.87438613-2.87438507-5.74877227l-178.21193067-169.5887712h-2.87438506l-2.87438614-2.87438613h-2.87438613-457.02736853c-34.49263147 0-63.23649173 28.7438592-63.23649174 63.23649066v83.3571936l-89.1059648 22.995088c-28.7438592 5.74877227-43.11578987 20.12070187-48.86456106 31.61824534-14.3719296 25.86947413-8.6231584 57.48771947-2.87438614 74.7340352l143.71929814 560.50526293 34.49263146 120.72421013c14.3719296 45.99017493 45.99017493 60.3621056 74.7340352 60.3621056 20.12070187 0 43.11578987-5.74877227 57.48771947-11.49754346l5.74877227-2.87438614L879.92140373 885.67017493c31.61824533-2.87438613 57.48771947-28.7438592 57.48771947-63.23649066l2.87438507-629.49052587z m-137.97052587-20.12070187c-20.12070187 0-37.3670176-17.24631573-37.3670176-37.3670176V69.34456107l109.22666667 103.47789546h-71.85964907zM126.83228053 224.56140373c5.74877227-5.74877227 11.49754347-11.49754347 22.995088-14.3719296l80.4828064-20.12070186v482.8968416l-103.4778944-402.4140352c-5.74877227-20.12070187-5.74877227-34.49263147 0-45.99017494z m178.2119296 724.34526294l-17.24631573-60.3621056H716.08140373L397.02456107 969.02736853l-8.62315734 2.87438614c-45.99017493 14.3719296-68.98526293 14.3719296-83.3571936-22.995088z m572.00280747-100.60350827H293.54666667c-11.49754347 0-22.995088-11.49754347-22.995088-22.995088V66.47017493c0-11.49754347 11.49754347-22.995088 22.995088-22.99508693h428.28350826v91.98035093c0 43.11578987 34.49263147 77.60842133 77.60842134 77.60842027h100.60350933v612.2442112c0 11.49754347-8.6231584 22.995088-22.995088 22.995088z" p-id="1199"></path></svg>