<?xml version="1.0" standalone="no"?><!DOCTYPE svg PUBLIC "-//W3C//DTD SVG 1.1//EN" "http://www.w3.org/Graphics/SVG/1.1/DTD/svg11.dtd"><svg t="1592190784737" class="icon" viewBox="0 0 1024 1024" version="1.1" xmlns="http://www.w3.org/2000/svg" p-id="1880" xmlns:xlink="http://www.w3.org/1999/xlink" width="128" height="128"><defs><style type="text/css"></style></defs><path d="M511.38059491 1021.08684743c-281.06897522 0-509.73070222-228.66172701-509.73070222-509.73070222S230.3116197 1.62544185 511.38059491 1.62544185s509.73070222 228.66172701 509.73070223 509.73070222S792.44840619 1021.08684743 511.38059491 1021.08684743zM511.38059491 42.40371257c-258.58876643 0-468.95243264 210.37298005-468.95243264 468.95243264s210.36366621 468.95243264 468.95243264 468.95243264S980.33186361 769.93443271 980.33186361 511.35614521 769.96936135 42.40371257 511.38059491 42.40371257z" p-id="1881"></path><path d="M532.0910757 209.5126528l81.78939904 151.55745109c3.39159154 6.28370091 9.4529115 10.68822869 16.47710321 11.97128136l169.41424413 30.95278364c18.41332679 3.36364885 25.71578482 25.83919957 12.79676643 39.384609L693.70454357 567.99909888c-4.9284608 5.16714155-7.24307968 12.29262734-6.2941787 19.36921259l22.91332665 170.68681898c2.49042717 18.55187741-16.62846179 32.44191744-33.50259029 24.34075193l-155.25292374-74.53700551c-6.43738738-3.09003947-13.9296256-3.09003947-20.36701298 0l-155.25292373 74.53700551c-16.8741285 8.10116551-35.99301746-5.78887453-33.50259029-24.34075193l22.91332665-170.68681898c0.95006493-7.07658525-1.3657179-14.20207104-6.29301476-19.36921259L210.20307911 443.37877789c-12.91901838-13.54424434-5.61655922-36.01979619 12.79676644-39.384609l169.41424412-30.95278364c7.02419171-1.28305266 13.08551168-5.68758158 16.47710322-11.97128136l81.79056298-151.55745109C499.56998599 193.04020651 523.20168277 193.04020651 532.0910757 209.5126528z" p-id="1882"></path></svg>