<?xml version="1.0" standalone="no"?><!DOCTYPE svg PUBLIC "-//W3C//DTD SVG 1.1//EN" "http://www.w3.org/Graphics/SVG/1.1/DTD/svg11.dtd"><svg t="1592190464197" class="icon" viewBox="0 0 1024 1024" version="1.1" xmlns="http://www.w3.org/2000/svg" p-id="4391" xmlns:xlink="http://www.w3.org/1999/xlink" width="128" height="128"><defs><style type="text/css"></style></defs><path d="M148.134831 0h647.835326l1.346158 1.024C735.577169 1.323146 673.838022 1.070022 612.098876 1.150562H230.181393c-26.819596-0.069034-53.639191 0.161079-80.447281-0.115056L148.134831 0z" p-id="4392"></path><path d="M98.649169 27.27982C110.787596 11.701213 129.921438 1.622292 149.734112 1.035506c26.80809 0.276135 53.627685 0.046022 80.447281 0.115056H612.098876c61.739146-0.080539 123.478292 0.172584 185.217439-0.126562 24.184809 1.116045 46.954427 16.268944 57.63164 37.957034 2.358652 5.143011 5.027955 10.447101 5.154517 16.222921-0.046022 286.340315 0 572.680629-0.023011 859.032449-226.476584 0.023011-452.941663-0.023011-679.418248 0.023012-9.837303-0.115056-19.294921 6.063461-23.275865 15.049348-2.956944 6.178517-2.255101 13.219955-2.243595 19.870202-0.069034 9.825798 6.213034 19.248899 15.210427 23.137798 6.074966 2.88791 12.966831 2.128539 19.490517 2.209079h704.178337c13.818247 0.713348 26.485933-11.425079 26.324854-25.254832 0.092045-296.603326-0.023011-593.206652 0.057528-889.809977 11.850787 3.842876 22.71209 10.769258 30.950112 20.134831 10.309034 11.459596 16.234427 26.451416 17.419506 41.753888v836.538966c-1.265618 17.477034-8.962876 34.470831-21.87218 46.402157-12.886292 12.207461-30.593438 18.972764-48.323596 18.708135-247.750472 0.011506-495.489438 0-743.23991 0.011506-10.24 0.149573-20.560539-1.610787-29.949123-5.77582-19.260404-8.272539-34.229213-25.795596-39.326203-46.137528-3.187056-11.643685-1.86391-23.805124-2.140044-35.713439-0.011506-65.374921 0.034517-130.761348-0.023012-196.136269 26.877124-0.115056 53.754247-0.023011 80.631371-0.046023 8.099955 0.149573 16.441528 0.103551 24.092764-2.899416 16.901753-6.028944 29.454382-22.458966 30.662472-40.373213 0.966472-11.310022-0.529258-23.18382-6.69627-32.940584-8.272539-13.772225-23.954697-22.666067-40.03955-22.574023-29.51191-0.011506-59.035326-0.034517-88.547236 0.011506-0.172584-47.886382-0.034517-95.78427-0.069034-143.682157 29.534921-0.023011 59.081348 0 88.61627-0.011506 12.011865 0.069034 23.874157-4.878382 32.514876-13.185438 9.388584-8.939865 14.658157-21.883685 14.428045-34.827506 0.356674-9.308045-1.461213-18.777169-6.178517-26.877123-8.030921-14.474067-24.196315-23.885663-40.729887-23.874158-29.546427-0.080539-59.10436 0-88.650787-0.034517-0.023011-40.212135-0.011506-80.42427 0-120.636404 29.546427-0.046022 59.092854 0.034517 88.650787-0.046023 11.55164 0 22.976719-4.498697 31.490876-12.288 10.067416-9.020404 15.72818-22.562517 15.417528-36.047101 0.47173-10.700225-2.312629-21.619056-8.56018-30.374831-8.583191-12.345528-23.356404-20.146337-38.417258-20.042787-29.523416-0.023011-59.058337 0.011506-88.581753-0.011505-0.023011-36.093124 0-72.186247-0.011505-108.279371-0.138067-15.429034 5.143011-30.823551 14.727191-42.927461m275.421483 175.587236c-11.494112 1.288629-21.596045 10.24-24.276854 21.480989-2.082517 9.158472-0.977978 19.548045 4.924404 27.118742 5.465169 7.409618 14.646652 11.724225 23.816629 11.482606 108.935191-0.023011 217.858876 0.011506 326.794068-0.011505 9.641708 0.138067 19.145348-4.912899 24.380404-13.02436 4.56773-6.753798 5.430652-15.336989 4.291596-23.241348-1.668315-10.815281-10.113438-20.19236-20.687101-22.988225-4.83236-1.426697-9.917843-0.977978-14.876764-1.035506H459.062652c-28.326831 0.149573-56.676674-0.28764-84.992 0.218607m0.356674 231.539056c-11.931326 1.162067-22.412944 10.619685-24.829124 22.355416-1.76036 8.893843-0.644315 18.846202 5.039461 26.175281 5.465169 7.467146 14.669663 11.827775 23.885663 11.574652 108.91218-0.011506 217.82436 0.011506 326.736539-0.011506 12.909303 0.36818 25.220315-9.03191 28.234787-21.596045 1.875416-8.548674 1.254112-18.132854-3.739326-25.576989-5.189034-8.157483-14.70418-13.300494-24.380405-13.104899H541.868584c-55.813753 0.126562-111.639011-0.241618-167.441258 0.18409m-4.613753 232.459506c-10.309034 2.841888-18.593079 11.873798-20.410966 22.435955-1.380674 8.272539-0.379685 17.350472 4.590741 24.322876 5.384629 7.950382 14.922787 12.736719 24.506967 12.460585 108.946697-0.011506 217.893393 0.011506 326.851595-0.011506 7.041438 0.046022 14.094382-2.51973 19.35245-7.237034 13.081888-11.321528 13.12791-34.298247 0.138067-45.700314-5.281079-4.786337-12.380045-7.444135-19.502023-7.340584H385.449708c-5.212045 0.046022-10.550652-0.402697-15.636135 1.070022z" p-id="4393"></path><path d="M81.862472 198.207281c25.634517-0.36818 51.280539-0.046022 76.915056-0.161079 7.340584-0.172584 14.727191 2.404674 20.19236 7.340585 13.058876 11.459596 12.989843 34.562876-0.230113 45.861393-5.154517 4.510202-11.942831 7.156494-18.811685 7.08746-24.94418 0.023011-49.88836-0.011506-74.832539 0.011506-7.202517 0.18409-14.382022-2.51973-19.72063-7.340584-13.081888-11.517124-12.897798-34.712449 0.437214-45.964944 4.46418-3.865888 10.170966-6.270562 16.050337-6.834337zM77.605393 417.23973c4.728809-1.173573 9.641708-0.874427 14.474068-0.897438 20.318921 0.011506 40.637843 0.011506 60.956764 0 5.361618-0.023011 10.884315-0.264629 16.01582 1.57627 9.95236 3.267596 17.661124 12.391551 19.156854 22.781123 0.805393 6.397124 0.540764 13.162427-2.23209 19.099326-3.658787 8.192-11.367551 14.393528-20.134831 16.234427-3.854382 0.805393-7.812315 0.598292-11.724225 0.609798-23.379416-0.023011-46.747326 0.023011-70.115236-0.011506-7.018427-0.046022-13.910292-2.922427-19.030292-7.685752-12.598652-11.563146-12.380045-34.171685 0.586786-45.366652 3.44018-3.037483 7.605213-5.223551 12.046382-6.339596zM78.410787 660.66409c2.243596-0.494742 4.544719-0.621303 6.834337-0.632809 24.898157 0.023011 49.796315 0 74.694472 0.011506 10.136449-0.115056 20.00827 5.729798 24.898157 14.600629 4.096 7.075955 4.533213 15.762697 2.910921 23.632539-2.772854 12.598652-14.957303 22.171326-27.843595 22.033258-23.36791 0.057528-46.73582-0.011506-70.103731 0.034517-4.694292 0.023011-9.50364 0.103551-14.002337-1.426696C65.662562 715.776 57.71218 706.56 56.204944 696.043865c-0.828404-6.535191-0.563775-13.484584 2.358652-19.502022 3.693303-7.984899 11.240989-14.013843 19.847191-15.877753z" p-id="4394"></path></svg>