<?xml version="1.0" standalone="no"?><!DOCTYPE svg PUBLIC "-//W3C//DTD SVG 1.1//EN" "http://www.w3.org/Graphics/SVG/1.1/DTD/svg11.dtd"><svg t="1622184955839" class="icon" viewBox="0 0 1024 1024" version="1.1" xmlns="http://www.w3.org/2000/svg" p-id="5382" xmlns:xlink="http://www.w3.org/1999/xlink" width="32" height="32"><defs><style type="text/css"></style></defs><path d="M0 0h127.9995v319.99875H0z" p-id="5383"></path><path d="M0.004 128.0035v-127.9995h320.00875v127.9995zM1023.994 0.002v127.9995h-319.858751v-127.9995z"  p-id="5384"></path><path d="M895.9965 0h127.9995v319.99875H895.9965zM1023.996 1023.998H895.9965v-319.95875h127.9995z"  p-id="5385"></path><path d="M1023.994 895.9985v127.9995h-319.858751v-127.9995zM0.004 1024v-127.9995h320.00875v127.9995z" p-id="5386"></path><path d="M127.9995 1023.998H0v-319.95875h127.9995zM612.247608 482.918114s-3.779985 20.049922-11.339955 36.109859c-13.229948 32.109875-11.339956 82.279679 13.229948 86.299662 18.909926 1.999992 111.619564 24.099906 139.979453 66.219742 30.279882 44.149828 43.50983 118.409537-30.279881 140.489451-28.359889 8.009969-79.42969 16.059937-138.059461 20.079922-39.729845 1.999992-136.199468 0-143.789439 0-58.629771-4.019984-111.569564-10.039961-141.839445-20.079922-73.779712-22.099914-60.549763-98.339616-30.279882-140.489451 30.279882-44.149828 122.93952-64.229749 141.869446-66.219742 18.909926-1.999992 28.359889-18.049929 34.059867-34.109866 3.779985-16.059937-13.259948-26.089898-22.709912-44.149828-9.449963-18.049929-15.119941-44.149828-15.119941-44.149827s-18.909926-2.019992-34.059867-40.149844c-13.229948-38.129851 7.55997-52.189796 7.559971-52.189796s-11.339956-42.119835-3.779985-88.269655c7.55997-48.199812 49.179808-108.369577 104.029593-108.369577 60.549763 0 75.679704 18.049929 77.569697 26.089899h7.559971c56.739778 0 73.759712 30.089882 77.569697 82.279678 2.179991 29.649884-0.369999 59.449768-7.559971 88.299655 0 0 22.689911 14.029945 9.449963 52.189796-13.229948 38.099851-34.059867 40.119843-34.059867 40.119844z" p-id="5387"></path></svg>
