<?xml version="1.0" standalone="no"?><!DOCTYPE svg PUBLIC "-//W3C//DTD SVG 1.1//EN" "http://www.w3.org/Graphics/SVG/1.1/DTD/svg11.dtd"><svg t="1592383835714" class="icon" viewBox="0 0 1024 1024" version="1.1" xmlns="http://www.w3.org/2000/svg" p-id="2194" xmlns:xlink="http://www.w3.org/1999/xlink" width="128" height="128"><defs><style type="text/css"></style></defs><path d="M515.79731239 576.07101433a241.6471439 241.6471439 0 1 1 0-483.2942878 241.6471439 241.6471439 0 0 1 0 483.2942878z m0-69.0420413a172.60510261 172.60510261 0 1 0 0-345.21020521 172.60510261 172.60510261 0 0 0 0 345.21020521z" p-id="2195"></path><path d="M895.52853887 886.76019951a34.52102004 34.52102004 0 0 1-69.04204128 0 310.68918518 310.68918518 0 0 0-621.37837038 0 34.52102004 34.52102004 0 0 1-69.04204129 0 379.80026865 379.80026865 0 0 1 759.46245295 0z" p-id="2196"></path><path d="M28.7057122 862.18123218m34.52102003 0l897.54653554 0q34.52102004 0 34.52102003 34.52102125l0 0q0 34.52102004-34.52102003 34.52102004l-897.54653554 0q-34.52102004 0-34.52102003-34.52102004l0 0q0-34.52102004 34.52102003-34.52102125Z" p-id="2197"></path><path d="M535.06004188 545.8306007a34.52102004 34.52102004 0 1 1 49.36505875 48.32942854l-59.16902832 60.54986942-59.23807172-60.54986942a34.52102004 34.52102004 0 0 1 49.36505996-48.32942854l9.87301176 10.08013707 9.80396957-10.01109611z" p-id="2198"></path><path d="M447.79090132 819.58229333l42.94414974-214.23745343h69.04204128l42.94414974 214.23745343-77.46516977 42.59893885z" p-id="2199"></path></svg>