<?xml version="1.0" standalone="no"?><!DOCTYPE svg PUBLIC "-//W3C//DTD SVG 1.1//EN" "http://www.w3.org/Graphics/SVG/1.1/DTD/svg11.dtd"><svg t="1594779480606" class="icon" viewBox="0 0 1024 1024" version="1.1" xmlns="http://www.w3.org/2000/svg" p-id="4327" xmlns:xlink="http://www.w3.org/1999/xlink" width="128" height="128"><defs><style type="text/css"></style></defs><path d="M387.513216 383.95925c15.698847 0 28.496722 11.797885 28.496721 26.396743 0 17.697827 14.29886 31.996688 31.996688 31.996687s31.996688-14.29886 31.996687-31.996687c0-49.794514-41.495595-90.390117-92.489096-90.390118h-68.793329v-31.996687c0-17.697827-14.29886-31.996688-31.996687-31.996688s-31.996688 14.29886-31.996688 31.996688v31.996687h-66.292352c-50.994502 0-92.490097 40.595604-92.490097 90.389118v8.699915c0 49.794514 41.495595 90.390117 92.489097 90.390117h66.293352v68.493331h-66.292352c-15.698847 0-28.497722-11.799885-28.497722-26.397742 0-17.697827-14.29786-31.996688-31.995687-31.996688S95.944063 533.842787 95.944063 551.540614c0 49.794514 41.495595 90.390117 92.489097 90.390117h66.293352v29.996707c0 17.698827 14.29886 31.996688 31.996688 31.996688s31.996688-14.29786 31.996688-31.996688v-29.996707h68.792328c50.994502 0 92.490097-40.595604 92.490096-90.389117v-15.599848c0-49.793514-41.495595-90.389117-92.489096-90.389117h-68.793328v-61.593399h68.792328z m0 125.585774c15.698847 0 28.496722 11.799885 28.496721 26.397742v15.597848c0 14.598857-12.797875 26.397742-28.496721 26.397742H318.721887V509.545024h68.792329z m-132.685705-63.993375h-66.292352c-15.698847 0-28.497722-11.797885-28.497722-26.396742v-8.699915c0-14.597857 12.799875-26.396742 28.497722-26.396743h66.292352v61.4934zM256.0275 159.982438a31.999688 31.999688 0 1 0 63.993375 0 31.999688 31.999688 0 1 0-63.993375 0zM1007.347163 696.925194h-49.994512c-4.599955-16.497839-11.099892-32.196686-19.298812-46.794543l35.296656-35.296655c6.499937-6.499937 6.499937-16.997834 0-23.497771l-56.993444-56.993443c-3.199969-3.199969-7.499927-4.799953-11.699886-4.799953-4.298958 0-8.498917 1.599984-11.697885 4.799953l-35.296656 35.295655c-14.597857-8.19892-30.296704-14.697856-46.794543-19.297811v-49.994512c0-9.098911-7.499927-16.597838-16.598838-16.597838H713.67803c-9.098911 0-16.597838 7.498927-16.597837 16.597838v49.994512c-16.497839 4.599955-32.196686 11.099892-46.795543 19.297811l-35.295656-35.195656c-3.199969-3.199969-7.499927-4.799953-11.698886-4.799953s-8.499917 1.599984-11.698885 4.799953l-56.993444 56.993443c-6.399938 6.499937-6.399938 16.998834 0 23.497771l35.295656 35.295655c-8.19892 14.599857-14.697856 30.297704-19.297812 46.795543h-49.994512c-9.098911 0-16.597838 7.499927-16.597838 16.597838v80.591213c0 9.099911 7.498927 16.598838 16.597838 16.598838h49.994512c4.599955 16.497839 11.099892 32.196686 19.297812 46.794543l-35.295656 35.296655c-6.399938 6.499937-6.399938 16.997834 0 23.497771l56.993444 56.993443c3.199969 3.199969 7.499927 4.799953 11.699885 4.799953s8.497917-1.599984 11.697886-4.799953l35.295656-35.296655c14.599857 8.19992 30.297704 14.698856 46.795543 19.298811v49.994512c0 9.098911 7.499927 16.597838 16.597837 16.597838h80.591213c9.099911 0 16.598838-7.499927 16.598838-16.597838v-49.994512c16.497839-4.599955 32.196686-11.099892 46.794543-19.298811l35.296656 35.296655c3.199969 3.199969 7.499927 4.799953 11.698885 4.799953 4.299958 0 8.498917-1.599984 11.698886-4.799953l56.993444-56.993443c6.499937-6.499937 6.499937-16.998834 0-23.497771l-35.296656-35.296655c8.19992-14.597857 14.698856-30.296704 19.298812-46.794543h49.994512c9.098911 0 16.597838-7.499927 16.597838-16.598838V713.623031c0-9.19891-7.499927-16.697837-16.597838-16.697837z m-111.588911 96.589057c-3.199969 11.499888-7.698925 22.49778-13.397869 32.596682l-20.297802 35.896649-35.896649 20.297802c-10.098901 5.699944-20.997795 10.1989-32.595682 13.398869l-39.696612 11.097892-39.695612-11.097892c-11.498888-3.199969-22.49778-7.699925-32.596682-13.399869l-35.89565-20.296802-20.297801-35.896649c-5.699944-10.098901-10.1999-20.997795-13.398869-32.595682l-10.998893-39.696613 11.099892-39.695612c3.198969-11.498888 7.697925-22.49778 13.397869-32.596682l20.297801-35.895649 35.89565-20.297802c10.099901-5.699944 20.997795-10.1999 32.596682-13.398869l39.695612-11.098892 39.695612 11.099892c11.499888 3.198969 22.49778 7.697925 32.596682 13.397869l35.896649 20.297802 20.297802 35.895649c5.699944 10.099901 10.1989 20.997795 13.398869 32.596682l11.097892 39.695612-11.197891 39.696613z" fill="" p-id="4328"></path><path d="M753.873638 652.629627c-55.893454 0-101.289011 45.295558-101.289011 101.289011 0 55.894454 45.295558 101.289011 101.289011 101.28901 55.894454 0 101.289011-45.294558 101.289011-101.28901 0-55.993453-45.294558-101.289011-101.289011-101.289011z m0 138.485647c-20.597799 0-37.295636-16.698837-37.295636-37.296636s16.697837-37.295636 37.295636-37.295635 37.296636 16.697837 37.296636 37.295635-16.698837 37.296636-37.296636 37.296636zM411.010986 799.71419l-283.269233 0.199998c-16.998834 0-32.996678-6.599936-44.995561-18.597818-11.998883-11.999883-18.597818-27.997727-18.597818-44.995561V293.468134c0-16.997834 6.599936-32.995678 18.597818-44.99456L248.528573 82.591193c24.796758-24.797758 65.192363-24.797758 89.989121 0l166.183377 166.182378c11.998883 11.998883 18.597818 27.996727 18.597819 44.99456v155.183485c0 17.697827 14.29886 31.996688 31.996687 31.996687s31.996688-14.29886 31.996688-31.996687V293.768131c0-34.095667-13.29987-66.092355-37.396635-90.189119L383.714253 37.394635c-49.695515-49.794514-130.686724-49.794514-180.381239 0L37.450634 203.178016C13.35487 227.275781 0.054999 259.372467 0.054999 293.468134v442.852675c0 34.096667 13.29887 66.193354 37.395635 90.290119 24.097765 24.097765 56.094452 37.296636 90.191119 37.296635h0.1l283.269233-0.199998c17.697827 0 31.996688-14.398859 31.996688-31.996687 0-17.697827-14.29886-31.996688-31.996688-31.996688z" fill="" p-id="4329"></path></svg>