<?xml version="1.0" encoding="utf-8"?>
<!-- Generator: Adobe Illustrator 24.2.0, SVG Export Plug-In . SVG Version: 6.00 Build 0)  -->
<svg version="1.1" xmlns="http://www.w3.org/2000/svg" xmlns:xlink="http://www.w3.org/1999/xlink" x="0px" y="0px"
	 viewBox="0 0 1024 1024" style="enable-background:new 0 0 1024 1024;" xml:space="preserve">
<g id="_x31_">
</g>
<g id="图层_2">
	<g>
		<path d="M960,512.5c0-0.17,0-0.33,0-0.5c0-247.42-200.58-448-448-448c-117.32,0-224.09,45.1-303.95,118.9l72.41,108.24
			c1.74-1.82,3.49-3.63,5.27-5.41c29.43-29.43,63.67-52.52,101.76-68.63C426.85,200.44,468.74,192,512,192s85.15,8.44,124.52,25.09
			c38.09,16.11,72.33,39.2,101.76,68.63s52.52,63.66,68.63,101.76C823.56,426.85,832,468.74,832,512c0,0.17-0.01,0.33-0.01,0.5
			h-63.84l128.02,191.38L1024.2,512.5H960z"/>
		<path d="M738.37,738.91c-29.43,29.43-63.67,52.52-101.76,68.63c-39.37,16.65-81.26,25.09-124.52,25.09s-85.15-8.44-124.52-25.09
			c-38.09-16.11-72.33-39.2-101.76-68.63s-52.52-63.66-68.63-101.76c-16.65-39.37-25.09-81.26-25.09-124.52
			c0-0.17,0.01-0.33,0.01-0.5h63.84L127.92,320.75L-0.1,512.13h64.2c0,0.17,0,0.33,0,0.5c0,247.42,200.58,448,448,448
			c117.32,0,224.09-45.1,303.95-118.9l-72.41-108.24C741.91,735.31,740.16,737.12,738.37,738.91z"/>
	</g>
</g>
</svg>
