<?xml version="1.0" standalone="no"?><!DOCTYPE svg PUBLIC "-//W3C//DTD SVG 1.1//EN" "http://www.w3.org/Graphics/SVG/1.1/DTD/svg11.dtd"><svg t="1592190556088" class="icon" viewBox="0 0 1024 1024" version="1.1" xmlns="http://www.w3.org/2000/svg" p-id="1817" xmlns:xlink="http://www.w3.org/1999/xlink" width="128" height="128"><defs><style type="text/css"></style></defs><path d="M1018.72468765 630.32437419a31.82887253 31.82887253 0 0 0-12.35666603-20.97266574L751.45395883 417.27642738 895.21743303 219.39501625c4.99881757-6.84643442 7.01651741-15.38438258 5.68148082-23.73593657C884.53713465 93.9154944 797.94494123 20.06789803 695.02242361 20.06789803c-11.11482595 0-22.35430115 0.90050901-33.4073856 2.67007431a31.71820203 31.71820203 0 0 0-20.0255579 11.87554076l-147.0055424 189.10581305L244.46016626 35.23559765c-6.70664021-5.07570403-15.05819534-7.2343643-23.5646885-6.08571847a31.90808917 31.90808917 0 0 0-20.95752192 12.35666603L7.67511666 296.67107271c-10.555648 14.01789099-7.76208839 33.95025351 6.27211264 44.52221156l245.50705948 184.99585479-94.70959275 121.83205091a31.74383047 31.74383047 0 0 0-6.00766805 12.94729899l-63.32107321 300.21446315a31.79974883 31.79974883 0 0 0 11.30121899 31.43511722 31.82188317 31.82188317 0 0 0 19.80887723 6.92332203c4.53283613 0 9.09712611-0.96225166 13.36551651-2.94966386l279.86271687-129.60811918a31.46074681 31.46074681 0 0 0 12.35666717-10.15257315l94.14808462-129.58948011 249.54828459 188.06783886a31.61335581 31.61335581 0 0 0 19.09476124 6.39559794c9.65630293 0 19.15650275-4.36275314 25.4286154-12.65140053l192.30827064-255.16452751a31.83353173 31.83353173 0 0 0 6.08571962-23.56468963zM683.65946197 84.08794339c71.06801664-5.34014862 134.96457671 41.37101085 151.91582265 109.24122795l-61.28706332 84.35664669c-14.84034845-29.39295403-36.59236921-55.01029149-64.05149924-74.84013796-27.11779897-19.61665991-57.87374819-32.15156451-90.02764288-37.13523712l63.45038279-81.62249956zM77.59448974 309.54032014l154.01157405-204.38651449 41.57953706 31.33493134-32.11079111 42.61984143c-10.55681309 14.01789099-7.76208839 33.95025351 6.27094756 44.52221041a31.62034517 31.62034517 0 0 0 19.09476011 6.39559794c9.65630293 0 19.18795662-4.36158805 25.4274503-12.66770944l32.09681238-42.60236743 47.02802602 35.4402304-29.97659534 39.76104391c-10.555648 14.01789099-7.76208839 33.95025351 6.27211264 44.52221042a31.53413917 31.53413917 0 0 0 19.09476011 6.41190684c9.65630293 0 19.15650275-4.36275314 25.42745031-12.65140053l29.97776043-39.76337294 33.76735573 25.44725447L298.48374158 475.98195371 77.59448974 309.54032014z m135.1008768 403.67635456a32.75850525 32.75850525 0 0 0 2.20642304-0.2586203c66.19384946-10.71175225 129.15844665 34.63408185 139.86903268 101.09121081a31.65412921 31.65412921 0 0 0 4.01676174 11.10084608l-188.06667378 87.10244352 41.97445632-199.03588011z m198.54543417 64.16915911c-23.25248114-73.44685283-90.07307549-124.7386112-166.06651733-129.23766328l326.80104163-420.39111453c35.81418041-4.01792569 71.52584363 5.31917938 101.03529358 26.62735303 28.78601216 20.79326322 48.57275619 50.73607566 56.41639026 85.04862948l-45.9760731 63.28262997c-0.54985842 0.62325077-272.2101339 374.67016533-272.21013504 374.67016533z m377.45207638 68.00535325L563.64007993 675.79136341l150.4351653-207.06474325 33.04042496 24.89506589-33.83608776 44.91130538c-10.555648 14.01789099-7.76208839 33.95025351 6.27211151 44.52221156a31.61335581 31.61335581 0 0 0 19.09476011 6.3955968c9.65630293 0 19.18679154-4.36275314 25.4274503-12.66770944l33.82676936-44.89732665 44.78432483 33.74405745-31.88478976 42.3099631c-10.555648 14.03303595-7.76208839 33.96656242 6.27211151 44.53735538a31.61335581 31.61335581 0 0 0 19.09476124 6.3955968c9.65513899 0 19.18795662-4.36275314 25.42745031-12.6513994l31.8894501-42.31578852 49.23794432 37.10028914-154.02904917 204.38534941z" p-id="1818"></path></svg>