<?xml version="1.0" standalone="no"?><!DOCTYPE svg PUBLIC "-//W3C//DTD SVG 1.1//EN" "http://www.w3.org/Graphics/SVG/1.1/DTD/svg11.dtd"><svg t="1592190867657" class="icon" viewBox="0 0 1024 1024" version="1.1" xmlns="http://www.w3.org/2000/svg" p-id="4544" xmlns:xlink="http://www.w3.org/1999/xlink" width="128" height="128"><defs><style type="text/css"></style></defs><path d="M288 1010.56H108.16a104.96 104.96 0 0 1-104.96-104.96V110.08A104.96 104.96 0 0 1 108.16 5.12h750.08a105.6 105.6 0 0 1 105.6 104.96v298.24a32 32 0 1 1-64 0V110.08a41.6 41.6 0 0 0-41.6-41.6H108.16a41.6 41.6 0 0 0-44.16 41.6v795.52a41.6 41.6 0 0 0 41.6 41.6H288a32 32 0 0 1 0 64z" p-id="4545"></path><path d="M731.52 256H210.56a32 32 0 1 1 0-64h520.96a32 32 0 1 1 0 64zM452.48 448H210.56a32 32 0 0 1 0-64h241.92a32 32 0 0 1 0 64zM711.04 733.44a192 192 0 1 1 192-192 192 192 0 0 1-192 192z m0-325.12a128 128 0 1 0 128 131.2 128 128 0 0 0-128-131.2z" p-id="4546"></path><path d="M988.16 1010.56a32 32 0 0 1-32-32 245.12 245.12 0 0 0-490.24 0 32 32 0 1 1-64 0 308.48 308.48 0 0 1 616.96 0 31.36 31.36 0 0 1-30.72 32z" p-id="4547"></path></svg>