<?xml version="1.0" standalone="no"?><!DOCTYPE svg PUBLIC "-//W3C//DTD SVG 1.1//EN" "http://www.w3.org/Graphics/SVG/1.1/DTD/svg11.dtd"><svg t="1580807572546" class="icon" viewBox="0 0 1254 1024" version="1.1" xmlns="http://www.w3.org/2000/svg" p-id="2360" xmlns:xlink="http://www.w3.org/1999/xlink" width="156.75" height="128"><defs><style type="text/css"></style></defs><path d="M715.294118 180.705882h128c15.058824 0 30.117647-12.54902 30.117647-30.117647 0-15.058824-12.54902-30.117647-30.117647-30.117647h-128c-15.058824 0-30.117647 12.54902-30.117647 30.117647s12.54902 30.117647 30.117647 30.117647zM1104.313725 0c-82.823529 0-150.588235 67.764706-150.588235 153.098039 0 82.823529 67.764706 153.098039 150.588235 153.098039s150.588235-67.764706 150.588236-153.098039C1254.901961 67.764706 1187.137255 0 1104.313725 0z m0 245.960784c-50.196078 0-92.862745-42.666667-92.862745-92.862745s40.156863-92.862745 92.862745-92.862745c50.196078 0 92.862745 42.666667 92.862746 92.862745S1154.509804 245.960784 1104.313725 245.960784z m-376.470588 240.941177h-188.235294c-7.529412 0-160.627451-22.588235-160.627451-163.137255 0-135.529412 140.54902-140.54902 155.607843-140.54902h47.686275c15.058824 0 27.607843-15.058824 27.607843-30.117647s-12.54902-27.607843-27.607843-30.117647h-47.686275c-72.784314 0-213.333333 42.666667-213.333333 200.784314 0 155.607843 138.039216 213.333333 213.333333 223.372549h188.235294c7.529412 0 160.627451 22.588235 160.627451 163.137255 0 135.529412-140.54902 140.54902-155.607843 140.549019H298.666667c-10.039216-75.294118-72.784314-130.509804-148.078432-130.509804-82.823529 0-150.588235 67.764706-150.588235 153.09804 0 82.823529 67.764706 150.588235 150.588235 150.588235 70.27451 0 130.509804-50.196078 145.568628-115.45098H727.843137c75.294118 0 213.333333-42.666667 213.333334-200.784314 0-155.607843-138.039216-213.333333-213.333334-220.862745zM150.588235 966.27451c-50.196078 0-92.862745-42.666667-92.862745-92.862745C57.72549 820.705882 100.392157 778.039216 150.588235 778.039216s92.862745 42.666667 92.862745 92.862745C240.941176 923.607843 200.784314 966.27451 150.588235 966.27451z" p-id="2361"></path></svg>