<svg t="1592186857027" class="icon" viewBox="0 0 1024 1024" version="1.1" xmlns="http://www.w3.org/2000/svg" p-id="1227" width="128" height="128"><path d="M444.66622464 335.12040309l50.31887063-105.31330508a18.85308003 18.85308003 0 0 1 34.02980946 0l50.31887063 105.31330508H964.47392089a47.1327001 47.1327001 0 0 1 47.1327001 47.13270009V945.62084086a47.1327001 47.1327001 0 0 1-47.1327001 47.13270009H59.52607911a47.1327001 47.1327001 0 0 1-47.1327001-47.13270009V382.25310318a47.1327001 47.1327001 0 0 1 47.1327001-47.13270009h385.14014553zM106.65877919 429.06530092v469.74334219h810.68244162V429.06530092H106.65877919z m188.53080038 338.21482932c-57.26623061 0-103.69194019-46.2654584-103.6919402-103.34315823 0-57.07769981 46.42570958-103.34315823 103.6919402-103.3431582s103.69194019 46.2654584 103.69194022 103.3431582c0 57.07769981-46.42570958 103.34315823-103.69194022 103.34315823z m362.9217907-206.68631643a32.99289006 32.99289006 0 0 1 32.99289009 32.99289006v140.70053631a32.99289006 32.99289006 0 1 1-65.98578015 0V593.58670387a32.99289006 32.99289006 0 0 1 32.99289006-32.99289006z m131.97156029 0a32.99289006 32.99289006 0 0 1 32.99289006 32.99289006v140.70053631a32.99289006 32.99289006 0 1 1-65.98578014 0V593.58670387a32.99289006 32.99289006 0 0 1 32.99289008-32.99289006z m-471.91144643-384.97989438a47.21753895 47.21753895 0 0 1-64.12875175-18.12723645 46.88761006 46.88761006 0 0 1 18.19322224-63.91194133c148.9393323-82.85928676 312.58406702-82.85928676 486.07953606-1.48939332a46.90646313 46.90646313 0 0 1 22.57656335 62.49796033 47.19868587 47.19868587 0 0 1-62.71477076 22.51057756c-147.01631812-68.9457137-278.72393527-68.9457137-400.00579914-1.48939332z" p-id="1228"></path></svg>