<?xml version="1.0" standalone="no"?><!DOCTYPE svg PUBLIC "-//W3C//DTD SVG 1.1//EN" "http://www.w3.org/Graphics/SVG/1.1/DTD/svg11.dtd"><svg t="1592190301644" class="icon" viewBox="0 0 1024 1024" version="1.1" xmlns="http://www.w3.org/2000/svg" p-id="1757" xmlns:xlink="http://www.w3.org/1999/xlink" width="128" height="128"><defs><style type="text/css"></style></defs><path d="M840.1664 634.58346667c-9.11146667 0-18.05546667-4.38826667-23.5552-12.528-8.83306667-12.99946667-5.3888-30.69333333 7.61173333-39.472 68.72213333-46.44266667 142.8896-151.16693333 142.8896-239.30453334 0-141.11146667-114.77866667-255.9168-255.89013333-255.9168-67.33333333 0-131.00053333 26.1376-179.27786667 73.55626667a28.43626667 28.43626667 0 0 1-39.888 0c-48.224-47.44533333-111.89013333-73.55733333-179.22346666-73.55733333-141.11146667 0-255.94453333 114.80533333-255.94453334 255.91786666 0 97.5552 54.22186667 185.2768 141.49973334 228.97173334 14.05546667 7.02933333 19.72266667 24.13866667 12.7232 38.16746666-7.056 14.10986667-24.1664 19.69386667-38.16746667 12.72213334C66.27733333 569.72266667 0 462.50026667 0 343.27893333 0 170.80533333 140.3328 30.4704 312.832 30.4704c73.39093333 0 143.168 25.3344 199.168 71.86133333 56.05546667-46.52693333 125.83253333-71.86026667 199.22133333-71.86026666C883.66826667 30.47253333 1024 170.80533333 1024 343.2768c0 108.25066667-85.38986667 230.63786667-167.88906667 286.416a28.3808 28.3808 0 0 1-15.94453333 4.89066667z" p-id="1758"></path><path d="M794.55466667 731.584c-23.4432 0-45.4432-9.14026667-62-25.696L624.05546667 597.4176c-11.11146667-11.1104-11.11146667-29.1104 0-40.22186667 11.11146667-11.1104 29.11146667-11.1104 40.22186666 0l108.4992 108.4736c11.66613333 11.66613333 31.89013333 11.63733333 43.55626667-0.0288 12-11.97226667 12-31.52746667 0-43.52746666L504.88853333 319.3888c-11.2768-10.944-11.49866667-28.94506667-0.55466666-40.22293333 10.99946667-11.25013333 28.99946667-11.49973333 40.22186666-0.55573334l311.72266667 303.0016c34.44266667 34.47146667 34.44266667 90.0832 0.27733333 124.27733334-16.6112 16.58346667-38.6112 25.69386667-62 25.69386666z" p-id="1759"></path><path d="M721.27786667 826.64c-22.44373333 0-44.8896-8.52906667-62-25.64053333l-55.44533334-55.472c-11.1104-11.1104-11.1104-29.1104 0-40.22186667 11.11253333-11.11146667 29.11253333-11.11146667 40.224 0l55.44533334 55.472c12 12 31.55413333 12 43.55413333 0 5.83466667-5.8336 9.056-13.5552 9.056-21.77813333 0-8.2496-3.22346667-15.9712-9.056-21.776l-147.11253333-147.168c-11.1104-11.11146667-11.1104-29.11146667 0-40.22186667s29.11253333-11.1104 40.224 0l147.1104 147.1392c16.55573333 16.55573333 25.72266667 38.58346667 25.72266666 62.02666667 0 23.4176-9.168 45.44426667-25.72266666 62.0288-17.1104 17.08266667-39.55626667 25.61066667-62 25.61066666z" p-id="1760"></path><path d="M637.3888 910.58346667c-23.44533333 0-45.44426667-9.1392-62-25.69386667l-13.55626667-13.61066667c-11.1104-11.11146667-11.1104-29.11146667 0-40.22293333 11.11146667-11.05493333 29.11146667-11.11253333 40.224 0.05546667l13.55413334 13.584c11.6672 11.6096 31.88906667 11.63733333 43.55626666-0.0288 12-12 12-31.58293333 0-43.584l-29.2224-29.22026667c-11.1104-11.11253333-11.1104-29.11253333 0-40.22293333s29.11253333-11.11146667 40.224 0l29.22133334 29.2224c34.16746667 34.19413333 34.16746667 89.8336 0 124.02773333-16.5568 16.55466667-38.5568 25.69386667-62.00106667 25.69386667z" p-id="1761"></path><path d="M554.4448 993.52853333c-23.44533333 0-45.44426667-9.14133333-62-25.69493333l-13.55626667-13.61066667c-11.1104-11.11146667-11.1104-29.11146667 0-40.22293333 11.11146667-11.05493333 29.11146667-11.11253333 40.224 0.05546667l13.55413334 13.584c11.6672 11.6096 31.88906667 11.63733333 43.55626666-0.0288 12-12 12-31.58293333 0-43.584l-11.77493333-11.77493334c-11.11146667-11.1104-11.11146667-29.10933333 0-40.2208s29.11253333-11.11146667 40.224 0l11.77386667 11.776c34.16746667 34.19306667 34.16746667 89.83253333 0 124.02666667-16.5568 16.55466667-38.5568 25.69386667-62.00106667 25.69386667zM234.88853333 699.4432c-23.3888 0-45.3888-9.11146667-62-25.66613333-34.1664-34.22186667-34.1664-89.83466667 0-124.02773334l93.44426667-93.44426666c33.27786667-33.19466667 90.94506667-33.08373333 124 0 16.55573333 16.55573333 25.72266667 38.5824 25.72266667 62s-9.168 45.44426667-25.72266667 62.02773333l-93.4432 93.41653333c-16.55466667 16.55466667-38.55466667 25.69386667-62 25.69386667z m93.44426667-211.94453333c-8.22186667 0-15.94346667 3.22133333-21.77706667 9.056l-93.4432 93.41546666c-12 12-12 31.55626667 0 43.55626667 11.66506667 11.61066667 31.888 11.66613333 43.5552 0l93.44426667-93.44426667c5.83253333-5.83466667 9.056-13.55626667 9.056-21.77706666s-3.22346667-15.9456-9.056-21.74933334c-5.83466667-5.86133333-13.55626667-9.056-21.7792-9.056z" p-id="1762"></path><path d="M318.66666667 783.22346667c-23.38986667 0-45.3888-9.11253333-62-25.6672-34.1664-34.19413333-34.1664-89.80586667 0-124.02773334l93.44426666-93.44426666c33.27786667-33.19466667 90.88853333-33.10933333 124.05546667-0.02773334 34.1664 34.22293333 34.1664 89.8336 0 124.02773334l-93.5008 93.44426666c-16.55466667 16.55466667-38.55466667 25.69493333-62 25.69493334z m93.44426666-211.9456c-8.22293333 0-15.94453333 3.22346667-21.77813333 9.056l-93.4432 93.41653333c-12 12-12 31.5552 0 43.5552 11.6672 11.61173333 31.88906667 11.66613333 43.55626667 0l93.49973333-93.4432c12-12 12-31.55626667 0-43.55626667-5.8336-5.80586667-13.5552-9.02826667-21.8336-9.02826666z" p-id="1763"></path><path d="M402.44373333 867.02826667c-23.3888 0-45.3888-9.11253333-62-25.6672-34.1664-34.22186667-34.1664-89.86026667 0-124.05546667l93.49973334-93.4432c33.056-33.056 90.7232-33.19466667 124-0.0288 34.16853333 34.22186667 34.16853333 89.83466667 0 124.0288l-93.49973334 93.472c-16.55573333 16.55466667-38.55466667 25.69386667-62 25.69386667z m93.49973334-211.97226667c-8.22186667 0-15.94346667 3.19466667-21.776 9.0272l-93.5008 93.44533333c-12 12-12 31.58293333 0 43.58293334 11.66613333 11.61066667 31.89013333 11.66506667 43.55626666 0l93.49973334-93.472c12-12 12-31.5552 0-43.55626667-5.83466667-5.8048-13.55733333-9.0272-21.77813334-9.0272z" p-id="1764"></path><path d="M486.22186667 950.80533333c-23.38986667 0-45.3888-9.11146667-62-25.66613333-34.1664-34.22186667-34.1664-89.83466667 0-124.02773333l93.49973333-93.472c33.056-33.08373333 90.77866667-33.16693333 124-0.02773334 34.16746667 34.25066667 34.16746667 89.86026667 0 124.0288l-93.4432 93.47093334c-16.6112 16.58346667-38.61333333 25.69493333-62.05653333 25.69493333z m93.49973333-211.97226666c-8.22186667 0-15.94346667 3.19466667-21.77706667 9.02826666l-93.49973333 93.472c-12 12-12 31.55413333 0 43.5552 11.66613333 11.61066667 31.94453333 11.584 43.61066667-0.02773333l93.44426666-93.44426667c12-12 12-31.5552 0-43.5552-5.83253333-5.80586667-13.55626667-9.02826667-21.77813333-9.02826666zM379.3344 433.94453333c-23.38986667 0-45.38986667-9.11146667-62-25.66613333-34.16746667-34.22293333-34.16746667-89.8336 0-124.0288l175.22133333-164.35946667c11.3888-10.69546667 29.4432-10.1952 40.1664 1.27786667 10.77653333 11.472 10.22186667 29.472-1.27786666 40.224L356.88853333 325.11146667c-11.33333333 11.36-11.33333333 30.9152 0.66666667 42.91626666 11.6672 11.61066667 31.88906667 11.66613333 43.55626667 0l105.05493333-90.5824c11.94453333-10.16746667 29.888-8.89066667 40.11093333 2.99946667 10.22293333 11.88906667 8.8896 29.86026667-3.00053333 40.11093333l-103.49973333 89.14026667c-15.00053333 15.10826667-36.99946667 24.24746667-60.44266667 24.24746667z" p-id="1765"></path></svg>