<?xml version="1.0" standalone="no"?><!DOCTYPE svg PUBLIC "-//W3C//DTD SVG 1.1//EN" "http://www.w3.org/Graphics/SVG/1.1/DTD/svg11.dtd"><svg t="1577949443150" class="icon" viewBox="0 0 1024 1024" version="1.1" xmlns="http://www.w3.org/2000/svg" p-id="1908" xmlns:xlink="http://www.w3.org/1999/xlink" width="128" height="128"><defs><style type="text/css"></style></defs><path d="M512 981.333333C252.8 981.333333 42.666667 771.2 42.666667 512S252.8 42.666667 512 42.666667s469.333333 210.133333 469.333333 469.333333-210.133333 469.333333-469.333333 469.333333zM130.346667 469.333333a388.224 388.224 0 0 0 0 85.333334H512v-85.333334H130.346667z m62.314666-170.666666a382.634667 382.634667 0 0 0-42.816 85.333333H512v-85.333333H192.661333zM512 128a382.4 382.4 0 0 0-241.386667 85.333333H512V128zM270.613333 810.666667c65.962667 53.376 149.930667 85.333333 241.386667 85.333333v-85.333333H270.613333z m-120.746666-170.666667a382.634667 382.634667 0 0 0 42.794666 85.333333H512v-85.333333H149.845333z" p-id="1909"></path></svg>