<?xml version="1.0" standalone="no"?><!DOCTYPE svg PUBLIC "-//W3C//DTD SVG 1.1//EN" "http://www.w3.org/Graphics/SVG/1.1/DTD/svg11.dtd"><svg t="1577243658039" class="icon" viewBox="0 0 1024 1024" version="1.1" xmlns="http://www.w3.org/2000/svg" p-id="4585" xmlns:xlink="http://www.w3.org/1999/xlink" width="128" height="128"><defs><style type="text/css"></style></defs><path d="M384 640c-23.466667 0-42.666667 19.2-42.666667 42.666667 0 23.466667 19.2 42.666667 42.666667 42.666667s42.666667-19.2 42.666667-42.666667C426.666667 659.2 407.466667 640 384 640zM256 853.333333c-23.466667 0-42.666667 19.2-42.666667 42.666667 0 23.466667 19.2 42.666667 42.666667 42.666667s42.666667-19.2 42.666667-42.666667C298.666667 872.533333 279.466667 853.333333 256 853.333333zM170.666667 725.333333c-23.466667 0-42.666667 19.2-42.666667 42.666667s19.2 42.666667 42.666667 42.666667 42.666667-19.2 42.666667-42.666667S194.133333 725.333333 170.666667 725.333333zM512 810.666667c-23.466667 0-42.666667 19.2-42.666667 42.666667s19.2 42.666667 42.666667 42.666667 42.666667-19.2 42.666667-42.666667S535.466667 810.666667 512 810.666667zM725.333333 896c-23.466667 0-42.666667 19.2-42.666667 42.666667s19.2 42.666667 42.666667 42.666667 42.666667-19.2 42.666667-42.666667S748.8 896 725.333333 896zM725.333333 725.333333c0-23.466667-19.2-42.666667-42.666667-42.666667s-42.666667 19.2-42.666667 42.666667c0 23.466667 19.2 42.666667 42.666667 42.666667S725.333333 748.8 725.333333 725.333333zM853.333333 262.4c0-2.133333 0-4.266667 0-6.4 0-70.4-57.6-128-128-128-32 0-61.866667 12.8-83.2 32C595.2 89.6 516.266667 42.666667 426.666667 42.666667 298.666667 42.666667 192 136.533333 172.8 260.266667 98.133333 279.466667 42.666667 345.6 42.666667 426.666667c0 93.866667 76.8 170.666667 170.666667 170.666667l597.333333 0c93.866667 0 170.666667-76.8 170.666667-170.666667C981.333333 347.733333 925.866667 279.466667 853.333333 262.4zM810.666667 554.666667 213.333333 554.666667c-70.4 0-128-57.6-128-128 0-59.733333 40.533333-110.933333 98.133333-123.733333 17.066667-4.266667 29.866667-17.066667 32-36.266667C230.4 164.266667 322.133333 85.333333 426.666667 85.333333c72.533333 0 117.333333 14.933333 157.866667 76.8 6.4 10.666667 38.4 38.4 51.2 40.533333 2.133333 0 6.4 0 6.4 0 10.666667 0 19.2-4.266667 27.733333-10.666667C684.8 179.2 704 170.666667 725.333333 170.666667c46.933333 0 85.333333 38.4 85.333333 85.333333l0 2.133333c0 19.2 12.8 38.4 32 42.666667 57.6 14.933333 96 66.133333 96 123.733333C938.666667 497.066667 881.066667 554.666667 810.666667 554.666667zM853.333333 768c-23.466667 0-42.666667 19.2-42.666667 42.666667 0 23.466667 19.2 42.666667 42.666667 42.666667s42.666667-19.2 42.666667-42.666667C896 787.2 876.8 768 853.333333 768z" p-id="4586"></path></svg>