<?xml version="1.0" standalone="no"?><!DOCTYPE svg PUBLIC "-//W3C//DTD SVG 1.1//EN" "http://www.w3.org/Graphics/SVG/1.1/DTD/svg11.dtd"><svg t="1594627291979" class="icon" viewBox="0 0 1117 1024" version="1.1" xmlns="http://www.w3.org/2000/svg" p-id="6112" xmlns:xlink="http://www.w3.org/1999/xlink" width="139.625" height="128"><defs><style type="text/css"></style></defs><path d="M0 424.103564c0 58.498327 44.590545 107.240727 104.727273 121.334691v413.118836h-69.818182C15.676509 958.557091 0 972.613818 0 990.0032s15.676509 31.427491 34.909091 31.427491h1047.272727c19.362909 0 34.909091-14.075345 34.909091-31.427491 0-17.352145-15.546182-31.427491-34.909091-31.427491h-69.818182v-413.137454C1072.500364 531.362909 1117.090909 482.583273 1117.090909 424.103564V392.657455H0v31.42749z m698.181818 125.7472c77.190982 0 139.636364-56.301382 139.636364-125.7472 0 58.498327 44.590545 107.240727 104.727273 121.334691v413.118836H418.909091V549.850764c77.190982 0 139.636364-56.301382 139.636364-125.7472 0 69.445818 62.575709 125.7472 139.636363 125.7472z m-314.181818-4.412509v413.118836H174.545455v-413.137455C234.682182 531.362909 279.272727 482.620509 279.272727 424.122182c0 58.498327 44.590545 107.240727 104.727273 121.334691zM977.454545 109.716945h-837.818181L0 361.211345h1117.090909L977.454545 109.716945zM294.949236 179.590982l-69.818181 125.7472a17.910691 17.910691 0 0 1-15.67651 8.713309 18.338909 18.338909 0 0 1-7.763781-1.6384c-8.582982-3.853964-12.139055-13.330618-7.763782-21.075782l69.818182-125.7472c4.356655-7.726545 14.782836-10.873018 23.384436-7.074909 8.638836 3.8912 12.045964 13.349236 7.819636 21.075782z m139.636364 0l-69.818182 125.7472a17.910691 17.910691 0 0 1-15.676509 8.713309 18.338909 18.338909 0 0 1-7.763782-1.6384c-8.582982-3.853964-12.139055-13.330618-7.763782-21.075782l69.818182-125.7472c4.356655-7.726545 14.857309-10.873018 23.384437-7.074909 8.638836 3.8912 12.045964 13.349236 7.819636 21.075782z m141.423709 118.765382c0 8.713309-7.7824 15.713745-17.463854 15.713745-9.6256 0-17.463855-6.981818-17.463855-15.713745V172.590545c0-8.731927 7.838255-15.732364 17.463855-15.732363 9.681455 0 17.463855 6.981818 17.463854 15.732363v125.7472z m200.443346 13.758836a18.804364 18.804364 0 0 1-8.452655 1.954909c-6.144 0-12.139055-2.941673-15.266909-8.154764l-76.371782-125.7472c-4.635927-7.633455-1.489455-17.184582 6.944582-21.317818 8.322327-4.170473 19.083636-1.489455 23.738182 6.199855l76.371782 125.7472c4.486982 7.614836 1.489455 17.2032-6.9632 21.317818z m138.966109 0.297891a17.836218 17.836218 0 0 1-7.7824 1.6384c-6.404655 0-12.548655-3.183709-15.546182-8.713309l-69.818182-125.7472c-4.356655-7.726545-0.8192-17.184582 7.763782-21.057164 8.471273-3.872582 19.083636-0.744727 23.458909 7.056291l69.818182 125.7472c4.226327 7.745164 0.837818 17.221818-7.894109 21.075782z m-618.682182 462.289454v-72.424727c-10.24-5.566836-17.463855-15.136582-17.463855-26.661236 0-17.370764 15.676509-31.427491 34.909091-31.427491 19.362909 0 34.909091 14.075345 34.909091 31.427491 0 11.543273-7.168 21.131636-17.463854 26.661236v72.424727c10.295855 5.566836 17.463855 15.136582 17.463854 26.679855 0 17.389382-15.546182 31.427491-34.909091 31.427491-19.232582 0-34.909091-14.075345-34.909091-31.427491 0-11.543273 7.223855-21.131636 17.463855-26.679855zM139.636364 46.824727c0-17.370764 15.676509-31.427491 34.909091-31.427491h768c19.362909 0 34.909091 14.056727 34.90909 31.427491 0 17.389382-15.546182 31.446109-34.90909 31.446109H174.545455c-19.232582 0-34.909091-14.056727-34.909091-31.446109z m472.212945 671.3344l-24.669091-22.230109 98.732218-88.920436 24.669091 22.230109-98.732218 88.920436z m0 88.920437l-24.669091-22.230109 197.445818-177.840873 24.669091 22.230109-197.445818 177.840873z m172.795346-111.150546l24.66909 22.230109-98.732218 88.920437-24.669091-22.230109 98.732219-88.920437z" p-id="6113"></path></svg>