<?xml version="1.0" standalone="no"?><!DOCTYPE svg PUBLIC "-//W3C//DTD SVG 1.1//EN" "http://www.w3.org/Graphics/SVG/1.1/DTD/svg11.dtd"><svg t="1592292112491" class="icon" viewBox="0 0 1024 1024" version="1.1" xmlns="http://www.w3.org/2000/svg" p-id="2130" xmlns:xlink="http://www.w3.org/1999/xlink" width="128" height="128"><defs><style type="text/css"></style></defs><path d="M544.19911111 650.46755555l-0.79644444 7.85066667c0 0.79644445-0.11377778 1.70666667-0.11377778 2.61688889h-0.11377778l-3.86844444-7.96444444-3.41333334 1.59288888 8.64711112 17.52177778 3.41333333-1.82044444-2.95822223-5.91644444 0.45511112-2.38933334 7.85066666 5.80266667 3.75466667-1.93422223-10.58133333-7.28177777 1.59288888-10.12622223-3.86844444 2.048zM563.76888889 664.00711111c2.95822222-0.91022222 5.57511111-3.86844445 3.86844444-9.10222222-1.36533333-4.096-4.55111111-6.03022222-8.41955555-5.00622222-3.64088889 1.25155555-5.57511111 4.55111111-4.096 9.10222222 1.47911111 4.43733333 5.00622222 6.144 8.64711111 5.00622222z m-3.64088889-11.37777778c1.93422222-0.56888889 3.41333333 1.36533333 4.096 3.52711112 0.68266667 2.38933333 0.45511111 4.77866667-1.25155555 5.23377777-1.70666667 0.56888889-3.29955555-1.13777778-4.096-3.52711111-0.68266667-2.048-0.79644445-4.55111111 1.25155555-5.23377778zM518.144 666.85155555l7.96444445 18.65955556 2.84444444-2.38933333-2.16177778-4.89244445 4.096-3.29955555 4.32355556 3.072 3.072-2.38933333-16.49777778-11.71911112-3.64088889 2.95822222z m7.05422222 3.6408889l3.64088889 2.73066666-3.29955556 2.61688889-1.93422222-4.32355555c-0.56888889-1.13777778-1.25155555-2.61688889-1.70666666-3.6408889 0.91022222 0.79644445 2.16177778 1.70666667 3.29955555 2.6168889zM576.39822222 649.44355555c0.45511111 0 0.68266667-0.11377778 0.91022223-0.11377777l-0.68266667-3.52711111c-0.22755555 0-0.56888889 0-0.79644445 0.11377778-1.36533333 0.22755555-2.61688889 1.47911111-2.95822222 3.41333333h-0.11377778l-0.56888888-2.27555556-3.072 0.56888889c0.22755555 1.25155555 0.68266667 2.61688889 0.91022222 4.32355556l1.82044444 9.44355555 3.64088889-0.68266667-1.36533333-7.168c-0.45511111-2.27555555 0.56888889-3.75466667 2.27555555-4.096zM496.64 825.23022222c1.13777778-0.68266667 2.16177778-1.36533333 3.64088889-2.16177777l8.64711111-4.77866667-1.82044445-3.18577778-7.28177777 4.096c-1.93422222 1.13777778-3.29955555 0.11377778-3.75466667-0.68266667-0.79644445-1.36533333 0.11377778-2.61688889 1.59288889-3.41333333l7.168-3.86844445-1.70666667-3.29955555-7.62311111 4.20977778c-3.52711111 1.93422222-4.096 4.55111111-2.73066667 6.71288889 0.91022222 1.70666667 2.73066667 2.38933333 3.86844445 2.38933333l-1.59288889 1.13777778 1.59288889 2.84444444zM512.45511111 834.90133333c3.64088889-2.84444445 4.096-6.48533333 1.70666667-9.55733333-1.93422222-2.38933333-5.68888889-3.86844445-9.89866667-0.68266667-3.41333333 2.61688889-4.20977778 6.37155555-1.70666666 9.44355556 2.27555555 2.95822222 6.144 3.52711111 9.89866666 0.79644444z m-5.80266666-7.39555555c2.048-1.47911111 4.20977778-2.048 5.46133333-0.68266667 1.13777778 1.47911111 0 3.52711111-2.048 5.00622222-1.59288889 1.25155555-4.096 2.16177778-5.23377778 0.56888889-1.25155555-1.47911111 0.11377778-3.52711111 1.82044445-4.89244444zM506.99377778 683.23555555l-1.93422223-2.38933333c-0.91022222 0.45511111-2.16177778 1.25155555-3.29955555 2.73066667-2.61688889 3.41333333-2.16177778 6.94044445 0.22755555 8.76088889 2.048 1.36533333 4.55111111 0.91022222 7.39555556-0.56888889 2.048-1.13777778 3.41333333-1.36533333 4.43733334-0.56888889 1.13777778 0.91022222 1.25155555 2.38933333 0 4.096-0.91022222 1.25155555-2.38933333 2.16177778-3.52711112 2.73066667l2.048 2.61688888c0.91022222-0.45511111 2.61688889-1.59288889 3.75466667-3.072 2.84444445-3.52711111 2.38933333-7.168-0.11377778-9.216-2.048-1.59288889-4.32355555-1.59288889-7.28177777 0-2.38933333 1.25155555-3.41333333 1.59288889-4.55111112 0.68266667-0.91022222-0.68266667-1.13777778-2.048 0-3.52711111 0.91022222-1.25155555 2.048-1.93422222 2.84444445-2.27555556zM508.47288889 676.18133333l13.76711111 13.42577778 2.73066667-2.50311111-13.99466667-13.65333333zM490.496 701.09866667l14.22222222 14.44977778 1.70666667-3.41333334-3.75466667-3.64088889 2.61688889-4.55111111 5.12 1.36533334 1.93422222-3.41333334-19.56977778-4.89244444-2.27555555 4.096z m3.64088889-0.68266667c1.25155555 0.45511111 2.73066667 0.79644445 3.86844444 1.25155555l4.43733334 1.25155556-2.048 3.64088889-3.29955556-3.29955555c-0.79644445-0.79644445-2.16177778-1.93422222-2.95822222-2.84444445zM590.27911111 698.14044445l-14.336 44.14577777h-46.42133333l37.66044444 27.30666667-14.336 43.91822222 37.43288889-27.19288889 37.54666667 27.19288889-14.336-43.91822222 37.43288889-27.30666667h-46.30755556zM509.72444445 847.872c0.79644445-0.79644445 0.79644445-2.048 0-2.84444445-0.91022222-0.79644445-1.93422222-0.79644445-2.84444445 0-0.79644445 0.79644445-0.79644445 2.048 0 2.84444445s2.048 0.79644445 2.84444445 0zM534.75555555 869.26222222c1.13777778 0.56888889 2.16177778 0.22755555 2.73066667-0.79644444 0.56888889-0.91022222 0.22755555-2.16177778-0.79644444-2.73066667-0.91022222-0.56888889-2.048-0.34133333-2.73066667 0.79644444-0.56888889 1.13777778-0.22755555 2.16177778 0.79644444 2.73066667zM649.44355555 845.02755555l-3.072 2.38933334 16.49777778 11.71911111 3.64088889-2.95822222-7.96444444-18.65955556-2.84444445 2.38933333 2.16177778 4.89244445-4.096 3.29955555-4.32355556-3.072z m9.67111112 2.27555556l1.93422222 4.20977778c0.56888889 1.13777778 1.25155555 2.61688889 1.70666666 3.64088889v0.11377777c-0.91022222-0.79644445-2.16177778-1.70666667-3.29955555-2.61688888l-3.64088889-2.73066667 3.29955556-2.61688889zM640.22755555 872.448l0.79644445-7.73688889c0-0.79644445 0.11377778-1.59288889 0.11377778-2.61688889h0.11377777l3.86844445 7.96444445 3.41333333-1.59288889-8.64711111-17.52177778-3.18577777 1.70666667 2.95822222 5.91644444-0.45511112 2.38933334-7.85066666-5.80266667-3.75466667 1.93422222 10.35377778 7.28177778-1.59288889 10.12622222 3.86844444-2.048zM571.16444445 866.19022222c0.68266667-2.38933333-0.22755555-4.66488889-2.84444445-5.34755555-1.47911111-0.45511111-2.95822222-0.11377778-4.096 0.68266666l0.11377778-1.47911111-3.29955556-0.79644444c0 0.79644445-0.22755555 2.048-0.68266667 3.29955555l-1.36533333 5.00622222c-0.79644445 2.95822222-0.45511111 5.91644445 3.75466667 7.168 2.16177778 0.56888889 3.86844445 0.45511111 5.00622222 0.11377778v-2.61688888c-1.13777778 0.22755555-2.27555555 0.45511111-3.64088889 0-1.93422222-0.56888889-2.16177778-1.59288889-1.70666667-2.95822223 4.32355555 1.13777778 7.85066667 0.45511111 8.7608889-3.072z m-7.50933334-1.36533333c0.45511111-1.70666667 2.048-2.048 2.95822222-1.70666667s1.47911111 1.13777778 1.25155556 2.27555556c-0.68266667 2.048-2.95822222 1.93422222-4.77866667 1.36533333l0.56888889-1.93422222zM659.68355555 836.03911111l13.99466667 13.65333334 2.73066667-2.73066667-14.10844444-13.65333333zM620.88533333 859.02222222c-2.95822222 0.91022222-5.68888889 3.86844445-4.096 9.10222223 1.36533333 4.096 4.55111111 6.03022222 8.41955556 4.89244444 3.64088889-1.25155555 5.57511111-4.55111111 4.096-9.10222222-1.36533333-4.32355555-4.66488889-5.91644445-8.41955556-4.89244445z m3.75466667 11.37777778c-1.70666667 0.56888889-3.29955555-1.36533333-3.86844445-3.52711111-0.79644445-2.38933333-0.56888889-4.77866667 1.25155556-5.23377778 1.70666667-0.56888889 3.29955555 1.13777778 4.096 3.52711111 0.34133333 2.16177778 0.34133333 4.55111111-1.47911111 5.23377778zM668.55822222 825.45777778c-2.84444445 3.64088889-2.38933333 7.168 0.22755556 9.32977777 2.048 1.59288889 4.32355555 1.59288889 7.28177777 0 2.27555555-1.25155555 3.52711111-1.59288889 4.55111112-0.68266666 0.79644445 0.68266667 1.13777778 2.048 0 3.64088889-0.91022222 1.25155555-2.16177778 1.93422222-2.84444445 2.16177777l1.93422223 2.6168889c0.91022222-0.45511111 2.16177778-1.25155555 3.29955555-2.73066667 2.61688889-3.29955555 2.27555555-6.71288889-0.22755555-8.76088889-2.048-1.59288889-4.66488889-1.36533333-7.50933334 0.34133333-2.048 1.13777778-3.41333333 1.36533333-4.43733333 0.45511111-1.13777778-0.91022222-1.25155555-2.38933333 0-4.096 0.91022222-1.25155555 2.38933333-2.16177778 3.52711111-2.73066666l-2.048-2.61688889c-0.91022222 0.45511111-2.61688889 1.59288889-3.75466667 3.072zM674.24711111 817.94844445l-1.93422222 3.41333333 19.68355556 4.89244444 2.27555555-4.096-14.10844445-14.44977777-1.93422222 3.41333333 3.75466667 3.64088889-2.61688889 4.55111111-5.12-1.36533333z m10.01244444-1.5928889l3.29955556 3.29955556c0.79644445 0.91022222 2.048 1.93422222 2.95822222 2.84444444-1.25155555-0.45511111-2.73066667-0.79644445-3.86844444-1.25155555l-4.43733334-1.25155555 2.048-3.6408889zM590.50666667 868.12444445c0.11377778-2.27555555-1.36533333-4.32355555-3.86844445-4.6648889-1.47911111-0.11377778-2.95822222 0.45511111-3.75466667 1.47911112l-0.22755555-1.47911112-3.41333333-0.22755555c0.11377778 0.79644445 0 2.16177778 0 3.41333333l-0.45511112 5.12c-0.22755555 3.072 0.79644445 5.91644445 5.12 6.25777778 2.16177778 0.11377778 3.86844445-0.45511111 4.89244445-0.79644444l-0.56888889-2.38933334c-0.91022222 0.56888889-2.16177778 0.79644445-3.52711111 0.68266667-2.048-0.11377778-2.38933333-1.25155555-2.27555555-2.61688889 4.43733333 0.22755555 7.85066667-1.13777778 8.07822222-4.77866666z m-7.96444445 0.22755555c0.11377778-1.70666667 1.59288889-2.27555555 2.61688889-2.27555555 0.91022222 0 1.70666667 0.68266667 1.59288889 2.048-0.11377778 2.048-2.27555555 2.38933333-4.32355555 2.27555555l0.11377777-2.048zM546.13333333 852.65066667l-3.29955555-1.70666667-6.82666667 12.288 3.29955556 1.82044445zM608.256 873.58577778c-0.45511111 0-0.68266667 0.11377778-0.91022222 0.11377777l0.68266667 3.52711112c0.22755555 0 0.56888889 0 0.79644444-0.11377778 1.36533333-0.22755555 2.61688889-1.47911111 2.95822222-3.41333334h0.11377778l0.68266666 2.38933334 3.072-0.56888889c-0.22755555-1.25155555-0.56888889-2.61688889-0.91022222-4.32355555l-1.93422222-9.55733334-3.64088889 0.68266667 1.36533333 7.168c0.45511111 2.27555555-0.56888889 3.64088889-2.27555555 4.096zM522.46755555 835.24266667l-2.5031111-2.73066667-10.24 9.78488889 2.61688888 2.84444444zM525.76711111 838.08711111c-0.79644445-0.68266667-1.59288889-1.25155555-2.048-1.47911111l-1.93422222 2.16177778c0.22755555 0.11377778 0.56888889 0.45511111 0.91022222 0.68266667 0.91022222 0.79644445 0.79644445 1.59288889-0.22755556 2.95822222l-4.096 4.55111111-2.27555555-2.048-1.93422222 2.048 2.27555555 2.048-2.38933333 2.84444444 3.52711111 1.59288889 1.59288889-1.93422222 1.36533333 1.25155556 1.70666667-2.048-1.36533333-1.25155556 4.66488888-4.89244444c1.13777778-1.25155555 3.41333333-3.75466667 0.22755556-6.48533334zM592.44088889 871.53777778c0.22755555 4.55111111 2.73066667 6.71288889 6.03022222 6.59911111 4.20977778-0.22755555 6.25777778-3.86844445 5.91644444-7.96444444-0.22755555-4.32355555-2.95822222-6.94044445-7.28177777-6.7128889-1.70666667 0.11377778-3.41333333 0.56888889-4.43733333 1.13777778l0.68266666 2.61688889c0.91022222-0.45511111 2.048-0.68266667 3.41333334-0.79644444 2.048-0.11377778 3.75466667 0.68266667 4.096 3.072l-8.41955556 0.56888889c-0.11377778 0.45511111-0.11377778 0.91022222 0 1.47911111z m8.30577778 0.56888889c0.22755555 1.25155555-0.34133333 3.18577778-2.27555556 3.29955555-1.93422222 0.11377778-2.61688889-1.59288889-2.73066666-3.072l5.00622222-0.22755555zM550.34311111 870.17244445l3.64088889 1.4791111 1.13777778-14.90488888-3.41333333-1.36533334-9.89866667 11.264 3.64088889 1.47911112 4.32355555-5.6888889c0.68266667-1.13777778 1.47911111-2.048 2.16177778-2.95822222-0.22755555 1.25155555-0.56888889 2.38933333-0.68266667 3.64088889l-0.91022222 7.05422223zM538.51022222 853.10577778c1.36533333-1.93422222 1.13777778-4.32355555-1.13777777-5.80266667-1.25155555-0.91022222-2.84444445-1.13777778-4.096-0.68266666l0.68266666-1.36533334-2.84444444-2.048c-0.45511111 0.79644445-0.91022222 1.93422222-1.70666667 2.84444444l-2.95822222 4.20977778c-1.70666667 2.61688889-2.27555555 5.57511111 1.25155555 7.96444445 1.70666667 1.25155555 3.52711111 1.70666667 4.77866667 1.70666667l0.79644445-2.38933334c-1.13777778 0-2.27555555-0.45511111-3.41333334-1.25155556-1.70666667-0.91022222-1.59288889-2.16177778-0.68266666-3.18577777 3.64088889 2.61688889 7.28177778 2.95822222 9.32977777 0z m-6.94044444-3.75466667c0.91022222-1.47911111 2.61688889-1.25155555 3.41333333-0.68266666s1.13777778 1.47911111 0.22755556 2.61688888c-1.13777778 1.70666667-3.072 0.91022222-4.89244445-0.22755555l1.25155556-1.70666667zM782.56355555 144.83911111H497.32266667c-7.50933333 0-13.42577778 6.03022222-13.42577778 13.42577778 0 7.50933333 6.03022222 13.42577778 13.42577778 13.42577778h285.12711111c7.50933333 0 13.53955555-5.91644445 13.53955555-13.42577778 0-7.50933333-6.03022222-13.42577778-13.42577778-13.42577778zM782.56355555 254.63466667H497.32266667c-7.50933333 0-13.42577778 6.03022222-13.42577778 13.42577778s6.03022222 13.42577778 13.42577778 13.42577777h285.12711111c7.50933333 0 13.53955555-6.03022222 13.53955555-13.42577777 0-7.50933333-6.03022222-13.42577778-13.42577778-13.42577778zM795.98933333 377.74222222c0-7.39555555-6.03022222-13.42577778-13.42577778-13.42577777H497.32266667c-7.50933333 0-13.42577778 6.03022222-13.42577778 13.42577777 0 7.50933333 6.03022222 13.42577778 13.42577778 13.42577778h285.12711111c7.50933333 0 13.53955555-6.144 13.53955555-13.42577778z" p-id="2131"></path><path d="M853.44711111 958.91911111c0 10.24-8.64711111 18.88711111-18.88711111 18.88711111h-76.34488889C560.46933333 977.92 189.09866667 821.47555555 189.09866667 821.47555555c-66.33244445 82.48888889-145.29422222 54.84088889-145.29422222 12.8568889V65.08088889c0-10.24 8.64711111-18.88711111 18.8871111-18.88711111h771.86844445c10.24 0 18.88711111 8.64711111 18.88711111 18.88711111l-1.13777778 446.91911111c18.88711111-51.99644445 42.66666667-62.91911111 42.66666667-62.91911111V65.08088889c0-33.22311111-27.19288889-60.416-60.416-60.416H62.69155555C29.46844445 4.55111111 2.27555555 31.744 2.27555555 65.08088889v893.952c0 33.22311111 27.19288889 60.416 60.416 60.416h771.86844445c33.22311111 0 60.416-27.19288889 60.416-60.416V804.06755555l-41.52888889 47.55911112v107.29244444z" p-id="2132"></path><path d="M141.312 110.02311111c-22.07288889 0-40.04977778 17.97688889-40.04977778 40.04977778v235.86133333c0 22.07288889 17.97688889 40.04977778 40.04977778 40.04977778h229.83111111c22.07288889 0 40.04977778-17.97688889 40.04977778-40.04977778V150.07288889c-0.11377778-22.07288889-18.09066667-40.04977778-40.04977778-40.04977778h-229.83111111z m-5.68888889 282.96533334c13.42577778-52.90666667 53.02044445-75.88977778 70.42844444-83.85422223-22.98311111-13.76711111-38.34311111-38.912-38.3431111-67.69777777 0.11377778-43.57688889 35.61244445-78.73422222 78.96177777-78.50666667 43.57688889 0.11377778 78.73422222 35.38488889 78.50666667 78.96177777 0 28.78577778-15.58755555 53.93066667-38.68444444 67.584 17.408 8.07822222 58.368 30.15111111 71.22488888 83.5128889H135.62311111zM836.38044445 843.776l35.15733333-37.888c9.216-9.89866667 8.64711111-25.6-1.25155556-34.70222222L679.02577778 593.35111111c-10.01244445-9.32977778-25.6-8.64711111-34.70222223 1.25155556l-35.15733333 37.77422222c-9.216 10.01244445-8.64711111 25.6 1.25155556 34.70222222l191.26044444 177.94844444c10.01244445 9.216 25.6 8.64711111 34.70222223-1.25155555zM754.23288889 590.27911111c-5.91644445-5.57511111-15.13244445-5.12-20.59377778 0.68266667L714.52444445 611.55555555l134.94044444 125.4968889 19.11466666-20.48c5.46133333-5.91644445 5.12-15.13244445-0.79644444-20.70755556l-113.55022222-105.58577778zM1003.40622222 439.52355555c-22.98311111-21.39022222-50.97244445-28.672-103.424 27.87555556-36.40888889 39.25333333-55.97866667 104.56177778-88.064 139.15022222l-20.82133333-19.34222222c-5.12-4.89244445-12.40177778-5.46133333-16.384-1.25155556-3.75466667 4.20977778-2.73066667 11.37777778 2.38933333 16.27022223l80.55466667 74.86577777c5.23377778 4.89244445 12.62933333 5.46133333 16.384 1.25155556 3.86844445-4.20977778 2.73066667-11.37777778-2.38933334-16.27022222l-20.82133333-19.34222222c32.19911111-34.58844445 96.02844445-58.82311111 132.32355556-97.96266667 52.45155555-56.43377778 43.23555555-83.85422222 20.25244444-105.24444445z" p-id="2133"></path><path d="M434.06222222 761.74222222c0 86.12977778 70.08711111 156.10311111 156.33066667 156.10311111 65.19466667 0 121.17333333-40.27733333 144.49777778-97.16622222l-15.92888889-14.90488889c-18.432 53.36177778-69.06311111 91.93244445-128.56888889 91.93244445-74.97955555 0-136.192-61.09866667-136.192-136.192 0-71.79377778 55.97866667-130.61688889 126.52088889-135.62311112 2.16177778-4.32355555 4.77866667-8.53333333 8.192-12.288l7.39555555-7.96444444c-2.048-0.11377778-3.86844445-0.22755555-5.91644444-0.22755556-86.12977778 0-156.33066667 70.08711111-156.33066667 156.33066667z" p-id="2134"></path></svg>