<?xml version="1.0" standalone="no"?><!DOCTYPE svg PUBLIC "-//W3C//DTD SVG 1.1//EN" "http://www.w3.org/Graphics/SVG/1.1/DTD/svg11.dtd"><svg t="1592191004359" class="icon" viewBox="0 0 1024 1024" version="1.1" xmlns="http://www.w3.org/2000/svg" p-id="1944" xmlns:xlink="http://www.w3.org/1999/xlink" width="128" height="128"><defs><style type="text/css"></style></defs><path d="M320.85333333 47.78666667h382.29333334a54.61333333 54.61333333 0 0 1 54.61333333 54.61333333v218.45333333a54.61333333 54.61333333 0 0 1-54.61333333 54.61333334h-382.29333334a54.61333333 54.61333333 0 0 1-54.61333333-54.61333334v-218.45333333a54.61333333 54.61333333 0 0 1 54.61333333-54.61333333z m0 54.61333333v218.45333333h382.29333334v-218.45333333h-382.29333334zM47.78666667 648.53333333h382.29333333a54.61333333 54.61333333 0 0 1 54.61333333 54.61333334v218.45333333a54.61333333 54.61333333 0 0 1-54.61333333 54.61333333h-382.29333333a54.61333333 54.61333333 0 0 1-54.61333334-54.61333333v-218.45333333a54.61333333 54.61333333 0 0 1 54.61333334-54.61333334z m0 54.61333334v218.45333333h382.29333333v-218.45333333h-382.29333333zM593.92 648.53333333h382.29333333a54.61333333 54.61333333 0 0 1 54.61333334 54.61333334v218.45333333a54.61333333 54.61333333 0 0 1-54.61333334 54.61333333h-382.29333333a54.61333333 54.61333333 0 0 1-54.61333333-54.61333333v-218.45333333a54.61333333 54.61333333 0 0 1 54.61333333-54.61333334z m0 54.61333334v218.45333333h382.29333333v-218.45333333h-382.29333333z" p-id="1945"></path><path d="M866.98666667 648.53333333h-54.61333334v-109.22666666h-600.74666666v109.22666666h-54.61333334v-109.22666666a54.61333333 54.61333333 0 0 1 54.61333334-54.61333334h600.74666666a54.61333333 54.61333333 0 0 1 54.61333334 54.61333334v109.22666666z" p-id="1946"></path><path d="M484.69333333 320.85333333h54.61333334v218.45333334h-54.61333334z" p-id="1947"></path></svg>