<?xml version="1.0" standalone="no"?><!DOCTYPE svg PUBLIC "-//W3C//DTD SVG 1.1//EN" "http://www.w3.org/Graphics/SVG/1.1/DTD/svg11.dtd"><svg t="1595234196018" class="icon" viewBox="0 0 1024 1024" version="1.1" xmlns="http://www.w3.org/2000/svg" p-id="2101" xmlns:xlink="http://www.w3.org/1999/xlink" width="128" height="128"><defs><style type="text/css"></style></defs><path d="M513.79272793 1020.84013684H224.45587589c-91.62831628 0-166.11039556-77.17746146-166.82853511-172.87558464v-675.15601467c0.71813955-95.69288129 75.20021884-172.87453626 166.82853511-172.86929437h580.62578559c91.63146141-0.00524189 166.11144394 77.17746146 166.82853511 172.86929437v351.19225579c0 18.79743376-14.58504732 34.03142763-32.58256798 34.03142763-17.99961741 0-32.58361636-15.23294548-32.58361636-34.03037924V172.80748915c-0.71604279-58.10535241-46.02173716-104.81272938-101.66130239-104.80748749H224.45377914c-55.64061361-0.00524189-100.94840474 46.70213507-101.65920564 104.80643911v675.15601467c0.71184927 58.10744917 46.01859202 104.82006804 101.65920564 104.81482613H513.79272793c17.990182 0 32.58047122 15.23504225 32.58047122 34.03142764s-14.59133759 34.03037926-32.58047122 34.03037925z m0 0" p-id="2102"></path><path d="M778.36791861 299.40553218H257.03425036c-17.99227877 0-32.57942284-15.24133251-32.57942284-34.03247601 0-18.79428863 14.58609571-34.03037926 32.57942284-34.03037925h521.33471662c17.99227877 0 32.58361636 15.23609063 32.58361636 34.03037925 0 18.7911435-14.59238598 34.03247601-32.58466473 34.03247601z m-7.82300339 196.68951146h-521.32737798c-17.99647228 0-32.58361636-15.237139-32.58361636-34.03247601 0-18.79009511 14.58714408-34.02618573 32.58361636-34.02618573h521.32737798c17.99332714 0 32.5867615 15.237139 32.5867615 34.02618573 0 18.79743376-14.59343435 34.03247601-32.5867615 34.03247601z m0 197.37829639h-521.32737798c-17.99647228 0-32.58361636-15.24028414-32.58361636-34.03142762 0-18.79743376 14.58714408-34.03037926 32.58361636-34.03037925h521.32737798c17.99332714 0 32.5867615 15.23294548 32.5867615 34.03037925 0 18.7911435-14.59343435 34.03037926-32.5867615 34.03037925zM703.42455259 1011.31142097c-8.89968852 0.49378646-17.52994367-3.26045839-23.45642961-10.21121052l-113.39266233-123.86911275c-10.85701193-13.74215068-9.72685948-33.89828351 2.59054427-46.22931618 12.31111349-12.3247424 31.64741399-12.64659473 44.32860523-0.73386524l89.92994244 97.3283524L935.41927206 681.21883902c12.59732092-13.53352328 33.31014293-13.83335964 46.26810621-0.67620439 12.95167299 13.15505849 13.24207395 34.78940557 0.64475302 48.31663858l-254.14801409 272.24303399c-6.48212677 6.9276878-15.49084669 10.64419102-24.76061298 10.21016215z m0 0" p-id="2103"></path></svg>