<?xml version="1.0" encoding="utf-8"?>
<!-- Generator: Adobe Illustrator 24.2.0, SVG Export Plug-In . SVG Version: 6.00 Build 0)  -->
<svg version="1.1" xmlns="http://www.w3.org/2000/svg" xmlns:xlink="http://www.w3.org/1999/xlink" x="0px" y="0px"
	 viewBox="0 0 1024 1024" style="enable-background:new 0 0 1024 1024;" xml:space="preserve">
<g id="_x31_">
</g>
<g id="图层_2">
	<g>
		<polygon points="640,401 704,401 704,416 640,416 640,428 640,448 640,465 640,486 640,497 736,497 736,465 672,465 672,448 
			736,448 736,439 736,416 736,401 736,381 736,369 640,369 		"/>
		<polygon points="483,416 419,416 355,416 291,416 291,480 291,640 355,640 355,480 419,480 419,640 483,640 483,480 547,480 
			547,640 611,640 611,480 611,416 547,416 		"/>
		<path d="M960,320V64H704v94H320V64H64v256h96v384H64v256h256v-96h384v96h256V704H860V320H960z M800,160h64v64h-64V160z M160,160
			h64v64h-64V160z M224,864h-64v-64h64V864z M864,800v64h-64v-64H864z M796,704h-92v96H320v-96h-96V320h96v-98h384v98h92V704z"/>
	</g>
</g>
</svg>
