<?xml version="1.0" encoding="utf-8"?>
<!-- Generator: Adobe Illustrator 24.2.0, SVG Export Plug-In . SVG Version: 6.00 Build 0)  -->
<svg version="1.1" xmlns="http://www.w3.org/2000/svg" xmlns:xlink="http://www.w3.org/1999/xlink" x="0px" y="0px"
	 viewBox="0 0 1024 1024" style="enable-background:new 0 0 1024 1024;" xml:space="preserve">
<g id="_x31_">
</g>
<g id="图层_2">
	<g>
		<path d="M160,448H64v64v288v96h96h704h96v-96V512v-64h-96H160z M864,800h-64V672h-64v128h-64v-96h-64v96h-64v-96h-64v96h-64v-96
			h-64v96h-64V672h-64v128h-64V512h704V800z"/>
		<polygon points="896,128 896,224 128,224 128,128 64,128 64,224 64,288 64,384 128,384 128,288 896,288 896,384 960,384 960,288 
			960,224 960,128 		"/>
	</g>
</g>
</svg>
