<?xml version="1.0" encoding="utf-8"?>
<!-- Generator: Adobe Illustrator 24.2.0, SVG Export Plug-In . SVG Version: 6.00 Build 0)  -->
<svg version="1.1" xmlns="http://www.w3.org/2000/svg" xmlns:xlink="http://www.w3.org/1999/xlink" x="0px" y="0px"
	 viewBox="0 0 1024 1024" style="enable-background:new 0 0 1024 1024;" xml:space="preserve">
<g id="_x31_">
</g>
<g id="图层_2">
	<g>
		<path d="M576,160V64h-64H224h-96v96v704v96h96h288h64v-96V160z M224,864v-64h128v-64H224v-64h96v-64h-96v-64h96v-64h-96v-64h96
			v-64h-96v-64h128v-64H224v-64h288v704H224z"/>
		<polygon points="896,896 800,896 800,128 896,128 896,64 800,64 736,64 640,64 640,128 736,128 736,896 640,896 640,960 736,960 
			800,960 896,960 		"/>
	</g>
</g>
</svg>
