<?xml version="1.0" encoding="utf-8"?>
<!-- Generator: Adobe Illustrator 24.2.0, SVG Export Plug-In . SVG Version: 6.00 Build 0)  -->
<svg version="1.1" xmlns="http://www.w3.org/2000/svg" xmlns:xlink="http://www.w3.org/1999/xlink" x="0px" y="0px"
	 viewBox="0 0 1024 1024" style="enable-background:new 0 0 1024 1024;" xml:space="preserve">
<g id="_x31_">
</g>
<g id="图层_2">
	<g id="图层_2_1_">
		<g>
			<g>
				<polygon points="896,64 128,64 64,64 64,128.04 64,192.04 64,256.04 128,256.04 128,128 896,128 896,256.04 960,256.04 
					960,192.04 960,128.04 960,64 				"/>
				<polygon points="896,896.01 128,896.01 128,256.06 64,256.06 64,832.03 64,896.03 64,960.03 128,960.03 128,960.01 896,960.01 
					896,960.03 960,960.03 960,896.03 960,832.03 960,256.06 896,256.06 				"/>
				<polygon points="322.78,768 512,578.78 701.22,768 768,701.22 578.78,512 768,322.78 701.22,256 512,445.22 322.78,256 
					256,322.78 445.22,512 256,701.22 				"/>
			</g>
		</g>
	</g>
</g>
</svg>
