<?xml version="1.0" standalone="no"?><!DOCTYPE svg PUBLIC "-//W3C//DTD SVG 1.1//EN" "http://www.w3.org/Graphics/SVG/1.1/DTD/svg11.dtd"><svg t="1592188801737" class="icon" viewBox="0 0 1024 1024" version="1.1" xmlns="http://www.w3.org/2000/svg" p-id="1410" xmlns:xlink="http://www.w3.org/1999/xlink" width="128" height="128"><defs><style type="text/css"></style></defs><path d="M884.993931 843.92906H360.741945l37.75351-37.753509a38.367388 38.367388 0 1 0-54.277065-54.277065l-103.285007 103.285008a38.367388 38.367388 0 0 0 0 54.277065l103.285007 103.285007a38.265075 38.265075 0 0 0 54.225908 0 38.367388 38.367388 0 0 0 0-54.277064l-37.753509-37.75351h524.251986a38.367388 38.367388 0 0 0 0.051156-76.785932zM270.859945 180.122096h398.560424l-37.75351 37.75351a38.367388 38.367388 0 0 0 54.225908 54.277064l103.285008-103.285008a38.367388 38.367388 0 0 0 0-54.277064L685.892767 11.30559a38.367388 38.367388 0 1 0-54.277064 54.277065l37.753509 37.753509h-398.509267a38.367388 38.367388 0 0 0 0 76.785932zM1013.396789 625.23495a38.367388 38.367388 0 0 0-54.277065 0l-35.758405 35.758406V141.754708a38.367388 38.367388 0 0 0-76.734776 0V665.03472l-39.748613-39.748613a38.367388 38.367388 0 1 0-54.277065 54.277064l103.285008 103.285008a38.265075 38.265075 0 0 0 54.225908 0l103.285008-103.285008a38.418544 38.418544 0 0 0 0-54.328221zM245.844408 409.763701a38.367388 38.367388 0 0 0 27.112954-65.531498L169.672354 240.998351a38.316231 38.316231 0 0 0-54.225907 0L12.161439 344.283359a38.367388 38.367388 0 1 0 54.277064 54.277065l36.628066-36.628067v520.415248a38.367388 38.367388 0 0 0 76.734776 0V359.630314l38.878953 38.878953c7.520008 7.520008 17.290903 11.254434 27.16411 11.254434z" p-id="1411"></path><path d="M141.433957 141.703552m-51.156517 0a51.156517 51.156517 0 1 0 102.313034 0 51.156517 51.156517 0 1 0-102.313034 0Z" p-id="1412"></path></svg>