<svg t="1593759164842" class="icon" viewBox="0 0 1024 1024" version="1.1" xmlns="http://www.w3.org/2000/svg" p-id="10695" width="128" height="128"><path d="M512 1024C229.229714 1024 0 794.770286 0 512S229.229714 0 512 0s512 229.229714 512 512-229.229714 512-512 512z m79.433143-694.857143H272.786286S219.428571 329.142857 219.428571 380.928v262.144C219.428571 694.857143 272.822857 694.857143 272.822857 694.857143h318.610286s53.357714 0 53.357714-51.785143v-260.571429C644.754286 329.142857 591.36 329.142857 591.36 329.142857z m218.148571 26.697143c-4.681143-1.572571-9.398857-1.572571-12.544 1.572571l-105.179428 81.590858c-3.108571 3.145143-4.681143 6.290286-4.681143 9.435428v130.267429c0 3.145143 1.572571 7.862857 4.681143 9.435428l105.179428 81.590857a11.995429 11.995429 0 0 0 7.862857 3.145143c1.572571 0 3.108571 0 6.253715-1.572571 4.717714-1.572571 6.290286-6.253714 6.290285-10.971429V366.811429a11.812571 11.812571 0 0 0-7.862857-10.971429z" p-id="10696"></path></svg>