<?xml version="1.0" standalone="no"?><!DOCTYPE svg PUBLIC "-//W3C//DTD SVG 1.1//EN" "http://www.w3.org/Graphics/SVG/1.1/DTD/svg11.dtd"><svg t="1593590951186" class="icon" viewBox="0 0 1024 1024" version="1.1" xmlns="http://www.w3.org/2000/svg" p-id="108551" xmlns:xlink="http://www.w3.org/1999/xlink" width="128" height="128"><defs><style type="text/css"></style></defs><path d="M512 0a512 512 0 0 0-512 512 512 512 0 0 0 512 512 512 512 0 0 0 512-512 512 512 0 0 0-512-512zM190.236444 704.284444a21.788444 21.788444 0 0 1-37.319111 22.471112 418.816 418.816 0 0 1 2.673778-433.720889 21.731556 21.731556 0 1 1 36.977778 22.812444 374.670222 374.670222 0 0 0-2.389333 388.437333z m117.76-557.511111a418.702222 418.702222 0 0 1 411.306667 1.820445 21.845333 21.845333 0 0 1 8.135111 29.696 21.788444 21.788444 0 0 1-29.696 7.964444 374.840889 374.840889 0 0 0-368.355555-1.536 21.617778 21.617778 0 0 1-29.582223-8.419555 21.504 21.504 0 0 1 8.192-29.525334zM577.365333 512a65.422222 65.422222 0 1 1-130.730666 0 65.422222 65.422222 0 0 1 130.730666 0z m143.644445 362.382222A417.792 417.792 0 0 1 512 930.190222a419.441778 419.441778 0 0 1-204.003556-53.020444 21.731556 21.731556 0 0 1 21.105778-37.944889 375.466667 375.466667 0 0 0 370.062222-2.503111 21.674667 21.674667 0 1 1 21.845334 37.546666z m134.428444-142.506666a21.674667 21.674667 0 0 1-18.773333-32.540445 375.352889 375.352889 0 0 0-2.104889-378.083555 21.674667 21.674667 0 0 1 7.623111-29.809778 21.674667 21.674667 0 0 1 29.809778 7.623111A417.735111 417.735111 0 0 1 930.247111 512c0 73.500444-19.285333 145.749333-55.921778 209.009778a21.959111 21.959111 0 0 1-18.887111 10.865778z" p-id="108552"></path></svg>