<svg t="1593593412422" class="icon" viewBox="0 0 1024 1024" version="1.1" xmlns="http://www.w3.org/2000/svg" p-id="7406" width="128" height="128"><path d="M511.7 0.6C229.066 0.6 0 229.665 0 512.3S229.066 1024 511.7 1024s511.7-229.066 511.7-511.7S794.336 0.6 511.7 0.6z m0 789.637c-29.582 0-53.568-23.986-53.568-53.569S482.118 683.1 511.7 683.1s53.569 23.986 53.569 53.568-23.986 53.569-53.569 53.569z m104.14-114.233c-57.367-57.366-150.812-57.366-208.179 0l-50.47-50.47c85.25-85.25 223.969-85.25 309.119 0l-50.47 50.47z m92.545-92.546c-52.569-52.57-122.328-81.452-196.685-81.452-74.256 0-144.115 28.883-196.684 81.452l-50.47-50.47c66.06-66.062 153.81-102.34 247.154-102.34s181.094 36.378 247.156 102.34l-50.47 50.47z m96.743-96.743c-161.805-161.805-425.05-161.805-586.856 0l-50.47-50.47c189.589-189.59 498.208-189.59 687.797 0l-50.47 50.47z" p-id="7407"></path></svg>