<?xml version="1.0" standalone="no"?><!DOCTYPE svg PUBLIC "-//W3C//DTD SVG 1.1//EN" "http://www.w3.org/Graphics/SVG/1.1/DTD/svg11.dtd"><svg t="1593588999027" class="icon" viewBox="0 0 1024 1024" version="1.1" xmlns="http://www.w3.org/2000/svg" p-id="2520" xmlns:xlink="http://www.w3.org/1999/xlink" width="128" height="128"><defs><style type="text/css"></style></defs><path d="M769.78062222 421.16323555l-49.41596444-123.0848c-4.12216889-12.14577778-15.75367111-13.34385778-22.50296889-13.7363911h-350.06577778c-16.40561778 0-19.69152 9.69386667-20.76899556 12.9024l-52.77582222 124.75505777c-0.15815111 0.65649778-0.31971555 1.29137778-0.52110222 1.86823111-2.58389333 7.27836445-4.07779555 15.67288889-4.08007111 24.41671112 0-0.05916445 0-0.05006222 0-0.04096 0 28.30563555 15.81511111 52.91576889 39.09063111 65.47797333l0.45283556 0.19569777c9.47313778 5.06197333 21.24003555 7.62993778 34.98439111 7.62993778 25.78432-0.06257778 49.41937778-13.28014222 63.15235555-35.32458666 1.08202667-2.38933333 2.76707555-5.93351111 5.97560889-9.43672889 8.72220445-10.39132445 31.09774222-11.01255111 41.09653333 0.91363555 2.48832 2.78869333 4.08007111 6.09735111 5.03580445 8.04522667 13.70112 22.19690667 37.17461333 35.44064 62.87928889 35.57603555 25.36448-0.19911111 48.77880889-13.47925333 62.40142222-35.49866666 1.11274667-2.33130667 2.68856889-5.53528889 5.57624889-8.78023111 4.32241778-5.32024889 11.98307555-8.78023111 20.46407111-8.78023111 10.49144889 0 16.86755555 4.65806222 20.39125334 8.6016 3.04583111 3.36668445 4.70471111 6.84828445 5.67637333 8.96455111 13.79555555 22.31751111 37.38851555 35.45656889 63.28775111 35.45656889 13.97873778-0.07850667 26.00391111-2.78300445 35.63975111-8.06115556 23.26869333-12.87281778 38.76181333-37.27018667 38.76181333-65.28796444 0-8.71424-1.49845333-17.08032-4.25415111-24.85134222-0.51427555-1.54168889-0.95232-3.92305778-1.05813333-6.39203556zM688.50119111 432.61155555h-340.30364444c-11.74186667-0.00341333-21.25824-9.52092445-21.26165334-21.26165333 0.01137778-11.73845333 9.52433778-21.25368889 21.26051556-21.26848h340.30478222c0 0 0 0 0 0 11.74300445 0 21.26165333 9.51978667 21.26165334 21.26165333 0 0.00227555 0 0.00455111 0 0.00682667 0 0.00341333 0 0.00796445 0 0.00910223 0 11.73617778-9.51523555 21.25255111-21.25255112 21.2525511-0.00455111 0-0.00796445 0-0.01024 0z" fill="" p-id="2521"></path><path d="M512 0c-282.77077333 0-512 229.22922667-512 512s229.22922667 512 512 512 512-229.22922667 512-512-229.22922667-512-512-512zM730.43854222 602.76849778c0-0.00682667 0-0.01365333 0-0.02161778 0-11.73390222 9.51296-21.24686222 21.24686223-21.24686222 0.00682667 0 0.01024 0 0.01706666 0 0.00455111 0 0.00910222 0 0.01479111 0 11.73617778 0 21.25255111 9.51409778 21.25255111 21.25255111 0 0.00682667 0 0.01024 0 0.01706666l0.03754667 116.01578667c0 30.02254222-24.40305778 54.47111111-54.40853333 54.53596445l-400.25770667 0.25713778c-30.04302222 0-54.49272889-24.39168-54.49272889-54.37212445l-0.13653333-113.98371555c0-0.01365333 0-0.03072 0-0.0466489 0-11.72707555 9.49703111-21.23662222 21.21841777-21.25596444h0.04323556c0.00568889 0 0.00910222 0 0.01592889 0 11.71911111 0 21.22296889 9.48906667 21.24686222 21.20248889l0.15815111 114.06449778c0 6.5536 5.35552 11.86816 11.94666667 11.86816l400.19512889-0.25713778c6.59569778-0.03982222 11.92846222-5.38396445 11.94666666-11.98193778l-0.04209777-116.04423111zM756.11591111 550.60138667c-15.86403555 8.70058667-34.74204445 13.16067555-55.94225778 13.25852444-35.08906667 0-67.45770667-15.27125333-89.47712-41.51182222-21.36746667 25.39861333-53.13080889 41.45834667-88.64768 41.56984889-34.57820445-0.21617778-66.65329778-15.44533333-88.57144888-41.47086223-22.03989333 26.24625778-54.35619555 41.5744-89.26094223 41.67338667-20.82702222 0-39.30112-4.24277333-55.02862222-12.61909333 0-0.04209778-0.02161778-0.04209778-0.02161778-0.04209778 0-0.02161778 0-0.02161778-0.02161777-0.02161778s-0.02161778-0.02161778-0.02161778-0.02161778c-37.16209778-20.06129778-61.98840889-58.71957333-61.98840889-103.17596444 0-13.06965333 2.14584889-25.63868445 6.10304-37.37258666-0.00568889-0.28899555 0.25827555-1.40288 0.51541333-2.14243556l53.59502222-126.63466667c8.26595555-24.72846222 31.09774222-40.36039111 60.50474667-40.36039111h349.92469333c29.00309333 0.05802667 53.81575111 15.84696889 62.45831112 41.5744l49.85628444 124.09856c0.83626667 1.92739555 1.36192 4.16540445 1.45635556 6.51377778 3.40764445 8.58680889 5.49205333 20.87025778 5.49205333 33.63953778 0 0.07850667 0 0.15815111 0 0.23552 0 0.02503111 0 0.06599111 0 0.10922666 0 44.05930667-24.34958222 82.432-60.32725333 102.39317334z" fill="" p-id="2522"></path></svg>