<?xml version="1.0" standalone="no"?><!DOCTYPE svg PUBLIC "-//W3C//DTD SVG 1.1//EN" "http://www.w3.org/Graphics/SVG/1.1/DTD/svg11.dtd"><svg t="1593589017883" class="icon" viewBox="0 0 1024 1024" version="1.1" xmlns="http://www.w3.org/2000/svg" p-id="3059" xmlns:xlink="http://www.w3.org/1999/xlink" width="128" height="128"><defs><style type="text/css"></style></defs><path d="M404.70755555 582.20088889h211.17155556v114.46044444H404.70755555z" p-id="3060"></path><path d="M510.29333333 446.57777778m-53.13422222 0a53.13422222 53.13422222 0 1 0 106.26844444 0 53.13422222 53.13422222 0 1 0-106.26844444 0Z" p-id="3061"></path><path d="M512 2.27555555C230.51377778 2.27555555 2.27555555 230.51377778 2.27555555 512s228.23822222 509.72444445 509.72444445 509.72444445 509.72444445-228.23822222 509.72444445-509.72444445S793.48622222 2.27555555 512 2.27555555z m317.78133333 767.77244445H194.21866667v-71.56622222h57.57155555V515.072h88.064v-83.28533333h-0.68266667l0.68266667-0.45511112v-0.22755555h0.34133333l153.94133334-121.05955555V151.32444445h1.93422222v-1.47911112h153.82755556V243.48444445H526.336v66.44622222l153.94133333 121.05955555h0.34133334v0.22755556l0.68266666 0.45511111h-0.68266666v83.28533333h88.064v183.40977778h60.98488888v71.68z" p-id="3062"></path></svg>