<?xml version="1.0" standalone="no"?><!DOCTYPE svg PUBLIC "-//W3C//DTD SVG 1.1//EN" "http://www.w3.org/Graphics/SVG/1.1/DTD/svg11.dtd"><svg t="1593591505491" class="icon" viewBox="0 0 1024 1024" version="1.1" xmlns="http://www.w3.org/2000/svg" p-id="13283" xmlns:xlink="http://www.w3.org/1999/xlink" width="128" height="128"><defs><style type="text/css"></style></defs><path d="M279.719907 759.76599s-0.764986 30.970146 30.97603 30.970145h402.617777c31.111374 0 30.97603-30.970146 30.97603-30.970145V310.690052H279.719907z m340.830483-352.046348c0-10.927524 6.849563-19.789588 15.299711-19.789588 8.461917 0 15.317364 8.862063 15.317364 19.789588v285.716217c0 10.933409-6.855447 19.795472-15.31148 19.795472-8.456033 0-15.305595-8.862063-15.305595-19.795472z m-124.180692-15.482131c0-10.933409 7.00256-19.795472 15.635127-19.795472s15.629243 8.862063 15.629243 19.795472v316.686363c0 10.933409-7.00256 19.795472-15.629243 19.795472-8.638452 0-15.635128-8.862063-15.635127-19.795472z m-123.539281 15.476246c0-10.92164 6.855447-19.783703 15.31148-19.783703 8.450148 0 15.305595 8.862063 15.305595 19.789588v285.716217c0 10.933409-6.855447 19.795472-15.305595 19.795472-8.456033 0-15.31148-8.862063-15.31148-19.795472z" fill="" p-id="13284"></path><path d="M511.998941 0a511.998941 511.998941 0 1 0 511.998941 512.004825A512.59916 512.59916 0 0 0 511.998941 0z m278.748963 310.690052h-15.488015v464.563953s0.959174 46.452276-46.45816 46.452276H295.207922c-46.722963 0-46.452276-46.452276-46.452276-46.452276V310.690052H233.261746a15.170252 15.170252 0 0 1-15.493899-15.988198 14.411151 14.411151 0 0 1 15.493899-14.987832h139.368597v-30.970145s-0.376608-46.452276 46.458161-46.452276h185.826758c45.952093 0 46.452276 46.452276 46.452276 46.452276v30.970145h139.368597a14.399382 14.399382 0 0 1 15.482131 14.987832 15.164367 15.164367 0 0 1-15.476246 15.988198z" fill="" p-id="13285"></path><path d="M403.606374 279.714022h216.796903v-15.48213s3.03052-30.97603-30.970146-30.97603H434.570635c-32.011703 0-30.970146 30.97603-30.970146 30.97603z" fill="" p-id="13286"></path></svg>