<?xml version="1.0" standalone="no"?><!DOCTYPE svg PUBLIC "-//W3C//DTD SVG 1.1//EN" "http://www.w3.org/Graphics/SVG/1.1/DTD/svg11.dtd"><svg t="1593588981161" class="icon" viewBox="0 0 1024 1024" version="1.1" xmlns="http://www.w3.org/2000/svg" p-id="2250" xmlns:xlink="http://www.w3.org/1999/xlink" width="128" height="128"><defs><style type="text/css"></style></defs><path d="M860.677603 875.798662c-196.586106 196.590137-515.312541 196.590137-711.902678 0-196.585099-196.585099-196.585099-515.312541 0-711.902678 196.590137-196.585099 515.316572-196.585099 711.902678 0C1057.265725 360.48612 1057.265725 679.213563 860.677603 875.798662L860.677603 875.798662zM662.057117 830.574789c44.873222 0 81.248201-36.364903 81.248201-81.227042 0-44.861131-36.374979-81.227042-81.248201-81.227042-44.872215 0-81.251224 36.365911-81.251224 81.227042C580.806901 794.209885 617.184903 830.574789 662.057117 830.574789L662.057117 830.574789zM393.353836 830.35009c44.871207 0 81.247194-36.371956 81.247194-81.228049 0-44.862138-36.376994-81.233087-81.247194-81.233087-44.872215 0-81.247194 36.370949-81.247194 81.233087C312.106642 793.980149 348.480614 830.35009 393.353836 830.35009L393.353836 830.35009zM809.94811 317.393357L291.384995 317.393357l-9.673125-38.712651 0-1.52251c0-8.871061-7.192371-16.061417-16.06444-16.061417l-0.901817 0c-2.586553-0.504816-5.305104-0.528999-8.032724 0L140.574936 261.096779c-8.872069 0-16.061417 7.190356-16.061417 16.061417l0 24.66143c0 8.871061 7.190356 16.06444 16.061417 16.06444l84.208581 0 29.500007 118.010106c0.119906 0.485671 0.278102 0.955221 0.432268 1.421748l44.886321 181.956513c0 11.670222 9.46354 21.133762 21.1388 21.133762l416.966084 0c11.670222 0 21.131747-9.46354 21.131747-21.133762l72.24615-280.746322C831.084895 326.85589 821.622362 317.393357 809.94811 317.393357L809.94811 317.393357z" p-id="2251"></path></svg>