<?xml version="1.0" standalone="no"?><!DOCTYPE svg PUBLIC "-//W3C//DTD SVG 1.1//EN" "http://www.w3.org/Graphics/SVG/1.1/DTD/svg11.dtd"><svg t="1593592233194" class="icon" viewBox="0 0 1024 1024" version="1.1" xmlns="http://www.w3.org/2000/svg" p-id="1934" xmlns:xlink="http://www.w3.org/1999/xlink" width="128" height="128"><defs><style type="text/css"></style></defs><path d="M512 1024C229.232 1024 0 794.768 0 512 0 229.232 229.232 0 512 0c282.768 0 512 229.232 512 512 0 282.768-229.232 512-512 512z m17.792-661.168v-37.664a37.024 37.024 0 0 0 18.584-32.24c0-20.4-16.24-36.928-36.272-36.928-20.04 0-36.28 16.528-36.28 36.92 0 13.76 7.392 25.76 18.352 32.112v37.8H365.12c-60.24 0.064-109.056 49.752-109.12 111.064v150.928c0 61.36 48.84 111.112 109.12 111.176h293.76C719.16 735.936 768 686.176 768 624.824V473.896c-0.064-61.312-48.88-111-109.12-111.064H529.792zM415.464 506.56c23.232 0.032 42.056 19.2 42.088 42.84 0 23.664-18.848 42.84-42.088 42.84-23.248 0-42.096-19.176-42.096-42.84 0-23.656 18.848-42.84 42.096-42.84z m192.848 0c23.232 0.032 42.056 19.2 42.088 42.84 0 17.328-10.256 32.952-25.984 39.576a41.56 41.56 0 0 1-45.872-9.28 43.4 43.4 0 0 1-9.12-46.688c6.512-16.008 21.864-26.448 38.88-26.448z" p-id="1935"></path></svg>