<?xml version="1.0" standalone="no"?><!DOCTYPE svg PUBLIC "-//W3C//DTD SVG 1.1//EN" "http://www.w3.org/Graphics/SVG/1.1/DTD/svg11.dtd"><svg t="1593592136068" class="icon" viewBox="0 0 1024 1024" version="1.1" xmlns="http://www.w3.org/2000/svg" p-id="2211" xmlns:xlink="http://www.w3.org/1999/xlink" width="128" height="128"><defs><style type="text/css"></style></defs><path d="M512 1024C229.248 1024 0 794.752 0 512S229.248 0 512 0s512 229.248 512 512-229.248 512-512 512z m9.344-806.997333a13.952 13.952 0 0 0-9.813333-3.669334 13.952 13.952 0 0 0-9.813334 3.669334C453.717333 264.96 256 468.821333 256 594.176 256 737.834667 370.261333 853.333333 511.488 853.333333c141.269333 0 255.530667-115.456 255.530667-259.2 0-125.312-197.76-330.453333-245.674667-377.130666z m-9.813333 593.322666c-116.736 0-212.522667-97.024-212.522667-216.192 0-74.922667 104.405333-214.954667 212.48-326.741333 109.354667 111.786667 212.522667 251.818667 212.522667 326.741333 0 119.168-95.786667 216.192-212.48 216.192z m160.896-216.192c-8.576 1.237333-13.525333 4.906667-14.72 11.093334-18.432 57.685333-65.109333 104.362667-126.549334 126.506666-7.381333 2.432-11.050667 8.576-9.813333 14.72 1.237333 9.813333 12.288 15.957333 20.906667 12.288 71.253333-27.008 125.269333-81.066667 146.133333-146.176 3.712-9.813333-3.669333-19.626667-15.957333-18.432z" p-id="2212"></path></svg>