<?xml version="1.0" standalone="no"?><!DOCTYPE svg PUBLIC "-//W3C//DTD SVG 1.1//EN" "http://www.w3.org/Graphics/SVG/1.1/DTD/svg11.dtd"><svg t="1593592505967" class="icon" viewBox="0 0 1024 1024" version="1.1" xmlns="http://www.w3.org/2000/svg" p-id="1934" xmlns:xlink="http://www.w3.org/1999/xlink" width="128" height="128"><defs><style type="text/css"></style></defs><path d="M512 1024a512 512 0 1 1 512-512 512 512 0 0 1-512 512z m173.712-736H474.208l-78.624 314.112L309.04 288H192l129.84 448H468.8l88.992-339.872h121.904a43.2 43.2 0 0 1 42.672 41.2 39.104 39.104 0 0 1-42.672 36.048h-121.984L670.272 736h118.4l-73.76-156.8A142.4 142.4 0 0 0 832 437.328 148.256 148.256 0 0 0 685.712 288z" p-id="1935"></path></svg>