<?xml version="1.0" standalone="no"?><!DOCTYPE svg PUBLIC "-//W3C//DTD SVG 1.1//EN" "http://www.w3.org/Graphics/SVG/1.1/DTD/svg11.dtd"><svg t="1593589035917" class="icon" viewBox="0 0 1024 1024" version="1.1" xmlns="http://www.w3.org/2000/svg" p-id="3599" xmlns:xlink="http://www.w3.org/1999/xlink" width="128" height="128"><defs><style type="text/css"></style></defs><path d="M512 10.24C235.008 10.24 10.24 235.008 10.24 512s224.768 501.76 501.76 501.76 501.76-224.768 501.76-501.76-224.768-501.76-501.76-501.76z m315.392 825.856H180.736V305.664h249.856V189.44h396.8v646.656z" p-id="3600"></path><path d="M230.912 785.92H430.08V356.352H230.912v429.568z m115.712-221.184h-50.688v-46.08h50.688v46.08zM294.912 422.912h50.688v46.08h-50.688v-46.08zM562.176 785.92v-158.208h142.336v158.208h72.704V239.616H480.768v546.304h81.408zM547.84 300.032h170.496v71.68H547.84v-71.68z m0 122.88h170.496v71.68H547.84v-71.68z" p-id="3601"></path></svg>