<?xml version="1.0" standalone="no"?><!DOCTYPE svg PUBLIC "-//W3C//DTD SVG 1.1//EN" "http://www.w3.org/Graphics/SVG/1.1/DTD/svg11.dtd"><svg t="1593589026898" class="icon" viewBox="0 0 1024 1024" version="1.1" xmlns="http://www.w3.org/2000/svg" p-id="3330" xmlns:xlink="http://www.w3.org/1999/xlink" width="128" height="128"><defs><style type="text/css"></style></defs><path d="M653.48644106 411.21242832h0.01242756a19.44914299 19.44914299 0 0 0-19.45535678-19.42428785 19.41186029 19.41186029 0 0 0-19.4056465 18.99553678h-0.18019973l0.21748244 1.85792133c0.06213783 0.77050917 0.15534459 1.52859079 0.29204783 2.27424483 0.27962027 2.06918997 0.5343854 4.15080752 0.5343854 6.30077668 0 56.94311387-46.21812319 103.11774057-103.2544438 103.11774056-57.03010683 0-103.24823003-46.1746267-103.24823003-103.11774056 0-3.57292563 0.70837134-6.95943775 1.03770189-10.43294284h-0.34175812a18.97068165 18.97068165 0 0 0-18.93961272-18.03861409 18.94582651 18.94582651 0 0 0-18.92097138 18.03861409h-0.0372827c-0.22369621 3.29330537-0.4971027 6.57418316-0.4971027 9.92341257 0 77.93948899 63.26874567 141.12745548 141.30765521 141.12745548 78.06376467 0 141.32629655-63.18175269 141.32629656-141.12745548 0-3.10689185-0.22990999-6.16407344-0.45981999-9.22125501l0.01242756-0.27340649z" p-id="3331"></path><path d="M512.6945299 11.6599224c-272.53033947 0-493.44899148 220.93107958-493.44899148 493.45520526s220.91865202 493.4427777 493.44899148 493.44277769c272.49927054 0 493.43656391-220.91865202 493.43656392-493.44277769s-220.91865202-493.45520526-493.43656392-493.45520526z m197.11986043 737.7749667H315.5622419a37.51882601 37.51882601 0 0 1-37.54368114-37.49397086l17.05683627-374.97699139a37.53125357 37.53125357 0 0 1 37.54368114-37.50018465h360.13847589a37.51882601 37.51882601 0 0 1 37.53746736 37.50018465l17.06305005 374.97699139a37.50639843 37.50639843 0 0 1-37.54368114 37.49397086z" p-id="3332"></path></svg>