<?xml version="1.0" standalone="no"?><!DOCTYPE svg PUBLIC "-//W3C//DTD SVG 1.1//EN" "http://www.w3.org/Graphics/SVG/1.1/DTD/svg11.dtd"><svg t="1593590838526" class="icon" viewBox="0 0 1024 1024" version="1.1" xmlns="http://www.w3.org/2000/svg" p-id="108416" xmlns:xlink="http://www.w3.org/1999/xlink" width="128" height="128"><defs><style type="text/css"></style></defs><path d="M511.997414 48.614141C256.078869 48.614141 48.614141 256.078869 48.614141 512.002586 48.614141 767.922424 256.078869 975.385859 511.997414 975.385859c255.92501 0 463.389737-207.469899 463.389738-463.383273C975.385859 256.078869 767.921131 48.614141 511.997414 48.614141z m-20.732121 142.020526v-24.568243c0-7.169293 9.293576-12.98101 20.734707-12.98101 11.439838 0 20.724364 5.811717 20.724364 12.98101v24.576c65.547636 8.887596 115.838707 59.009293 115.838707 119.674829H375.447273c0-60.674586 50.261333-110.793697 115.81802-119.682586z m-146.83798 156.714666c0-10.942061 10.008566-19.830949 22.339232-19.830949h290.443637c12.328081 0 22.340525 8.892768 22.340525 19.830949v64.457697h0.012929c0 10.95499-10.012444 19.843879-22.345697 19.843879H366.766545c-12.330667 0-22.339232-8.888889-22.339232-19.843879v-64.457697z m304.125414 101.47297v361.451313H375.438222v-361.451313h273.114505zM264.49196 634.714505H208.765414V572.470303h55.727839v62.244202z m19.342222 25.346586v-112.92703c0-7.482182 6.847354-13.562828 15.278545-13.562829h56.962586V673.616162h-56.962586c-8.431192 0-15.278545-6.062545-15.278545-13.555071z m390.256485 210.853495H349.902869c-13.516283 0-24.466101-9.737051-24.466101-21.730263 0-11.994505 10.949818-21.713455 24.466101-21.713454h324.177454c13.522747-0.007758 24.489374 9.711192 24.489374 21.713454 0.001293 11.991919-10.966626 21.730263-24.47903 21.730263z m66.068687-210.857374c0 7.496404-6.848646 13.558949-15.279839 13.55895h-56.962586V533.571232h56.962586c8.431192 0 15.279838 6.080646 15.279839 13.562829v112.923151z m75.075232-25.342707h-55.747232V572.470303h55.747232v62.244202z" fill="" p-id="108417"></path><path d="M512 673.613576c43.548444 0 78.871273-31.343192 78.871273-70.019879 0-38.666343-35.322828-70.022465-78.871273-70.022465-43.560081 0-78.871273 31.356121-78.871273 70.022465 0 38.676687 35.315071 70.019879 78.871273 70.019879z m-0.011636-117.613899c29.606788 0 53.61002 21.306182 53.61002 47.59402 0 26.285253-24.001939 47.591434-53.61002 47.591434-29.604202 0-53.607434-21.306182-53.607435-47.591434s24.003232-47.59402 53.607435-47.59402z" fill="" p-id="108418"></path></svg>