<?xml version="1.0" standalone="no"?><!DOCTYPE svg PUBLIC "-//W3C//DTD SVG 1.1//EN" "http://www.w3.org/Graphics/SVG/1.1/DTD/svg11.dtd"><svg t="1593592019468" class="icon" viewBox="0 0 1024 1024" version="1.1" xmlns="http://www.w3.org/2000/svg" p-id="1657" xmlns:xlink="http://www.w3.org/1999/xlink" width="128" height="128"><defs><style type="text/css"></style></defs><path d="M1016.42799529 511.77984044c0 279.05225497-226.21395818 505.26621315-505.26621314 505.26621315s-505.26621315-226.21395818-505.26621316-505.26621315 226.21395818-505.26621315 505.26621316-505.26621315 505.26621315 226.21395818 505.26621314 505.26621315zM610.45374821 672.38624675c-4.18303182 3.7427127-7.70558495 6.82494666-11.33821786 9.90718064-22.015957 18.82364324-45.13271184 36.21624926-71.99217939 47.88470648-15.96156883 6.93502646-31.37273872 9.46686151-47.66454691-0.11007978-12.54909549-7.37534559-25.97882926-13.2095742-39.29848324-19.8143613 21.13531873-23.66715377 36.21624926-44.80247249 37.86744606-53.16853616-18.38332409 16.95228689-40.28920131 26.52922819-64.06643489 31.92313765-2.8620744 0.66047871-6.93502646-0.11007979-9.35678171-1.76127656-11.99869656-8.8063828-23.77723356-17.94300496-35.335611-27.29978667-6.16446795-4.95359033-11.77853699-10.67773914-18.38332408-16.73212732 2.20159569-0.44031915 3.19231376-0.66047871 4.07295203-0.7705585 46.56374906-7.48542538 91.14606198-20.80507937 132.53606114-43.81175443 27.40986646-15.30109012 52.17781809-34.12473335 71.77201983-58.89268498 8.0358243-10.12734022 14.86077098-21.24539851 22.45627614-32.36345679-14.86077098-8.36606366-28.29050475-15.96156883-41.27991938-23.22683464-6.93502646 9.79710086-12.87933485 19.59420173-20.25468044 28.29050476-25.31835055 29.94170152-58.23220627 48.87542454-94.44845554 62.52531787-39.95896195 15.08093054-81.23888133 23.66715377-124.05991769 24.2175527-10.01726043 0.11007979-18.16316453 4.40319141-22.34619636 13.64989334-4.40319141 9.68702108-2.42175528 18.71356345 4.29311162 26.96954733 56.25077014 68.46962627 127.25223147 116.02409339 209.70199042 147.06659276 45.35287143 17.06236667 92.13678005 28.07034517 140.35172589 32.69369614 12.54909549 1.21087763 22.56635593-2.09151592 29.61146217-12.87933484 3.08223399-4.73343076 6.71486689-9.02654237 9.79710085-13.75997313 37.97752582-56.03061056 66.37811035-116.79465189 89.27470564-180.42076761 2.64191484-7.48542538 5.17374989-15.08093054 7.92574452-23.00667508-15.30109012-5.28382968-29.83162174-10.23742001-44.69239272-15.41116989-0.7705585 2.20159569-1.54111698 4.07295205-2.20159569 5.94430839-6.82494666 18.27324431-13.09949441 36.6565684-20.47484 54.70965314-18.82364324 46.01335014-41.16983958 90.15534392-69.02002521 131.54534308-2.42175528 3.63263291-4.73343076 5.28382968-9.24670193 4.40319141-13.87005291-2.53183505-27.74010582-4.51327118-41.61015873-7.04510625-7.59550517-1.43103721-15.08093054-3.41247334-22.89659528-5.28382968 28.84090367-41.27991937 46.78390862-71.88209961 50.30646174-85.97231208z m174.36637943-122.62888049c1.21087763-3.30239355 2.31167549-5.94430839 3.19231378-8.8063828 10.67773914-36.32632905-5.8342286-72.87281767-40.94968002-89.05454607-29.83162174-13.87005291-59.99348282-27.07962711-90.15534392-40.17912152-23.4469942-10.23742001-46.67382885-8.8063828-68.68978585 4.29311161-13.2095742 7.81566473-23.00667506 18.82364324-29.28122279 33.35417486 75.40465273 33.46425464 150.36898631 66.8184295 225.8837188 100.39276392z m-33.57433441-131.54534308c0.66047871-1.32095742 1.10079786-1.98143613 1.4310372-2.75199462 21.79579743-60.43380197 43.59159486-120.75752414 65.60755186-181.19132611 2.31167549-6.38462754 1.32095742-11.88861678-2.86207441-16.84220711-6.27454775-7.59550517-14.53053162-11.77853699-24.32763248-13.2095742-10.56765936-1.54111698-16.29180818 1.21087763-21.24539851 10.45757957-29.39130259 55.14997229-58.78260519 110.29994457-88.17390779 165.33983708l-2.64191484 5.28382968c0.66047871 0.66047871 0.99071807 1.21087763 1.54111699 1.43103719 23.4469942 10.45757957 46.89398841 20.91515915 70.67122198 31.48281852z m-358.52985976 58.12212648c0.7705585-32.14329722-26.08890904-59.66324347-58.56244562-60.32372218-31.81305787-0.55039892-59.4430839 26.19898883-60.10356261 58.23220626-0.66047871 32.36345679 25.6485899 59.66324347 58.34228606 60.65396154 32.03321743 0.99071807 59.55316369-25.75866969 60.32372217-58.56244562zM238.49415469 297.45449904c-19.70428151-0.11007979-35.77593013 15.85148904-35.77593013 35.44569077 0 19.48412195 16.40188796 35.77593013 35.77593013 35.66585033 19.26396238-0.11007979 35.22553119-16.07164861 35.44569078-35.33561098 0.22015956-19.59420173-15.74140925-35.66585034-35.44569078-35.77593012z m83.22031746 47.33430754c0 13.09949441 10.78781893 23.88731335 23.77723357 23.77723356 12.65917527-0.11007979 23.33691442-10.78781893 23.55707398-23.44699421 0.22015956-12.98941463-10.56765936-23.88731335-23.66715376-23.88731333-13.09949441-0.11007979-23.66715377 10.34749979-23.66715379 23.55707398z" fill="" p-id="1658"></path></svg>