<?xml version="1.0" standalone="no"?><!DOCTYPE svg PUBLIC "-//W3C//DTD SVG 1.1//EN" "http://www.w3.org/Graphics/SVG/1.1/DTD/svg11.dtd"><svg t="1593589003456" class="icon" viewBox="0 0 1024 1024" version="1.1" xmlns="http://www.w3.org/2000/svg" p-id="2655" xmlns:xlink="http://www.w3.org/1999/xlink" width="128" height="128"><defs><style type="text/css"></style></defs><path d="M512 1024C229.229714 1024 0 794.770286 0 512S229.229714 0 512 0s512 229.229714 512 512-229.229714 512-512 512z m-75.142095-553.569524c29.208381 0 55.710476 11.702857 75.093333 30.646857a107.105524 107.105524 0 0 1 75.068952-30.646857 107.178667 107.178667 0 0 1 103.765334 80.018286h44.129524V375.466667h-0.195048c-4.924952-71.387429-101.571048-129.852952-222.793143-129.852953-111.079619 0-201.581714 49.127619-219.623619 112.249905-2.096762 5.436952-3.34019 11.434667-3.34019 17.603048v174.982095h44.105142a107.25181 107.25181 0 0 1 103.789715-80.018286z m150.162285 21.406476a85.820952 85.820952 0 0 0-75.093333 44.178286 85.820952 85.820952 0 0 0-156.525714 14.433524h313.051428a85.820952 85.820952 0 0 0-81.432381-58.61181z m159.134477 86.796191H277.699048c-23.673905 0-33.889524 18.041905-33.889524 41.618286v167.253333h45.153524c0-15.60381 12.678095-28.281905 28.257523-28.281905h395.142096c15.579429 0 28.257524 12.678095 28.257523 28.281905h39.497143v-167.253333c-0.073143-23.576381-10.264381-41.642667-33.962666-41.642667z" p-id="2656"></path></svg>