<?xml version="1.0" standalone="no"?><!DOCTYPE svg PUBLIC "-//W3C//DTD SVG 1.1//EN" "http://www.w3.org/Graphics/SVG/1.1/DTD/svg11.dtd"><svg t="1593589008254" class="icon" viewBox="0 0 1024 1024" version="1.1" xmlns="http://www.w3.org/2000/svg" p-id="2789" xmlns:xlink="http://www.w3.org/1999/xlink" width="128" height="128"><defs><style type="text/css"></style></defs><path d="M585.16666414 360.46988115l-146.33515696 0 0 146.33881427 146.33515696 0c62.85905171 0 73.17032147-11.01002892 73.1703215-73.16849283C658.33698564 371.47625094 648.02571586 360.46988115 585.16666414 360.46988115z" p-id="2790"></path><path d="M512-5.37258295c-282.86939364 0-512.1794497 229.31005606-512.1794497 512.17944971 0 208.52105797 125.06690387 387.1747383 303.88704276 467.08204925 37.52811997 20.96094443 115.82755355 36.5897342 113.02337001 35.4922063 30.93929708 5.83518768 62.63588845 9.60336548 95.2708656 9.60336549 282.86939364 0 512.1794497-229.31005606 512.17944971-512.17944971C1024.1794497 223.93747313 794.86939364-5.37258295 512-5.37258295zM585.16666414 653.14568107l-146.33515696 0 0 219.50364978-146.25284201 2.7968653c0 0 0.68412626-583.13459471-0.08597228-588.14480781-8.13633646-52.99593892 30.16005342-79.79938752 73.17032147-73.16849283 17.13971926 2.64321099 211.37645844 0 211.37645847 0 125.71627476 0 227.632668 95.18855067 227.63266797 219.50730708C804.6721408 557.95347129 710.88659626 653.14568107 585.16666414 653.14568107z" p-id="2791"></path></svg>