<?xml version="1.0" standalone="no"?><!DOCTYPE svg PUBLIC "-//W3C//DTD SVG 1.1//EN" "http://www.w3.org/Graphics/SVG/1.1/DTD/svg11.dtd"><svg t="1593592457855" class="icon" viewBox="0 0 1024 1024" version="1.1" xmlns="http://www.w3.org/2000/svg" p-id="1657" xmlns:xlink="http://www.w3.org/1999/xlink" width="128" height="128"><defs><style type="text/css"></style></defs><path d="M512.76900398 2.59764675a505.97647065 505.97647065 0 1 0-0.06324675 1011.9529413 505.97647065 505.97647065 0 0 0 0.06324675-1011.9529413z m392.13176416 510.7832478v-0.0632478 1.01195325l-0.06324676 0.5692239-0.12649349 0.75896415-0.06324781 0.8854587v0.12649455a33.9004239 33.9004239 0 0 1-8.28536414 17.7091761c-8.34861195 10.752-17.3929413 20.7450348-26.50051741 30.61157715a690.02541195 690.02541195 0 0 1-167.60470649 135.2222109 429.82701195 429.82701195 0 0 1-125.67190545 48.32075326 342.73581195 342.73581195 0 0 1-144.39303585-2.21364675c-82.9801413-19.1638587-158.11764675-66.91538805-223.83134131-123.96423586a630.7629174 630.7629174 0 0 1-85.69976414-87.91341089 35.2918587 35.2918587 0 0 1 0-45.4113891c8.2221174-10.752 17.3929413-20.7450348 26.43727064-30.61157611A689.2032 689.2032 0 0 1 316.76636813 323.2602348a429.5107761 429.5107761 0 0 1 125.67190651-48.32075219 342.7990587 342.7990587 0 0 1 144.32978804 2.15039999c82.9801413 19.22710545 158.11764675 66.91538805 223.83134131 123.96423481 31.3705413 26.43727065 60.08470545 55.9104 85.69976414 87.9766587a33.3312 33.3312 0 0 1 8.28536521 17.83567064l0.12649455 0.8854587 0.12649349 0.82221195v1.58117715l0.12649455 1.64442285v1.58117715zM509.66989853 347.2941174c-81.84169455 0-148.25110545 70.6469652-148.2511065 157.86465871 0 87.15444675 66.40941195 157.80141195 148.2511065 157.80141194 81.84169455 0 148.31435325-70.6469652 148.31435221-157.80141194 0-87.21769455-66.40941195-157.8646587-148.31435221-157.86465871z m0 236.67049455c-40.92084675 0-74.12555325-35.2918587-74.12555324-78.8690826 0-43.5772239 33.20470545-78.8690826 74.12555324-78.8690826 40.92084675 0 74.12555325 35.2918587 74.12555221 78.93232936 0 43.5772239-33.1414587 78.8690826-74.12555221 78.8690826z" p-id="1658"></path></svg>