<svg t="1593759148825" class="icon" viewBox="0 0 1024 1024" version="1.1" xmlns="http://www.w3.org/2000/svg" p-id="10126" width="128" height="128"><path d="M511.77984 0.0128c-282.64704 0-511.77984 229.13024-511.77984 511.77984S229.13024 1023.57248 511.77984 1023.57248s511.77984-229.13024 511.77984-511.77984S794.42688 0.0128 511.77984 0.0128z m178.1888 130.3936l-77.05856 25.47456-44.35712 79.4752h23.80544c13.7472 0.0512 49.0368 0.18176 58.05312 4.40832v8.80128c-0.00256 1.87648-0.52736 7.52128-1.08288 10.26048l-4.992 7.12192 30.81728 46.44096c1.07008 1.53344 4.5696 7.17568 4.5696 15.40864v506.1248c-0.31744 1.49504-2.52928 10.49088-9.92256 10.77504-11.26144 0.46336-23.46496 10.4192-26.8544 19.01056l-0.20992 0.55808c-1.54112 4.39296-3.13344 8.9344-20.04992 12.5056l-217.69984-0.06912c-16.84736-3.61216-18.51136-8.3456-20.12416-12.93056l-0.2432-0.64256c-3.34592-8.32256-15.45216-17.97888-26.68288-18.43968-7.424-0.28416-9.61792-9.46432-9.87648-10.68032v-506.2144c0-8.23296 3.4944-13.87264 4.78464-15.72096l30.57152-46.0928-4.95616-7.12704c-0.55552-2.73408-1.08032-8.40448-1.088-10.28608l0.01024-12.00384c6.75584-1.21344 21.99552-1.22368 37.94944-1.1904 4.83584 0.00256 10.06592 0.00768 15.64672-0.01536h98.2144a18.2656 18.2656 0 0 1 2.31936-8.94208l52.82816-94.656a18.35776 18.35776 0 0 1 10.26304-8.47872l83.84-27.71712c9.63072-3.16672 20.00128 2.04288 23.1808 11.66336a18.3424 18.3424 0 0 1-11.65568 23.17824z" p-id="10127"></path></svg>