<?xml version="1.0" standalone="no"?><!DOCTYPE svg PUBLIC "-//W3C//DTD SVG 1.1//EN" "http://www.w3.org/Graphics/SVG/1.1/DTD/svg11.dtd"><svg t="1593588992503" class="icon" viewBox="0 0 1024 1024" version="1.1" xmlns="http://www.w3.org/2000/svg" p-id="2384" xmlns:xlink="http://www.w3.org/1999/xlink" width="128" height="128"><defs><style type="text/css"></style></defs><path d="M414.2929408 393.38744149l129.57090361 0 0 31.55821796-129.57090361 0 0-31.55821796Z" p-id="2385"></path><path d="M511.99825351 1.74769379c-281.80364629 0-510.25114226 228.44749597-510.25114226 510.25230621 0 281.80481024 228.44749597 510.25230621 510.25114226 510.25230621 281.80481024 0 510.25230621-228.44749597 510.2523062-510.25230621C1022.25055971 230.19518976 793.80306375 1.74769379 511.99825351 1.74769379zM580.23292928 787.20325746l-238.93663061 0 0-0.37024541-66.72924217 0 0-289.47867875c0-9.80802105 6.75058233-17.77296384 15.04734891-17.77296384l51.68072931 0L341.29513472 268.62856989c0-17.51332637 12.11099705-31.78059776 26.93596615-31.78059776l215.45396338 0c14.84243285 0 26.9534299 14.30336512 26.9534299 31.78059776l0 128.5172167L470.36888405 604.78267278l18.43428352 0.1478656 51.82626589 0-76.21358933 85.75382301 115.96029382-0.44243172L580.23292928 787.20325746zM750.1908992 673.06159218l-0.62289806 0.69974129-98.93131492 0 0 113.44076004-49.16818033 0 0-113.44076004-89.69845533 0-0.60776221-0.69974129 70.10453391-76.53609927-69.49560775 0-0.60776221-0.91979321 119.53700864-183.78630258 119.49276501 183.78630258-0.62289806 0.91979321-69.463007 0L750.1908992 673.06159218z" p-id="2386"></path><path d="M414.2929408 339.11848505l129.57090361 0 0 31.55705287-129.57090361 0 0-31.55705287Z" p-id="2387"></path></svg>