<?xml version="1.0" standalone="no"?><!DOCTYPE svg PUBLIC "-//W3C//DTD SVG 1.1//EN" "http://www.w3.org/Graphics/SVG/1.1/DTD/svg11.dtd"><svg t="1593591849939" class="icon" viewBox="0 0 1024 1024" version="1.1" xmlns="http://www.w3.org/2000/svg" p-id="1657" xmlns:xlink="http://www.w3.org/1999/xlink" width="128" height="128"><defs><style type="text/css"></style></defs><path d="M754.75369539 414.93910165c-8.80606968-8.31760898-19.9780426-13.94367427-33.51341382-16.87944832-10.1136414-2.28198819-29.92886377-3.42423475-59.44316218-3.42423473h-32.53523996v237.52716589h54.06132723c20.21976804 0 34.81722816-1.13848916 43.78737054-3.42423475 11.74184374-2.93577405 21.48475599-7.90805348 29.23249416-14.92184813 7.74398078-7.01003726 14.06516323-18.55023441 18.95853745-34.61432908 4.89212177-16.06033731 7.33818266-37.95464881 7.33818265-65.68042959 0-27.72202338-2.44606089-49.00388031-7.33818265-63.84682325-4.89212177-14.83668062-11.74184374-26.41946152-20.54791342-34.73581804z" p-id="1658"></path><path d="M512.35444712 3.22184053c-281.83681364 0-510.30992213 228.47436094-510.30992212 510.31117459S230.51888594 1023.84418971 512.35444712 1023.84418971s510.31117459-228.47436094 510.31117459-510.31117459-228.47436094-510.31117459-510.31117459-510.31117459z m-72.42995446 689.36333247l-31.31158328-81.45896263H265.26472369l-29.59946593 81.45896263h-76.81107119l139.67846812-358.61532081h76.56684085l143.59241604 358.61532081h-78.76741892z m406.56212205-99.56206762c-8.97014238 26.09382104-21.77157009 47.21160528-38.40553559 63.3571101-12.55970228 12.23155691-29.5180558 21.77157009-50.88132285 28.62129205-15.98518951 5.05619448-37.34595162 7.58366547-64.0910536 7.58366547H556.85446928V333.96859974h132.34028547c29.84369627 0 52.59344022 2.28574558 68.24923187 6.84972197 21.03762659 6.19969349 39.05556408 17.20759371 54.06132724 33.02370064 15.00325825 15.81986434 26.41946152 35.1879573 34.24735735 58.09801658 7.82789581 22.91381666 11.74184374 51.16813695 11.74184373 84.76170841 0 29.5180558-3.66971757 54.95934345-11.00790023 76.32135804z" p-id="1659"></path><path d="M287.52600694 550.70362188h97.84869778l-49.41343583-133.07422899z" p-id="1660"></path></svg>