<?xml version="1.0" standalone="no"?><!DOCTYPE svg PUBLIC "-//W3C//DTD SVG 1.1//EN" "http://www.w3.org/Graphics/SVG/1.1/DTD/svg11.dtd"><svg t="1593592193960" class="icon" viewBox="0 0 1024 1024" version="1.1" xmlns="http://www.w3.org/2000/svg" p-id="1657" xmlns:xlink="http://www.w3.org/1999/xlink" width="128" height="128"><defs><style type="text/css"></style></defs><path d="M1020.24533333 513.024c0-281.48622222-228.23822222-509.72444445-509.72444444-509.72444445s-509.72444445 228.23822222-509.72444444 509.72444445 228.23822222 509.72444445 509.72444444 509.72444445 509.72444445-228.23822222 509.72444444-509.72444445zM367.95733333 175.67288889s134.144 31.51644445 192.28444445 87.38133333c42.21155555 40.61866667 80.32711111 115.48444445 104.90311111 168.96 3.072 6.59911111 22.64177778-24.80355555 46.64888889-40.73244444 34.92977778-23.32444445 75.776-11.60533333 75.776-11.60533333s-39.48088889 25.6-52.45155556 81.57866666c-17.52177778 75.776 23.32444445 93.184 23.32444445 157.24088889 0 98.304-58.368 189.32622222-166.11555556 224.93866667 18.432-21.504 29.58222222-49.26577778 29.58222222-79.75822222 0-67.81155555-120.26311111-209.35111111-120.26311111-209.35111112s-21.39022222 45.51111111-53.70311111 91.24977778c-30.26488889 43.008-71.45244445 85.21955555-71.45244444 118.10133334 0 33.792 13.65333333 64.39822222 35.72622222 86.58488888-120.60444445-30.60622222-173.73866667-134.71288889-178.06222222-237.568-5.80266667-139.83288889 58.25422222-238.81955555 58.25422222-238.81955555s34.92977778 34.92977778 40.73244444 46.64888889c10.69511111 21.504 10.01244445 45.73866667 10.01244445 45.73866666s65.64977778-103.99288889 77.36888889-144.83911111c24.91733333-87.72266667-52.56533333-145.74933333-52.56533334-145.74933333z" p-id="1658"></path></svg>