<?xml version="1.0" standalone="no"?><!DOCTYPE svg PUBLIC "-//W3C//DTD SVG 1.1//EN" "http://www.w3.org/Graphics/SVG/1.1/DTD/svg11.dtd"><svg t="1593589022385" class="icon" viewBox="0 0 1024 1024" version="1.1" xmlns="http://www.w3.org/2000/svg" p-id="3195" xmlns:xlink="http://www.w3.org/1999/xlink" width="128" height="128"><defs><style type="text/css"></style></defs><path d="M737.28 290.304a105.984 105.984 0 0 1-93.696 56.832H396.8a106.496 106.496 0 0 1-93.696-56.832h-16.896A67.072 67.072 0 0 0 219.648 358.4v310.784a66.56 66.56 0 0 0 66.56 66.56h451.072a67.072 67.072 0 0 0 67.072-66.56V358.4a67.072 67.072 0 0 0-67.072-68.096z m-85.504 262.144a19.456 19.456 0 0 1-19.456 19.456h-78.336v78.848a18.432 18.432 0 0 1-17.408 19.456h-46.592a18.944 18.944 0 0 1-17.408-19.456v-78.848H401.92a19.456 19.456 0 0 1-19.456-19.456V512a19.456 19.456 0 0 1 19.456-19.456h70.656V420.352a18.944 18.944 0 0 1 17.408-19.456h46.592a18.432 18.432 0 0 1 17.408 19.456v70.144h78.336a19.456 19.456 0 0 1 19.456 19.456z" p-id="3196"></path><path d="M512 0a512 512 0 1 0 512 512A512 512 0 0 0 512 0zM414.208 177.664h204.8a31.744 31.744 0 0 1 0 63.488h-204.8a31.744 31.744 0 1 1 0-63.488z m451.584 490.496a128.512 128.512 0 0 1-128.512 128.512H286.208a129.024 129.024 0 0 1-128.512-128.512V358.4a129.024 129.024 0 0 1 128.512-129.536H348.16l6.144 23.04a43.52 43.52 0 0 0 42.496 33.28h244.736a44.032 44.032 0 0 0 43.008-33.28l5.632-23.04h47.104A128.512 128.512 0 0 1 865.792 358.4z" p-id="3197"></path></svg>