<?xml version="1.0" standalone="no"?><!DOCTYPE svg PUBLIC "-//W3C//DTD SVG 1.1//EN" "http://www.w3.org/Graphics/SVG/1.1/DTD/svg11.dtd"><svg t="1593592382067" class="icon" viewBox="0 0 1024 1024" version="1.1" xmlns="http://www.w3.org/2000/svg" p-id="1657" xmlns:xlink="http://www.w3.org/1999/xlink" width="128" height="128"><defs><style type="text/css"></style></defs><path d="M497.01180137 491.12105551c0-0.00378745-0.00378745-0.0075749-0.01136235-0.0075749a0.0075749 0.0075749 0 0 0-0.0075749 0.0075749v0.01893726c0 0.0075749 0.00378745 0.01136235 0.0075749 0.01136234 0.0075749 0 0.01136235-0.00378745 0.01136235-0.01136234v-0.01893726z m-0.01136235 0.04292443c-0.00378745 0-0.0075749 0.00378745-0.0075749 0.01136234v0.01893725c0 0.00378745 0.00378745 0.0075749 0.0075749 0.0075749 0.0075749 0 0.01136235-0.00378745 0.01136235-0.0075749v-0.01893725c0-0.0075749-0.00378745-0.01136235-0.01136235-0.01136234z m0.08079891 0.03787449c0.00378745 0 0.0075749-0.0075749 0.00757491-0.01136235l-0.00757491-0.02019973c0-0.00378745-0.00378745-0.0075749-0.01136234-0.00757489-0.00378745 0-0.0075749 0.0075749-0.0075749 0.01136235l0.00378746 0.01893723c0.00252496 0.00883738 0.0075749 0.01388732 0.01514978 0.00883739z m-0.0075749-0.06438665l-0.00378744-0.01514978c0-0.0075749-0.0075749-0.01136235-0.01514979-0.00757491-0.00378745 0-0.0075749 0.0075749-0.00378746 0.01136235l0.00378746 0.01893725c0 0.00378745 0.0075749 0.0075749 0.01136235 0.0075749 0.0075749-0.00378745 0.01136235-0.0075749 0.00757488-0.01514981z m-0.22724694-0.05428675h0.05049932v0.00378744c-0.00378745 0.00378745-0.00378745 0.01136235 0.00378746 0.01136235 0.00378745 0.00378745 0.01136235 0 0.01136235-0.00378744l0.00757489-0.01136235h0.02272469v0.00378744c0 0.0075749 0 0.01136235 0.00757491 0.01136235 0.00378745 0.00378745 0.01136235 0 0.01136234-0.00378744l0.00378744-0.01136235h0.02651216v0.00757489c0 0.0075749 0.00378745 0.01136235 0.00757489 0.01136235 0.0075749 0 0.01136235-0.00378745 0.01136235-0.01136235v-0.00757489h0.02272469l0.00378745 0.00757489c0 0.0075749 0.0075749 0.01136235 0.0151498 0.0075749 0.00378745 0 0.0075749-0.0075749 0.00757491-0.01136235l-0.00378746-0.00378744h0.02398717l0.0075749 0.01136235c0.00378745 0.00378745 0.01136235 0.0075749 0.01641229 0.00378744 0.00378745-0.00378745 0.0075749-0.0075749 0.00378743-0.01514979h0.05049933c0.00378745 0 0.01136235-0.0075749 0.01136235-0.01136235 0-0.0075749-0.0075749-0.01136235-0.01136235-0.01136235h-0.31183331c-0.0075749 0-0.01136235 0.00378745-0.01136235 0.01136235-0.00126249 0.00378745 0.00252496 0.01136235 0.01136235 0.01136235z m0.28027124 0.03408704c-0.00378745-0.00378745-0.01136235-0.0075749-0.0151498-0.00378746-0.00378745 0.00378745-0.0075749 0.0075749-0.00378746 0.01514981l0.00757491 0.01893723c0.00378745 0.00378745 0.01136235 0.00378745 0.01514979 0.00378746 0.0075749-0.00378745 0.0075749-0.01136235 0.00378746-0.0151498l-0.0075749-0.01893724z m0.01514978 0.08079891c0.00378745 0.00378745 0.01136235 0.0075749 0.01514981 0.00378745 0.00378745-0.00378745 0.0075749-0.0075749 0.00378745-0.0151498l-0.0075749-0.02019972c-0.00378745-0.00378745-0.01136235-0.0075749-0.01514979-0.00378745-0.0075749 0.00378745-0.0075749 0.01136235-0.00378745 0.0151498l0.00757488 0.02019972zM496.85020354 491.16776739l-0.01136235 0.02019973c-0.00378745 0.0075749 0 0.01136235 0.00378745 0.01514979 0.00378745 0.00378745 0.01136235 0 0.01641228-0.00378745l0.01136235-0.01893724c0-0.00378745 0-0.01136235-0.0075749-0.01514981-0.00504994-0.00126249-0.01262483-0.00126249-0.01262483 0.00252498z m0.09594872-0.0227247l0.00757489-0.01893725c0-0.00378745-0.00378745-0.01136235-0.00757489-0.01136235-0.00378745-0.00378745-0.01136235 0-0.01136235 0.00757491l-0.00757491 0.01514978c0 0.0075749 0.00378745 0.0151498 0.00757491 0.01514981 0.0075749 0 0.01136235-0.00378745 0.01136235-0.0075749z m-0.06186167 0.00378744l0.01136235-0.01893723c0-0.0075749 0-0.01136235-0.00378746-0.01514981-0.0075749-0.00378745-0.01136235 0-0.0151498 0.00378746l-0.0075749 0.01893723c-0.00378745 0.00378745-0.00378745 0.01136235 0.00378746 0.01514981 0.00378745 0 0.0075749 0 0.01136235-0.00378746zM512.00252496 7.00678471c-278.90775281 0-504.99700274 226.10061229-504.99700273 504.99700274C7.00552223 790.91154025 233.0985596 1016.99321529 512.00252496 1016.99321529c278.9001779 0 504.98942784-226.08924994 504.98942784-504.98942784C1016.9919528 233.107397 790.90270287 7.00678471 512.00252496 7.00678471z m-329.74541978 607.04603169l-23.61348274 44.86107227c-6.08011832 12.4228331-22.12627772 17.26066811-34.57183552 10.31069897-12.71825412-6.38816418-16.97155949-22.13006518-10.57960787-34.25873972l23.61348275-44.24624303c6.98153121-12.42157061 22.74741938-17.2530932 34.57057304-10.61748236 12.41147074 6.67348534 17.25056824 22.43937351 10.58087034 33.95069387z m66.67677918-124.23716835l-23.64504482 45.4557018c-6.66969789 11.83577849-21.81065697 16.66730107-34.536486 9.99381573-12.43672041-6.63434836-17.27960534-22.41538634-10.61116993-34.84453186l23.92657853-44.21846842c6.66969789-12.74855372 22.43053615-16.97155949 34.56299815-10.29807414 12.10216241 6.63813581 16.97282196 22.40023655 10.30312407 33.91155689z m107.26939631 119.39807086l-12.13624945 44.24624304c-3.62963874 13.93150033-17.56113906 21.82201931-30.90305981 18.18480567-13.93528778-3.6687757-21.81444441-17.87675982-18.77438526-31.22373049l12.10089992-44.24498056c3.63342618-13.91508805 17.87297237-22.13006518 31.52293899-18.49285154 13.34318323 3.94399701 21.81949435 17.91463431 18.18985561 31.53051388z m33.01519394-124.23716834l-11.82441615 44.25381794C373.76063228 543.14545656 359.83291941 551.03597554 346.20946494 547.39876191 332.5544484 543.77796055 324.3672459 529.80101084 327.71535092 516.19144368l12.1021624-44.248768c3.65993834-13.93150033 18.18101824-21.81065697 31.52293898-18.49032658 13.34318323 3.65615088 21.81444441 18.18228072 17.87802231 31.52420147z m139.10038114 162.1179719c0 13.9479126-11.51132035 25.13477482-25.4781702 25.13477481-13.92771287 0-25.75212902-11.1868622-25.752129-25.13477481v-44.55302642c0-13.93150033 11.82441614-25.75212902 25.752129-25.75212901 13.95927495 0 25.47817019 11.82062868 25.4781702 25.75212901v44.55302642z m0-124.24474325c0 14.25469598-11.51132035 25.14361218-25.4781702 25.1436122-13.92771287 0-25.75212902-10.88891621-25.752129-25.1436122V478.30811516c0-13.93528778 11.82441614-25.75591646 25.752129-25.75591647 13.95927495 0 25.47817019 11.82062868 25.4781702 25.75591647v44.54166406z m99.97981925 6.3793268l-12.11352476-44.25381793c-3.63721364-13.34192075 4.22300577-27.8667881 18.18480569-31.52293899 13.3154086-3.32033039 27.86300066 4.55756377 31.2161556 18.49032658l11.78906662 44.248768c3.67635061 13.60830467-4.52221425 27.58651687-17.86792244 31.20731823-13.93150033 3.63721364-27.86300066-4.23689307-31.20858071-18.16965589z m64.25028679 142.4156616c-13.33813329 3.63721364-27.27720852-4.25330536-30.90053486-18.18480567l-12.14382434-44.23866814c-3.62080136-13.62345447 4.25330536-27.59282929 17.87675983-31.53808878 13.65375406-3.63721364 27.89456273 4.57776349 31.83982221 18.49285154l11.7903291 44.24498056c3.35946737 13.34697069-4.53105162 27.5549548-18.46255194 31.22373049z m122.41793028-126.37960204c-12.72835399 6.67348534-27.86300066 1.84196276-34.53522352-9.98624084l-23.66398207-45.46327669c-6.66464795-11.50753289-2.41134261-27.27342107 10.31827388-33.91534433 12.13624945-6.66969789 27.86300066-2.44669212 34.53648599 10.30186158l23.64756978 44.21846842c6.67222286 12.42914551 2.10329675 28.21018349-10.30312406 34.84453186z m66.64647958 123.95942206c-12.72204158 6.94996913-27.85542576 2.11213412-34.53017358-10.31069897l-23.64756979-44.86107227c-6.63434836-11.50374544-2.4189175-27.27720852 10.02411532-33.93554407 12.40642082-6.65076065 28.1647341-1.80282578 34.82938206 10.60990744l23.3483613 44.23866815c6.67222286 12.12867455 1.80282578 27.87183804-10.02411531 34.25873972zM876.78058658 379.8180259h-121.83340064l3.65993833 6.67348534c6.63434836 12.44050786 1.79525089 27.89456273-10.30186159 34.56299813-12.74602875 6.95375658-27.88698782 1.79903832-34.56047317-10.61116993l-16.65846369-30.6215261h-56.04919697l3.01228453 12.132462c3.63721364 13.61966702-4.24446797 27.57894197-18.18480567 30.90684726-13.3154086 3.93768459-27.27089611-3.9452595-31.20731823-17.87297237l-6.64318575-25.16633689H528.31885575v19.11399321c0 13.93150033-11.51132035 25.13477482-25.4781702 25.1347748-13.92771287 0-25.75212902-11.20327448-25.752129-25.1347748v-19.11399321H417.38952112l-6.63813581 25.16633689C407.09144697 418.91712559 393.15994664 426.80006968 379.84453805 422.86238509c-13.9630624-3.32916778-21.8460065-17.28718024-18.80215989-30.90684727l3.62963873-12.13246198h-56.34714296l-16.35168031 30.62152609c-6.67348534 12.41399571-22.43558607 17.56492651-34.56678558 10.61116993-12.72582903-6.66969789-16.97534694-22.12249028-10.3018616-34.56299813l3.04005916-6.67348535h-121.81825085c-13.93528778 0-25.44408315-11.20074951-25.44408315-25.13224984 0-14.54759205 11.50879537-26.06396232 25.44408315-26.06396232h372.40724662l2.10708418-0.31183332 1.83438786 0.31183332H876.78184906c14.22565887 0 26.05259997 11.51637028 26.05259998 26.06396232-0.00126249 13.93150033-11.82820358 25.13098736-26.05386246 25.13098736z" p-id="1658"></path></svg>