<?xml version="1.0" standalone="no"?><!DOCTYPE svg PUBLIC "-//W3C//DTD SVG 1.1//EN" "http://www.w3.org/Graphics/SVG/1.1/DTD/svg11.dtd"><svg t="1593592544076" class="icon" viewBox="0 0 1024 1024" version="1.1" xmlns="http://www.w3.org/2000/svg" p-id="1657" xmlns:xlink="http://www.w3.org/1999/xlink" width="128" height="128"><defs><style type="text/css"></style></defs><path d="M512 2.27555555C230.1952 2.27555555 2.27555555 230.1952 2.27555555 512s227.91964445 509.72444445 509.72444445 509.72444445 509.72444445-227.91964445 509.72444445-509.72444445S793.8048 2.27555555 512 2.27555555zM584.81777778 730.45333333c0 40.04977778-32.768 72.81777778-72.81777778 72.81777778-40.04977778 0-72.81777778-32.768-72.81777778-72.81777778L439.18222222 512c0-40.04977778 32.768-72.81777778 72.81777778-72.81777778 40.04977778 0 72.81777778 32.768 72.81777778 72.81777778L584.81777778 730.45333333zM512 366.36444445C471.95022222 366.36444445 439.18222222 333.59644445 439.18222222 293.54666667c0-40.04977778 32.768-72.81777778 72.81777778-72.81777778 40.04977778 0 72.81777778 32.768 72.81777778 72.81777778C584.81777778 333.59644445 552.04977778 366.36444445 512 366.36444445z" p-id="1658"></path></svg>