<?xml version="1.0" standalone="no"?><!DOCTYPE svg PUBLIC "-//W3C//DTD SVG 1.1//EN" "http://www.w3.org/Graphics/SVG/1.1/DTD/svg11.dtd"><svg t="1593589031391" class="icon" viewBox="0 0 1035 1024" version="1.1" xmlns="http://www.w3.org/2000/svg" p-id="3465" xmlns:xlink="http://www.w3.org/1999/xlink" width="129.375" height="128"><defs><style type="text/css"></style></defs><path d="M450.782609 322.782609c-21.147826 0-38.956522 17.808696-38.956522 38.956521s17.808696 38.956522 38.956522 38.956522 38.956522-17.808696 38.956521-38.956522-17.808696-38.956522-38.956521-38.956521z m144.695652 0c-21.147826 0-38.956522 17.808696-38.956522 38.956521s17.808696 38.956522 38.956522 38.956522 38.956522-17.808696 38.956522-38.956522-17.808696-38.956522-38.956522-38.956521z m-244.869565 122.434782c-21.147826 0-38.956522 17.808696-38.956522 38.956522s17.808696 38.956522 38.956522 38.956522 38.956522-17.808696 38.956521-38.956522-17.808696-38.956522-38.956521-38.956522zM520.904348 0C238.191304 0 8.904348 229.286957 8.904348 512s229.286957 512 512 512 512-229.286957 512-512-229.286957-512-512-512z m207.026087 642.226087c-28.93913 14.469565-60.104348 16.695652-87.930435 17.808696-33.391304 2.226087-54.53913 3.33913-65.669565 21.147826-7.791304 12.243478-2.226087 23.373913 6.678261 40.069565 8.904348 15.582609 20.034783 35.617391 4.452174 55.652174-18.921739 22.26087-45.634783 25.6-67.895653 25.6C361.73913 801.391304 233.73913 674.504348 233.73913 517.565217 233.73913 360.626087 361.73913 233.73913 517.565217 233.73913 674.504348 233.73913 801.391304 360.626087 801.391304 517.565217c0 57.878261-24.486957 100.173913-73.460869 124.66087zM684.521739 422.956522c-21.147826 0-38.956522 17.808696-38.956522 38.956521s17.808696 38.956522 38.956522 38.956522 38.956522-17.808696 38.956522-38.956522-17.808696-38.956522-38.956522-38.956521z" p-id="3466"></path></svg>