<?xml version="1.0" standalone="no"?><!DOCTYPE svg PUBLIC "-//W3C//DTD SVG 1.1//EN" "http://www.w3.org/Graphics/SVG/1.1/DTD/svg11.dtd"><svg t="1593591784886" class="icon" viewBox="0 0 1024 1024" version="1.1" xmlns="http://www.w3.org/2000/svg" p-id="2365" xmlns:xlink="http://www.w3.org/1999/xlink" width="128" height="128"><defs><style type="text/css"></style></defs><path d="M512 1024C229.229714 1024 0 794.770286 0 512S229.229714 0 512 0s512 229.229714 512 512-229.229714 512-512 512z m170.678857-438.857143H146.285714v146.285714h731.428572v-146.285714h-195.035429zM768 621.714286h73.142857v73.142857h-73.142857v-73.142857z m0-438.857143s-109.714286 40.594286-109.714286 121.892571 65.609143 112.347429 73.142857 162.523429C738.962286 517.485714 694.857143 548.571429 694.857143 548.571429s109.714286-40.594286 109.714286-121.892572-73.142857-121.929143-73.142858-162.523428C731.428571 223.451429 768 182.857143 768 182.857143z" p-id="2366"></path></svg>