<?xml version="1.0" standalone="no"?><!DOCTYPE svg PUBLIC "-//W3C//DTD SVG 1.1//EN" "http://www.w3.org/Graphics/SVG/1.1/DTD/svg11.dtd"><svg t="1593592320292" class="icon" viewBox="0 0 1024 1024" version="1.1" xmlns="http://www.w3.org/2000/svg" p-id="2212" xmlns:xlink="http://www.w3.org/1999/xlink" width="128" height="128"><defs><style type="text/css"></style></defs><path d="M512 0C229.230592 0 0 229.229568 0 512s229.229568 512 512 512 512-229.229568 512-512S794.770432 0 512 0zM361.6 835.2c0 6.4-6.4 19.2-19.2 19.2s-19.201024-6.4-19.201024-19.2v-89.6c0-12.8 6.401024-19.2 19.201024-19.2s19.2 6.4 19.2 19.2v89.6z m172.8 38.4c0 6.4-6.4 19.2-19.2 19.2-6.4 0-19.2-6.4-19.2-19.2v-128c0-12.8 6.4-19.2 19.2-19.2s19.2 6.4 19.2 19.2v128z m172.8-38.4c0 12.8-6.4 19.2-19.2 19.2s-19.2-6.4-19.2-19.2v-89.6c0-12.8 6.4-19.2 19.2-19.2s19.2 6.4 19.2 19.2v89.6z m172.8-147.2h-736c-19.2 0-32-12.8-32-32v-64c0-19.2 12.8-32 32-32h44.000256l51.999744-166.4c6.4-32 32-51.2 64-51.2h121.6v-179.2c0-19.2 12.8-32 32-32h115.2c19.2 0 32 12.8 32 32v179.2h121.6c32 0 57.598976 19.2 64 51.2l46.799872 166.4h42.800128c19.2 0 32 12.8 32 32v64c0 25.6-12.8 32-32 32z" p-id="2213"></path><path d="M751.998976 406.398976c-6.4-19.2-12.798976-25.6-32-25.6H304c-19.2 0-25.6 6.4-32 25.6l-44.8 153.6h569.598976l-44.8-153.6zM464 169.598976h102.4v172.8h-102.4zM176 598.4h-25.6v44.8h723.2v-44.8h-25.6z" p-id="2214"></path></svg>