<svg t="1592188722620" class="icon" viewBox="0 0 1024 1024" version="1.1" xmlns="http://www.w3.org/2000/svg" p-id="1379" width="128" height="128"><path d="M616.21033086 356.39649975c-29.38601876-29.38601876-63.69128297-43.49648592-104.21033086-43.49648592s-74.8243121 14.11046717-104.21033086 43.49648592c-29.38601876 28.35038815-43.49648592 62.65565235-43.49648594 103.17470025s14.11046717 74.8243121 43.49648594 103.17470025c29.25656494 28.35038815 63.69128297 42.46085531 104.21033086 42.4608553s74.8243121-14.11046717 104.21033086-42.4608553c29.38601876-28.35038815 43.49648592-62.65565235 43.49648594-103.17470025s-14.23992098-74.8243121-43.49648594-103.17470025z m0 0c-29.38601876-29.38601876-63.69128297-43.49648592-104.21033086-43.49648592s-74.8243121 14.11046717-104.21033086 43.49648592c-29.38601876 28.35038815-43.49648592 62.65565235-43.49648594 103.17470025s14.11046717 74.8243121 43.49648594 103.17470025c29.25656494 28.35038815 63.69128297 42.46085531 104.21033086 42.4608553s74.8243121-14.11046717 104.21033086-42.4608553c29.38601876-28.35038815 43.49648592-62.65565235 43.49648594-103.17470025s-14.23992098-74.8243121-43.49648594-103.17470025z m0 0c-29.38601876-29.38601876-63.69128297-43.49648592-104.21033086-43.49648592s-74.8243121 14.11046717-104.21033086 43.49648592c-29.38601876 28.35038815-43.49648592 62.65565235-43.49648594 103.17470025s14.11046717 74.8243121 43.49648594 103.17470025c29.25656494 28.35038815 63.69128297 42.46085531 104.21033086 42.4608553s74.8243121-14.11046717 104.21033086-42.4608553c29.38601876-28.35038815 43.49648592-62.65565235 43.49648594-103.17470025s-14.23992098-74.8243121-43.49648594-103.17470025z" p-id="1380"></path><path d="M895.31278222 680.03106765c39.48341728-67.70435161 59.67821431-140.5868563 59.67821431-220.45986765s-20.19479703-152.75551605-59.67821431-220.45986765c-39.48341728-67.83380543-94.11293235-120.39205925-161.81728395-159.74602272-67.83380543-39.48341728-141.62248691-58.6425837-221.49549827-58.64258371s-154.69732347 19.15916642-222.53112889 58.64258371c-67.70435161 39.48341728-121.42768987 92.04167111-160.78165333 159.74602272-39.48341728 67.70435161-59.67821431 140.5868563-59.67821431 220.45986765s20.19479703 152.75551605 59.67821431 220.45986765c32.62236445 56.05350717 74.95376592 101.75070815 126.99420444 138.12723359-64.07964445 19.67698173-103.56306173 46.60337778-103.56306172 76.37775801 0 60.06657581 161.17001482 108.74121482 359.8816395 108.74121483s359.8816395-48.67463902 359.8816395-108.74121483c0-29.90383408-39.74232494-56.83023013-104.21033086-76.50721184 52.16989235-36.37652543 95.01910914-81.94427259 127.64147358-137.99777976zM343.06275555 292.7052168c46.47392395-46.47392395 103.17470025-69.77561283 168.93724445-69.77561285s122.33386667 23.30168889 168.93724445 69.77561285c46.47392395 45.56774717 69.77561283 101.10343902 69.77561283 166.8659832 0 65.76254419-23.30168889 121.42768987-69.77561283 166.8659832-46.47392395 45.56774717-103.17470025 68.73998222-168.93724445 68.73998223s-122.33386667-23.30168889-168.93724445-68.73998223c-46.47392395-45.56774717-69.77561283-101.10343902-69.77561283-166.8659832 0-65.63309037 23.30168889-121.29823605 69.77561283-166.8659832z" p-id="1381"></path></svg>