<?xml version="1.0" encoding="utf-8"?>
<!-- Generator: Adobe Illustrator 24.2.0, SVG Export Plug-In . SVG Version: 6.00 Build 0)  -->
<svg version="1.1" xmlns="http://www.w3.org/2000/svg" xmlns:xlink="http://www.w3.org/1999/xlink" x="0px" y="0px"
	 viewBox="0 0 1024 1024" style="enable-background:new 0 0 1024 1024;" xml:space="preserve">
<g id="_x31_">
</g>
<g id="图层_2">
	<g>
		<path d="M512,192c-176.73,0-320,143.27-320,320s143.27,320,320,320s320-143.27,320-320S688.73,192,512,192z M512,736
			c-123.71,0-224-100.29-224-224s100.29-224,224-224s224,100.29,224,224S635.71,736,512,736z"/>
		<path d="M480,128h64c17.67,0,32-14.33,32-32v0c0-17.67-14.33-32-32-32h-64c-17.67,0-32,14.33-32,32v0
			C448,113.67,462.33,128,480,128z"/>
		<path d="M544,895.99h-64c-17.67,0-32,14.33-32,32v0c0,17.67,14.33,32,32,32h64c17.67,0,32-14.33,32-32v0
			C576,910.31,561.67,895.99,544,895.99z"/>
		<path d="M806.15,172.59c-12.5-12.5-32.76-12.5-45.25,0l0,0c-12.5,12.5-12.5,32.76,0,45.25l45.25,45.25
			c12.5,12.5,32.76,12.5,45.25,0l0,0c12.5-12.5,12.5-32.76,0-45.25L806.15,172.59z"/>
		<path d="M217.85,760.89c-12.5-12.5-32.76-12.5-45.25,0l0,0c-12.5,12.5-12.5,32.76,0,45.25l45.25,45.25
			c12.5,12.5,32.76,12.5,45.25,0h0c12.5-12.5,12.5-32.76,0-45.25L217.85,760.89z"/>
		<path d="M927.99,447.99L927.99,447.99c-17.67,0-32,14.33-32,32v64c0,17.67,14.33,32,32,32h0c17.67,0,32-14.33,32-32v-64
			C959.99,462.32,945.67,447.99,927.99,447.99z"/>
		<path d="M96.01,447.99L96.01,447.99c-17.67,0-32,14.33-32,32v64c0,17.67,14.33,32,32,32h0c17.67,0,32-14.33,32-32v-64
			C128.01,462.32,113.68,447.99,96.01,447.99z"/>
		<path d="M851.41,760.89c-12.5-12.5-32.76-12.5-45.25,0l-45.25,45.25c-12.5,12.5-12.5,32.76,0,45.25h0
			c12.5,12.5,32.76,12.5,45.25,0l45.25-45.25C863.9,793.65,863.9,773.39,851.41,760.89L851.41,760.89z"/>
		<path d="M172.59,263.1c12.5,12.5,32.76,12.5,45.25,0l45.25-45.25c12.5-12.5,12.5-32.76,0-45.25l0,0c-12.5-12.5-32.76-12.5-45.25,0
			l-45.25,45.25C160.1,230.34,160.1,250.6,172.59,263.1L172.59,263.1z"/>
	</g>
</g>
</svg>
