<?xml version="1.0" encoding="utf-8"?>
<!-- Generator: Adobe Illustrator 24.2.0, SVG Export Plug-In . SVG Version: 6.00 Build 0)  -->
<svg version="1.1" xmlns="http://www.w3.org/2000/svg" xmlns:xlink="http://www.w3.org/1999/xlink" x="0px" y="0px"
	 viewBox="0 0 1024 1024" style="enable-background:new 0 0 1024 1024;" xml:space="preserve">
<g id="_x31_">
</g>
<g id="图层_2">
	<g>
		<path d="M556.11,160c40.32,0,78.46,12.63,110.3,36.52c15.28,11.46,28.54,25.14,39.42,40.65c10.95,15.6,19.2,32.67,24.54,50.74
			l13.41,45.39l44.17,17.01c30.11,11.59,53.69,33.95,66.38,62.93c12.33,28.15,12.87,59.38,1.54,87.93
			c-8.73,21.98-23.87,40.68-43.8,54.09C791.88,568.83,768.25,576,743.72,576h-0.24H258.79c-26.92-0.43-52.02-11.02-70.71-29.86
			c-18.41-18.56-28.38-42.96-28.08-68.71c0.3-25.34,10.56-49.23,28.89-67.29c18.61-18.32,43.41-28.63,69.89-29.05h25.02h79.02
			l15.19-77.55c7.76-39.61,29.59-75.85,61.48-102.06c15.98-13.13,33.93-23.37,53.35-30.43C513.02,163.72,534.3,160,556.11,160
			 M556.11,64c-135.09,0-247.63,95.15-272.3,221.09h-25.65C151.46,286.31,65.25,371.21,64.01,476.3
			C62.76,583.14,149.68,670.76,258.17,672h485.31c0.08,0,0.16,0,0.24,0c89.02,0,168.96-53.74,201.38-135.41
			c43.48-109.54-11.43-233.05-122.65-275.87C788.88,147.05,682.36,64,556.11,64L556.11,64z"/>
	</g>
	<g>
		<g>
			<polygon points="237.4,739.1 135.22,929.6 191.6,959.9 293.78,769.4 237.4,739.1 			"/>
		</g>
		<g>
			<polygon points="429.4,739.1 327.22,929.6 383.6,959.9 485.78,769.4 429.4,739.1 			"/>
		</g>
		<g>
			<polygon points="621.4,739.1 519.22,929.6 575.6,959.9 677.78,769.4 621.4,739.1 			"/>
		</g>
		<g>
			<polygon points="813.4,739.1 711.22,929.6 767.6,959.9 869.78,769.4 813.4,739.1 			"/>
		</g>
	</g>
</g>
</svg>
