<?xml version="1.0" standalone="no"?><!DOCTYPE svg PUBLIC "-//W3C//DTD SVG 1.1//EN" "http://www.w3.org/Graphics/SVG/1.1/DTD/svg11.dtd"><svg t="1576835691493" class="icon" viewBox="0 0 1323 1024" version="1.1" xmlns="http://www.w3.org/2000/svg" p-id="3243" xmlns:xlink="http://www.w3.org/1999/xlink" width="165.375" height="128"><defs><style type="text/css"></style></defs><path d="M637.060224 666.773333C553.213483 666.773333 476.409515 702.112299 416.733312 753.078784L637.060224 1004.744021 857.637163 753.328811C797.919275 702.237312 721.073664 666.773333 637.060224 666.773333ZM645.769941 168.985344C854.678357 168.985344 1045.125504 248.373077 1191.065515 378.60224L1292.373376 263.083733C1119.47072 108.267307 893.642923 0 645.728299 0 398.230357 0 172.694272 107.975595 0 262.375296L101.141163 377.977131C247.039531 248.081365 437.153237 168.985344 645.769941 168.985344ZM642.852821 502.372011C768.081195 502.372011 882.474496 549.337856 970.696917 626.516864L1077.964075 504.288981C961.278763 400.939136 809.421141 333.386667 642.894507 333.386667 476.659584 333.386667 325.010304 400.730752 208.366677 503.788928L315.467136 626.183467C403.606229 549.129515 517.832832 502.372011 642.852821 502.372011Z" p-id="3244"></path></svg>