<?xml version="1.0" standalone="no"?><!DOCTYPE svg PUBLIC "-//W3C//DTD SVG 1.1//EN" "http://www.w3.org/Graphics/SVG/1.1/DTD/svg11.dtd"><svg t="1580800553044" class="icon" viewBox="0 0 1024 1024" version="1.1" xmlns="http://www.w3.org/2000/svg" p-id="983" xmlns:xlink="http://www.w3.org/1999/xlink" width="128" height="128"><defs><style type="text/css"></style></defs><path d="M638.61650432 448.84630755c34.86830819 0 63.308544-28.25511253 63.308544-63.24683548 0-34.93118066-28.44023581-63.24683549-63.308544-63.24683548s-63.18512811 28.31565597-63.18512811 63.24683548C575.43137621 420.59119502 603.74819613 448.84630755 638.61650432 448.84630755z" p-id="984"></path><path d="M828.54213518 132.17901113L639.48157611 132.17901113 639.48157611 68.93217451c0-34.86830819-28.43907072-63.24567154-63.18512811-63.24567154l-127.60673735 0c-34.86830819 0-63.308544 28.37736334-63.308544 63.24567154l0 63.24683548L195.33212103 132.17901113c-34.86830819 0-63.18512811 28.31565597-63.1851281 63.24567154l0 440.06976512c0 34.86830819 28.31565597 66.27633152 63.1851281 66.27633152l190.04904562 0 0 63.308544 0 0L196.44518741 765.07932217c-34.86830819 0-63.18512811 28.37736334-63.1851281 63.24567154l0 126.80337408c0 34.80660082 28.31565597 63.18512811 63.1851281 63.1851281l630.98271744 0c34.86947214 0 63.18629205-28.37852729 63.18629206-63.1851281l0-126.80337408c0-34.86830819-28.31565597-63.24567154-63.18629206-63.24567154L639.48157611 765.07932217l0-0.06287246 0-63.24567154L828.54213518 701.77077931c34.86830819 0 63.308544-31.40802333 63.308544-66.27633152L891.85067918 195.42584661C891.85067918 160.49583104 863.41044338 132.17901113 828.54213518 132.17901113zM448.69087459 68.99504697c0-0.06287246 0-0.06287246 0.12341476-0.06287246l127.35874276 0c0 0 0 0 0.12341475 0.06287246l0 63.1851281-127.60673735 0L448.68971065 68.99504697zM827.4290688 828.32615879l0 0.06287246 0 126.67879424 0 0.06287246L196.56976611 955.13069682c-0.12341475 0-0.12341475-0.06287246-0.12341475-0.06287247L196.44635136 828.32615879c0 0 0 0 0.12341475 0l188.81256448 0c34.99288803 0 63.308544-28.37736334 63.308544-63.24567154l0-63.308544c0 0 0 0 0.12341476 0l127.35874276 0c0 0 0 0 0.12341475 0l0 63.308544c0 34.86830819 28.31565597 63.24567154 63.18512811 63.24567154L827.4290688 828.32615879zM828.54213518 195.42584661l0 443.03755378-252.24452323 0-127.60673736 0-253.23417372 0-0.12341476 0 0-443.03755378 0.12341476 0L828.54213518 195.42584661 828.54213518 195.42584661z" p-id="985"></path><path d="M385.25775189 448.84630755c34.86947214 0 63.308544-28.25511253 63.308544-63.24683548 0-34.93118066-28.43907072-63.24683549-63.308544-63.24683548-34.86830819 0-63.18512811 28.31565597-63.1851281 63.24683548C322.07378773 420.59119502 350.38944256 448.84630755 385.25775189 448.84630755z" p-id="986"></path><path d="M37.06134414 322.41434397c-17.4341541 0-31.53027413 14.21953593-31.53027413 31.65485397l0 126.61708686c0 17.4341541 14.09612003 31.65485397 31.53027413 31.65485397 17.55873394 0 31.65485397-14.22069987 31.65485397-31.65485397l0-126.61708686C68.71503417 336.63387875 54.62007808 322.41434397 37.06134414 322.41434397z" p-id="987"></path><path d="M986.81291207 322.41434397c-17.43531805 0-31.53027413 14.21953593-31.53027413 31.65485397l0 126.61708686c0 17.4341541 14.09495609 31.65485397 31.53027413 31.65485397 17.55873394 0 31.65485397-14.22069987 31.65485398-31.65485397l0-126.61708686C1018.46776605 336.63387875 1004.37164601 322.41434397 986.81291207 322.41434397z" p-id="988"></path></svg>